<svg width="199" height="37" viewBox="0 0 199 37" fill="none" xmlns="http://www.w3.org/2000/svg">
<g clip-path="url(#clip0_72_334)">
<g clip-path="url(#clip1_72_334)">
<path fill-rule="evenodd" clip-rule="evenodd" d="M145.842 19.213C145.965 19.2629 146.167 19.2629 146.29 19.213C146.413 19.1633 146.311 19.1226 146.065 19.1226C145.819 19.1226 145.719 19.1633 145.842 19.213Z" fill="#383838"/>
<path fill-rule="evenodd" clip-rule="evenodd" d="M148.997 3.23001C151.181 3.76335 153.595 5.52293 154.451 7.20695C155.422 9.11763 155.556 11.3727 154.824 13.4917C153.977 15.9413 151.638 17.7478 148.137 18.6558C146.588 19.0576 146.553 19.0775 147.373 19.0859C148.884 19.1013 150.731 18.5503 153.742 17.1851C156.953 15.7292 158.905 14.9954 161.148 14.4018C163.023 13.9053 165.82 13.8724 167.62 14.3253C169.059 14.6873 171.839 15.9977 172.628 16.6857L173.165 17.1538L172.539 17.051C171.059 16.809 168.598 16.5852 167.397 16.5838L166.1 16.5823V18.07C166.1 20.6749 166.824 22.5915 168.515 24.4533C170.38 26.5091 172.661 27.5308 175.375 27.527C177.215 27.5245 178.359 27.2466 179.895 26.4295C180.947 25.8687 183.092 23.9699 183.092 23.598C183.092 23.5085 182.521 22.8827 181.823 22.2073C180.569 20.9947 179.769 20.036 179.902 19.903C179.939 19.8655 180.929 20.3111 182.102 20.8933C186.585 23.1193 190.352 24.0034 194.948 23.9085C196.496 23.8765 197.761 23.9011 197.761 23.963C197.761 24.072 196.367 24.6121 195.077 25.0032C194.162 25.2804 191.016 25.7321 189.979 25.735C189.127 25.7373 189.066 25.7702 188.683 26.4445C188.039 27.5751 186.567 29.2525 185.274 30.3297C183.892 31.4803 181.064 32.915 179.247 33.3883C177.512 33.8399 173.284 33.8477 171.666 33.4021C164.88 31.5331 160.355 26.0507 159.895 19.1396C159.835 18.2267 159.749 17.4796 159.705 17.4796C159.235 17.4796 154.872 19.0757 154.492 19.3869C154.455 19.4185 154.725 19.7799 155.095 20.1901C156.514 21.7667 157.165 24.0923 156.798 26.2769C156.224 29.6938 153.742 32.2989 150.382 33.0134C149.455 33.2105 147.25 33.2663 140.297 33.2687L131.399 33.2719V27.7416V22.2114L129.697 21.8899C128.284 21.6228 125.702 20.8355 124.377 20.2673C124.136 20.1639 124.065 20.2194 124.065 20.5092C124.065 20.8837 124.038 20.8853 116.954 20.9322L109.844 20.979L109.795 24.0747L109.746 27.1703H117.978H126.211V30.2224V33.2745L114.718 33.2282L103.225 33.1821L103.186 26.204C103.165 22.3661 103.111 19.1889 103.066 19.144C102.943 19.0206 101.074 19.8983 98.3576 21.3552C97.0186 22.0735 95.2133 22.8882 94.3462 23.1661C93.4792 23.4436 92.7679 23.7218 92.7655 23.7842C92.7632 23.8465 94.1406 25.8251 95.8269 28.1809C97.513 30.5367 99.0112 32.646 99.1566 32.868L99.4207 33.2719H95.4924H91.5642L88.3615 28.4309L85.159 23.5902L82.5206 23.5857L79.8822 23.5811V28.4265V33.2719H76.5731H73.2639V29.1233V24.975L72.8615 25.0689C70.9867 25.5065 69.4555 25.7354 68.3739 25.7397L67.0928 25.7449L66.5264 26.6818C64.7052 29.6953 60.9621 32.4147 57.3441 33.3529C55.7305 33.7714 52.6527 33.9107 50.9848 33.6409C43.764 32.4721 38.3354 26.4916 37.8996 19.2256C37.7989 17.5478 37.7781 17.4771 37.4181 17.5873C36.7336 17.7965 34.9063 18.5856 34.2246 18.9661L33.5538 19.3402V26.306V33.2719H30.7071H27.8603L23.4635 27.4733L19.0666 21.6746L17.5648 22.1787C16.7388 22.4558 15.4518 22.7779 14.7048 22.8944L13.3466 23.1064L13.299 28.1442L13.2516 33.1821L9.98715 33.2311L6.72271 33.2799L6.72056 27.7577L6.71841 22.2353L5.69204 21.6689C5.1275 21.3575 4.13493 20.5903 3.48651 19.964C2.24852 18.7688 1.07671 17.3416 1.21731 17.2006C1.26274 17.1549 1.99792 17.4455 2.85098 17.8467C6.03261 19.3424 10.2485 20.5003 13.9672 20.8996C15.878 21.1049 18.7906 21.0248 20.1383 20.73C20.6933 20.6084 20.6085 20.5776 19.3915 20.4579L18.0185 20.3228L15.7246 17.2648L13.4304 14.2067L13.381 16.8301C13.3537 18.273 13.2678 19.4537 13.1899 19.4537C12.38 19.4537 9.34142 18.2095 7.86141 17.2716L6.72271 16.5502V9.7468V2.9436H9.83619H12.9497L13.5679 3.79602C13.9077 4.26494 15.2255 6.02128 16.4961 7.69921C17.7665 9.37712 20.4842 12.9708 22.5355 15.685C24.5867 18.3993 26.4158 20.7794 26.6003 20.974C26.9282 21.3204 26.9354 21.1289 26.9354 12.1357V2.9436H30.2447H33.5538V9.33513V15.7269L32.6148 16.7503C32.0983 17.3133 31.4789 18.1316 31.2385 18.569L30.8015 19.3639L31.7461 18.5149C33.7476 16.7158 36.3346 15.2572 38.8669 14.4999C40.8657 13.9023 43.6976 13.8261 45.6279 14.3181C47.5113 14.7981 51.1958 16.7088 50.8695 17.0363C50.8224 17.0837 50.3679 17.0433 49.8596 16.9466C49.3515 16.8499 47.8493 16.7162 46.5214 16.6492L44.1074 16.5278V18.1375C44.1074 20.8272 44.9828 22.9864 46.8174 24.821C48.6387 26.6429 50.7962 27.5292 53.4088 27.5292C56.0365 27.5292 58.1786 26.6434 60.0311 24.7903C60.6192 24.2022 61.1005 23.6585 61.1005 23.5822C61.1005 23.506 60.7585 23.1378 60.3402 22.7646C59.5053 22.019 57.6872 19.947 57.7832 19.8505C57.8163 19.8173 58.8381 20.2775 60.0533 20.8734C62.3363 21.9924 65.1126 23.0007 67.2793 23.4975C68.0919 23.6838 69.7342 23.8105 72.0118 23.8626C75.3616 23.939 75.8411 23.8465 74.0689 23.4657L73.3533 23.312L73.3072 13.1278L73.2608 2.9436H81.6608C87.0603 2.9436 90.399 3.01393 91.0084 3.14045C92.6514 3.4816 94.5277 4.50343 95.7343 5.71369C97.5487 7.5341 98.3063 9.45537 98.3063 12.2371C98.3063 14.218 97.9673 15.7034 97.1734 17.2032C95.7437 19.9034 92.1952 22.2993 88.4879 23.0675C87.8867 23.1921 87.3949 23.3567 87.3949 23.4331C87.3949 23.7511 90.9338 22.7643 93.0212 21.8641C93.8127 21.5228 95.4667 20.6043 96.6964 19.8233C104.241 15.0306 105.278 14.665 110.817 14.8411C113.709 14.9331 115.014 15.1133 117.625 15.7809C118.019 15.8817 118.003 15.8489 117.491 15.5034C117.171 15.2877 116.909 15.079 116.909 15.0393C116.909 14.9997 118.519 14.9672 120.487 14.9672H124.065V16.3132V17.659L123.483 17.6663L122.901 17.6734L123.372 17.9301C124.911 18.7687 129.332 19.6302 132.104 19.632C133.938 19.6331 134.038 19.4664 132.426 19.095L131.399 18.858V10.9029V2.94772L138.419 2.89568C146.405 2.83646 147.529 2.87199 148.997 3.23001ZM137.838 15.1765V12.0211V8.86567L141.817 8.86674C144.169 8.86729 146.088 8.94877 146.509 9.06577C148.717 9.68095 149.447 12.5646 147.767 14.0437C146.791 14.9035 146.149 15.0176 141.817 15.1003L137.838 15.1765ZM79.9717 17.5693L79.9238 13.3072L79.8758 9.04514H83.8712C86.9576 9.04514 88.0788 9.1083 88.7995 9.32311C91.8019 10.2175 92.7144 14.0335 90.4529 16.2353C89.2084 17.4466 88.6057 17.5693 83.9069 17.5693H79.9717ZM146.29 19.2135C146.167 19.2634 145.965 19.2634 145.842 19.2135C145.719 19.1638 145.819 19.1231 146.065 19.1231C146.311 19.1231 146.413 19.1638 146.29 19.2135ZM137.838 27.3498V24.0147V20.6798L142.712 20.7441C147.943 20.8131 148.422 20.891 149.435 21.8401C150.794 23.1137 150.669 25.4238 149.187 26.4357C148.042 27.2182 147.047 27.3498 142.271 27.3498H137.838Z" fill="#383838"/>
<path d="M54.9811 2.59634C60.2418 3.17616 64.7615 6.22658 67.1473 10.8076C67.6449 11.7626 68.2245 13.1498 68.4358 13.8901C69.1011 16.2227 69.1497 21.2479 68.5069 21.2479C68.3643 21.2479 67.5853 20.9154 66.7758 20.5092C65.046 19.6409 62.9273 17.9941 62.812 17.4281C62.2764 14.8009 62.0698 14.2452 61.0903 12.7983C58.2387 8.58537 52.5169 7.50934 48.2215 10.3781L47.059 11.1547L44.6441 11.2539C42.7947 11.33 41.8621 11.4612 40.6614 11.8142C39.7991 12.0675 39.0535 12.275 39.0046 12.275C38.9557 12.275 39.1922 11.7241 39.5303 11.0506C41.8349 6.45916 46.5117 3.19232 51.6202 2.6055C52.3581 2.52079 53.0253 2.44094 53.1028 2.42819C53.1807 2.41528 54.0259 2.49101 54.9811 2.59634Z" fill="#383838"/>
<path d="M126.031 5.9044V8.86543H117.893H109.754V10.5489V12.2322L108.1 12.3139C106.608 12.3875 105.392 12.6838 103.449 13.4468C103.155 13.5621 103.136 13.2438 103.136 8.25653V2.94336H114.584H126.031V5.9044Z" fill="#383838"/>
<path d="M178.753 2.86873C181.823 3.54977 184.483 5.06206 186.69 7.37849C189.547 10.3801 190.956 13.8891 190.958 18.0174C190.959 20.2501 190.821 21.2477 190.511 21.2477C190.056 21.2477 187.09 19.6241 186.081 18.823C184.951 17.9253 184.841 17.7326 184.545 16.1332C184.082 13.6193 182.025 10.9303 179.694 9.79003C176.489 8.22283 173.14 8.44015 170.19 10.407C169.007 11.195 168.997 11.1981 167.396 11.1981C165.663 11.1981 163.255 11.5564 161.997 12.0015C161.567 12.154 161.168 12.2325 161.112 12.1759C160.925 11.9886 162.225 9.7091 163.273 8.3856C164.685 6.60414 166.389 5.239 168.515 4.18667C171.853 2.53422 175.266 2.09492 178.753 2.86873Z" fill="#383838"/>
</g>
</g>
<defs>
<clipPath id="clip0_72_334">
<rect width="198.966" height="36.1757" fill="white" transform="translate(0 0.0151367)"/>
</clipPath>
<clipPath id="clip1_72_334">
<rect width="198.966" height="36.1757" fill="white" transform="translate(0 0.0151367)"/>
</clipPath>
</defs>
</svg>
