<svg width="170" height="50" viewBox="0 0 170 50" fill="none" xmlns="http://www.w3.org/2000/svg">
<g clip-path="url(#clip0_72_319)">
<g clip-path="url(#clip1_72_319)">
<path d="M132.296 16.002L138.256 11.6128H118.304V37.9051H138.256V33.5159H124.004V26.803H136.183V22.4137H124.004V16.002H132.296Z" fill="#21A038"/>
<path d="M103.236 21.8543H96.3261V16.002H107.382L113.342 11.6128H90.6255V37.9051H102.502C109.153 37.9051 112.996 34.8928 112.996 29.643C112.996 24.6083 109.541 21.8543 103.236 21.8543ZM102.286 33.5159H96.3261V26.2436H102.286C105.914 26.2436 107.598 27.4483 107.598 29.9012C107.598 32.354 105.784 33.5159 102.286 33.5159Z" fill="#21A038"/>
<path d="M154.4 11.6128H143.561V37.9051H149.261V30.4606H154.444C161.353 30.4606 165.673 26.846 165.673 21.0367C165.673 15.2275 161.353 11.6128 154.4 11.6128ZM154.271 26.0714H149.219V16.002H154.271C157.942 16.002 159.929 17.8093 159.929 21.0367C159.929 24.264 157.942 26.0714 154.271 26.0714Z" fill="#21A038"/>
<path d="M80.8542 32.2225C79.3427 33.04 77.6583 33.4704 75.9308 33.4704C70.7916 33.4704 67.0775 29.8127 67.0775 24.778C67.0775 19.7433 70.7916 16.0857 75.9308 16.0857C77.7878 16.0426 79.6017 16.6451 81.1132 17.7208L85.216 14.7086L84.9569 14.4504C82.5816 12.3419 79.3858 11.2661 75.7581 11.2661C71.8281 11.2661 68.2436 12.6001 65.6523 15.0098C63.0612 17.5057 61.5928 20.9912 61.6791 24.6059C61.636 28.2635 63.0612 31.7921 65.6523 34.3741C68.3731 36.9129 72.0008 38.3329 75.715 38.2469C79.8176 38.2469 83.4022 36.8268 85.8206 34.2449L82.1498 31.5339L80.8542 32.2225Z" fill="#21A038"/>
<path d="M43.8384 11.4404C44.8749 12.7744 45.7387 14.2375 46.4728 15.7867L26.5204 30.4604L18.1423 25.2106V18.9279L26.4773 24.1347L43.8384 11.4404Z" fill="#21A038"/>
<path d="M9.63855 24.7804C9.63855 24.4792 9.63855 24.221 9.68174 23.9198L4.62888 23.6616C4.62888 24.0059 4.58569 24.3931 4.58569 24.7374C4.58569 30.7618 7.04734 36.2268 11.0205 40.1857L14.605 36.6141C11.5388 33.6019 9.63855 29.4278 9.63855 24.7804Z" fill="url(#paint0_linear_72_319)"/>
<path d="M26.4716 7.99661C26.7739 7.99661 27.033 7.99661 27.3353 8.03963L27.5944 3.00495C27.249 3.00495 26.8602 2.96191 26.5147 2.96191C20.4686 2.96191 14.9838 5.41471 11.0107 9.37361L14.5952 12.9452C17.6183 9.89 21.8506 7.99661 26.4716 7.99661Z" fill="url(#paint1_linear_72_319)"/>
<path d="M26.4908 41.5615C26.1885 41.5615 25.9295 41.5615 25.6272 41.5185L25.368 46.5532C25.7135 46.5532 26.1022 46.5961 26.4476 46.5961C32.4938 46.5961 37.9785 44.1434 41.9517 40.1844L38.3672 36.6128C35.3442 39.7111 31.1551 41.5615 26.4908 41.5615Z" fill="url(#paint2_linear_72_319)"/>
<path d="M35.99 10.9257L40.2655 7.78443C36.5083 4.77223 31.7145 2.92188 26.489 2.92188V7.95656C30.0302 7.99959 33.3124 9.07539 35.99 10.9257Z" fill="url(#paint3_linear_72_319)"/>
<path d="M48.418 24.7821C48.418 23.4482 48.2883 22.1572 48.0724 20.8662L43.3651 24.3519C43.3651 24.4809 43.3651 24.653 43.3651 24.7821C43.3651 29.7307 41.2057 34.163 37.794 37.2182L41.2057 40.9619C45.6107 37.0031 48.418 31.1938 48.418 24.7821Z" fill="#21A038"/>
<path d="M26.4858 41.5658C21.5194 41.5658 17.0712 39.4142 14.0048 36.0146L10.2476 39.4142C14.264 43.8465 20.051 46.6005 26.4858 46.6005V41.5658Z" fill="url(#paint4_linear_72_319)"/>
<path d="M15.2097 12.3414L11.7979 8.59766C7.34965 12.5996 4.58569 18.3658 4.58569 24.7775H9.63855C9.63855 19.8719 11.7979 15.3966 15.2097 12.3414Z" fill="url(#paint5_linear_72_319)"/>
</g>
</g>
<defs>
<linearGradient id="paint0_linear_72_319" x1="10.4979" y1="39.5731" x2="5.35926" y2="24.7137" gradientUnits="userSpaceOnUse">
<stop offset="0.1444" stop-color="#F2E913"/>
<stop offset="0.3037" stop-color="#E7E518"/>
<stop offset="0.5823" stop-color="#CADB26"/>
<stop offset="0.891" stop-color="#A3CD39"/>
</linearGradient>
<linearGradient id="paint1_linear_72_319" x1="12.451" y1="8.78989" x2="25.5485" y2="3.79673" gradientUnits="userSpaceOnUse">
<stop offset="0.0592" stop-color="#0FA8E0"/>
<stop offset="0.5385" stop-color="#0099F9"/>
<stop offset="0.9234" stop-color="#0291EB"/>
</linearGradient>
<linearGradient id="paint2_linear_72_319" x1="25.0713" y1="42.3014" x2="40.6863" y2="38.7709" gradientUnits="userSpaceOnUse">
<stop offset="0.1226" stop-color="#A3CD39"/>
<stop offset="0.2846" stop-color="#86C339"/>
<stop offset="0.8693" stop-color="#21A038"/>
</linearGradient>
<linearGradient id="paint3_linear_72_319" x1="25.4507" y1="6.14317" x2="38.4345" y2="10.1508" gradientUnits="userSpaceOnUse">
<stop offset="0.0566" stop-color="#0291EB"/>
<stop offset="0.79" stop-color="#0C8ACB"/>
</linearGradient>
<linearGradient id="paint4_linear_72_319" x1="11.5324" y1="40.2319" x2="25.4725" y2="45.4424" gradientUnits="userSpaceOnUse">
<stop offset="0.1324" stop-color="#F2E913"/>
<stop offset="0.2977" stop-color="#EBE716"/>
<stop offset="0.5306" stop-color="#D9E01F"/>
<stop offset="0.8023" stop-color="#BBD62D"/>
<stop offset="0.9829" stop-color="#A3CD39"/>
</linearGradient>
<linearGradient id="paint5_linear_72_319" x1="8.43045" y1="25.3856" x2="13.9876" y2="10.9238" gradientUnits="userSpaceOnUse">
<stop offset="0.0698" stop-color="#A3CD39"/>
<stop offset="0.2599" stop-color="#81C55F"/>
<stop offset="0.9216" stop-color="#0FA8E0"/>
</linearGradient>
<clipPath id="clip0_72_319">
<rect width="168.82" height="48.2343" fill="white" transform="translate(0.666748 0.98584)"/>
</clipPath>
<clipPath id="clip1_72_319">
<rect width="168.82" height="48.2343" fill="white" transform="translate(0.666748 0.98584)"/>
</clipPath>
</defs>
</svg>
