<svg width="179" height="49" viewBox="0 0 179 49" fill="none" xmlns="http://www.w3.org/2000/svg">
<g clip-path="url(#clip0_72_342)">
<g clip-path="url(#clip1_72_342)">
<g clip-path="url(#clip2_72_342)">
<path fill-rule="evenodd" clip-rule="evenodd" d="M0.884007 3.42886C0.975984 3.49003 1.13229 3.54087 1.2314 3.5419C1.3304 3.54281 1.7758 3.73124 2.22096 3.96052C3.21733 4.47348 4.2672 5.5144 4.75229 6.46985C5.49525 7.93341 5.45478 6.87963 5.4569 24.8469C5.45856 38.3768 5.48532 41.2537 5.61532 41.8853C6.09783 44.2285 8.06058 46.181 10.3217 46.5674C10.824 46.6533 12.5342 46.6868 15.3217 46.6658C19.5436 46.6338 19.5561 46.6329 18.945 46.4317C17.0137 45.7961 15.5 44.1514 14.9965 42.1417C14.8395 41.5146 14.8197 39.6349 14.818 25.1582C14.8164 11.4754 14.7906 8.75607 14.6563 8.10428C14.1916 5.84639 12.3538 3.95972 10.1511 3.47913C9.25973 3.28474 0.596592 3.23768 0.884007 3.42886ZM103.787 25.0025V46.691H104.122H104.456V25.0025V3.31411H104.122H103.787V25.0025ZM109.402 3.45434C109.374 3.50002 109.542 3.62923 109.775 3.74168L110.198 3.94606L110.27 4.92112C110.362 6.15427 110.361 8.65647 110.268 9.10917C110.213 9.37793 110.081 9.51093 109.664 9.71577C109.37 9.86013 109.155 10.0189 109.185 10.0686C109.214 10.1184 110.307 10.1553 111.614 10.1506L113.988 10.142L114.182 9.73539C114.482 9.10286 114.555 8.59279 114.344 8.59279C114.249 8.59279 114.141 8.687 114.106 8.80209C114.07 8.91719 113.888 9.16254 113.701 9.34717C113.384 9.65953 113.299 9.68295 112.493 9.68295C111.284 9.68295 111.257 9.64979 111.257 8.17187V6.97579L112.008 7.00964C112.704 7.04108 112.771 7.06714 112.906 7.35919C112.987 7.53281 113.094 7.67476 113.143 7.67476C113.283 7.67476 113.37 5.91524 113.238 5.78132C113.162 5.70466 113.107 5.71362 113.074 5.80851C112.91 6.26557 112.643 6.42176 111.981 6.44563L111.313 6.46985L111.281 5.19206L111.25 3.91417L112.061 3.86287C112.508 3.83476 112.928 3.8312 112.995 3.85506C113.062 3.87893 113.228 4.1027 113.365 4.35217C113.501 4.60177 113.659 4.80592 113.717 4.80592C113.85 4.80592 113.85 3.769 113.717 3.55235C113.636 3.42095 113.208 3.3871 111.534 3.38021C110.389 3.3754 109.429 3.40879 109.402 3.45434ZM116.012 3.45756C115.87 3.55246 116.106 3.7682 116.355 3.77141C116.43 3.77232 116.572 3.89994 116.671 4.05497C116.825 4.29698 116.845 4.68473 116.813 6.79173C116.773 9.40879 116.758 9.47937 116.188 9.76981C115.629 10.0549 115.869 10.142 117.212 10.142C118.646 10.142 118.932 10.0181 118.19 9.71818L117.759 9.54375L117.685 8.30452C117.592 6.74021 117.592 5.49559 117.683 4.59327L117.755 3.88789H118.74C119.831 3.88789 119.954 3.96753 120.118 4.77723C120.282 5.58394 120.546 5.03715 120.489 4.01331L120.454 3.40523L118.297 3.38836C117.111 3.37906 116.083 3.41017 116.012 3.45756ZM123.966 3.46468C122.226 3.98256 121.242 5.17072 121.242 6.75672C121.242 8.06309 121.895 9.11548 123.083 9.72701C123.917 10.1558 124.771 10.274 125.65 10.0822C128.332 9.49624 129.406 6.49876 127.641 4.52684C126.805 3.59377 125.146 3.11388 123.966 3.46468ZM129.39 3.46628C129.31 3.52527 129.304 3.57954 129.374 3.60995C129.435 3.6368 129.661 3.74904 129.875 3.85942L130.266 4.06001L130.259 6.5846C130.252 9.38975 130.223 9.52068 129.566 9.8032C128.918 10.0818 129.295 10.183 130.812 10.139C132.466 10.0909 132.328 10.1059 132.328 9.97431C132.328 9.9136 132.128 9.80848 131.883 9.74067C131.571 9.65415 131.421 9.54145 131.377 9.36324C131.345 9.22347 131.332 7.92148 131.349 6.46985L131.38 3.83051L131.646 3.79183C132.851 3.61649 133.731 4.68496 133.449 5.97985C133.319 6.5815 132.801 7.10098 132.333 7.10098C131.963 7.10098 131.776 7.30559 132.007 7.45626C132.409 7.71848 133.339 7.44043 133.9 6.89076C134.69 6.11582 134.744 4.97965 134.03 4.10695C133.518 3.47993 133.142 3.38182 131.23 3.37643C130.29 3.37367 129.462 3.41418 129.39 3.46628ZM138.682 3.46468C136.942 3.98256 135.959 5.17072 135.959 6.75672C135.959 8.06309 136.611 9.11548 137.8 9.72701C138.633 10.1558 139.487 10.274 140.366 10.0822C143.048 9.49624 144.122 6.49876 142.357 4.52684C141.521 3.59377 139.862 3.11388 138.682 3.46468ZM144.954 3.39296C144.374 3.426 144.145 3.48246 144.145 3.59331C144.145 3.67868 144.319 3.78116 144.534 3.82282C144.812 3.8764 144.943 3.97189 144.987 4.15618C145.073 4.51134 145 9.35876 144.907 9.4547C144.865 9.49716 144.641 9.59929 144.409 9.68145C143.939 9.84773 143.808 10.0321 144.113 10.0995C144.223 10.1237 145.04 10.1432 145.93 10.1428C147.65 10.142 148.125 10.0289 148.684 9.48809C149.053 9.13133 149.316 8.33884 149.226 7.84941C149.137 7.36365 148.626 6.72586 148.166 6.53032L147.838 6.39032L148.277 5.96011C148.659 5.58612 148.717 5.46391 148.716 5.02452C148.716 4.40244 148.409 3.85368 147.913 3.58642C147.525 3.37688 146.459 3.30724 144.954 3.39296ZM125.614 3.95112C126.573 4.36308 127.202 5.3394 127.286 6.5504C127.448 8.85935 126.141 10.1755 124.258 9.60009C123.629 9.40799 122.828 8.56708 122.591 7.85114C122.489 7.54233 122.406 6.9502 122.406 6.53548C122.41 4.53017 123.992 3.25479 125.614 3.95112ZM140.33 3.95112C141.29 4.36308 141.918 5.3394 142.002 6.5504C142.164 8.85935 140.857 10.1755 138.975 9.60009C138.346 9.40799 137.544 8.56708 137.307 7.85114C137.205 7.54233 137.123 6.9502 137.123 6.53548C137.126 4.53017 138.709 3.25479 140.33 3.95112ZM147.446 4.16329C147.766 4.49252 147.824 4.63493 147.824 5.0749C147.824 5.87737 147.49 6.20913 146.615 6.27419L145.93 6.32526V5.12573C145.93 4.4659 145.963 3.89167 146.004 3.84967C146.045 3.80756 146.301 3.77314 146.573 3.77314C146.986 3.77314 147.129 3.83694 147.446 4.16329ZM147.614 7.01917C148.099 7.35516 148.308 7.96359 148.166 8.61711C148.024 9.26937 147.635 9.63704 147.01 9.70946C146.573 9.76018 146.464 9.7277 146.217 9.4726C145.946 9.19489 145.93 9.10849 145.93 8.04335C145.93 7.41989 145.963 6.87526 146.004 6.83327C146.045 6.79116 146.338 6.75672 146.657 6.75672C147.073 6.75672 147.339 6.82959 147.614 7.01917ZM173.266 13.7797C172.913 14.1429 173.308 14.9095 173.963 15.132C174.793 15.4138 175.808 14.8793 175.808 14.1604C175.808 13.9161 175.743 13.7558 175.627 13.7096C175.341 13.5969 175.111 13.8695 175.182 14.2356C175.255 14.61 175.023 14.7895 174.47 14.7895C173.932 14.7895 173.66 14.6005 173.804 14.3257C174.029 13.8914 173.591 13.4457 173.266 13.7797ZM170.815 15.6749C170.631 15.7445 170.852 16.0517 171.083 16.0517C171.168 16.0517 171.337 16.1551 171.46 16.2813C171.669 16.4964 171.683 16.6626 171.682 18.9492C171.681 20.2906 171.649 21.5064 171.611 21.6512C171.572 21.8026 171.357 22.0118 171.107 22.1433C170.867 22.2691 170.698 22.4157 170.73 22.4689C170.775 22.5434 172.949 22.5619 173.384 22.4915C173.591 22.4577 173.43 22.2492 173.048 22.0571C172.72 21.8919 172.624 21.773 172.602 21.5025C172.575 21.1937 172.755 20.9773 174.36 19.3967L176.148 17.6351L176.117 19.7409L176.087 21.8469L175.697 22.0473C174.996 22.4071 175.193 22.534 176.477 22.5499C178.152 22.5708 178.415 22.4574 177.62 22.0571C177.231 21.8614 177.196 21.8032 177.129 21.2157C177.089 20.8686 177.051 19.6458 177.045 18.4984C177.033 16.2406 177.06 16.1363 177.661 15.9808C177.812 15.9418 177.917 15.8514 177.894 15.78C177.868 15.698 177.464 15.6413 176.802 15.6261C175.201 15.5893 174.843 15.7371 175.697 16.0825C176.089 16.2413 176.142 16.3072 176.142 16.6357C176.142 16.9659 175.948 17.2033 174.443 18.7071C173.507 19.6412 172.703 20.407 172.656 20.409C172.609 20.4108 172.584 19.4699 172.6 18.3182L172.63 16.224L172.996 16.0588C173.618 15.7767 173.359 15.6512 172.12 15.635C171.481 15.6268 170.894 15.6446 170.815 15.6749ZM23.1377 15.9581C22.9358 16.139 22.5925 16.8594 22.0621 18.2144C21.6337 19.3093 21.1112 20.5878 20.9011 21.0557C20.5536 21.8301 20.4732 21.9268 20.0038 22.1339C19.7202 22.259 19.5167 22.409 19.5517 22.4672C19.6 22.5478 21.4757 22.5656 21.983 22.4904C22.1892 22.4599 22.0364 22.2256 21.7411 22.1197C21.2827 21.9552 21.2515 21.7629 21.542 20.8913L21.7971 20.1255L22.4615 20.0353C22.8269 19.9858 23.3435 19.9768 23.6095 20.0152C24.0547 20.0798 24.1114 20.1273 24.3193 20.6112C24.4436 20.9003 24.5712 21.3357 24.6029 21.5786C24.6566 21.9912 24.6374 22.0286 24.3111 22.1456C23.9971 22.2583 23.8327 22.468 24.0455 22.4844C25.127 22.5678 26.752 22.566 26.8028 22.4814C26.8391 22.4211 26.6286 22.2535 26.3352 22.1092L25.8015 21.8469L24.9995 19.7813C24.5584 18.6451 24.063 17.3026 23.8987 16.7977C23.7343 16.2927 23.5626 15.8375 23.5169 15.7858C23.4715 15.7343 23.3009 15.8118 23.1377 15.9581ZM30.6026 16.0892C30.4454 16.3013 30.3167 16.5319 30.3167 16.6014C30.3167 16.8136 28.5578 21.5612 28.3696 21.8568C28.2459 22.0511 28.0899 22.1337 27.847 22.1337H27.5008L27.5818 23.3099C27.6262 23.9568 27.6873 24.5274 27.7175 24.5778C27.8388 24.7803 28.087 24.3741 28.087 23.9728C28.087 23.4037 28.286 22.8436 28.5373 22.7051C28.6504 22.6428 29.7107 22.5927 30.9163 22.5927C33.4718 22.5927 33.4384 22.5765 33.4384 23.8163C33.4384 25.0596 33.7735 24.872 33.9844 23.5108C34.0578 23.0374 34.146 22.534 34.1805 22.392C34.2363 22.1613 34.2017 22.1337 33.8543 22.1337C33.6406 22.1337 33.4151 22.0692 33.3532 21.9903C33.23 21.8332 31.2638 16.6047 31.1457 16.12C31.036 15.6703 30.9181 15.6634 30.6026 16.0892ZM35.9189 15.7863C35.3384 15.8194 35.1107 15.8759 35.1107 15.9867C35.1107 16.0721 35.2844 16.1746 35.5 16.2162C35.7777 16.2698 35.9073 16.3653 35.9524 16.5496C36.0388 16.9047 35.9651 21.7521 35.8715 21.8481C35.8301 21.8906 35.6061 21.9926 35.3737 22.0748C34.904 22.2412 34.7736 22.4255 35.0783 22.4929C35.1881 22.5171 36.0054 22.5367 36.8945 22.5362C38.6148 22.5353 39.0901 22.4223 39.6495 21.8815C40.0184 21.5247 40.2803 20.7323 40.1912 20.2428C40.102 19.7534 39.5892 19.119 39.122 18.9197L38.7845 18.7757L39.233 18.3493C39.6265 17.9755 39.6817 17.861 39.6812 17.4178C39.6807 16.7959 39.3744 16.247 38.8783 15.9799C38.4896 15.7703 37.4239 15.7007 35.9189 15.7863ZM44.2231 15.8262C42.2288 16.3393 41.104 18.4372 41.8023 20.3414C41.9386 20.7125 42.2239 21.2144 42.4366 21.4568C43.3899 22.543 45.0935 22.8675 46.3971 22.2111C46.745 22.0359 47.1654 21.7272 47.3313 21.5254C48.8459 19.6824 48.3445 16.9639 46.32 16.0421C45.745 15.7803 44.7853 15.6815 44.2231 15.8262ZM54.844 15.7881C54.5111 15.9122 53.941 16.5744 53.3342 17.5413C52.6757 18.5905 52.531 18.7308 51.9771 18.8561C51.6427 18.9316 51.6244 18.9173 51.5906 18.555C51.5711 18.346 51.5717 17.796 51.5922 17.333C51.6289 16.4961 51.6313 16.4902 52.0102 16.3273C52.6906 16.0347 52.4489 15.937 51.0442 15.937C50.0579 15.937 49.7087 15.9733 49.7408 16.0726C49.765 16.1472 49.956 16.2674 50.1651 16.3399C50.4806 16.4493 50.562 16.5484 50.6425 16.9216C50.7659 17.4938 50.6599 21.484 50.5141 21.752C50.4538 21.8629 50.2502 22.0069 50.0617 22.0723C49.3739 22.3106 49.7044 22.4206 51.1091 22.4206C52.4842 22.4206 52.855 22.3076 52.1962 22.0897C51.6347 21.9038 51.6108 21.8396 51.6108 20.5131C51.6108 19.3414 51.6246 19.2648 51.8339 19.2648C52.126 19.2648 52.3609 19.5178 53.0624 20.5877C53.9636 21.9626 54.3232 22.3233 54.9314 22.4628C55.3317 22.5545 58.2537 22.5764 58.7739 22.4916C58.979 22.4581 58.8279 22.2258 58.532 22.1197C58.0736 21.9552 58.0423 21.7629 58.3329 20.8913L58.5881 20.1255L59.2524 20.0353C59.6178 19.9858 60.1344 19.9768 60.4004 20.0152C60.8456 20.0798 60.9023 20.1273 61.1102 20.6112C61.2345 20.9003 61.3622 21.3357 61.3938 21.5786C61.4476 21.9912 61.4283 22.0286 61.102 22.1456C60.788 22.2583 60.6235 22.468 60.8365 22.4844C61.9179 22.5678 63.543 22.566 63.5936 22.4814C63.6301 22.4211 63.4195 22.2535 63.1261 22.1092L62.5924 21.8469L61.7904 19.7813C61.3494 18.6451 60.8539 17.3026 60.6895 16.7977C60.5252 16.2927 60.3535 15.8375 60.3079 15.7858C60.2624 15.7343 60.0918 15.8118 59.9286 15.9581C59.7267 16.139 59.3834 16.8594 58.853 18.2144C57.5288 21.5981 57.3855 21.8748 56.8323 22.1166C55.8314 22.5541 55.0269 21.9812 53.648 19.8486L52.9644 18.7914L53.6417 17.795C54.0143 17.2469 54.3995 16.7354 54.4979 16.6583C54.5963 16.5811 54.8866 16.5164 55.1432 16.5144C55.5222 16.5115 55.6238 16.4642 55.6863 16.2613C55.8091 15.8634 55.3433 15.6017 54.844 15.7881ZM63.1676 15.794C63.1398 15.8411 63.0993 16.2359 63.0777 16.6714C63.0499 17.2322 63.079 17.4779 63.1776 17.5131C63.2543 17.5404 63.3502 17.4679 63.3909 17.3523C63.4316 17.2366 63.5618 16.9979 63.6804 16.8219C63.8901 16.5105 63.9203 16.5028 64.805 16.535L65.7141 16.5682L65.7441 19.0233C65.7784 21.812 65.7513 21.9226 64.9825 22.1357C64.7282 22.2061 64.5479 22.3195 64.5718 22.3938C64.6322 22.58 67.6848 22.5886 67.7452 22.4029C67.7688 22.3298 67.6096 22.2096 67.3912 22.1354C67.173 22.0612 66.9506 21.9143 66.8972 21.8089C66.7355 21.4904 66.6348 19.2301 66.7199 17.8283L66.7999 16.5108H67.6301C68.6091 16.5108 68.8544 16.621 69.0728 17.1591C69.1622 17.3794 69.2959 17.5388 69.37 17.5138C69.4949 17.4711 69.7021 15.9469 69.599 15.829C69.5747 15.801 69.3894 15.8399 69.1873 15.915C68.6067 16.131 63.9585 16.1024 63.5408 15.8801C63.3634 15.7857 63.1954 15.7469 63.1676 15.794ZM73.0997 15.8254C71.5806 16.2185 70.5531 17.3798 70.3779 18.9016C70.3033 19.5515 70.5439 20.5225 70.9232 21.1006C71.3135 21.6957 72.1201 22.2281 72.9515 22.4393C73.5781 22.5985 73.8309 22.6073 74.5907 22.4967C75.835 22.3156 76.0432 22.1927 76.2243 21.5324C76.3153 21.2005 76.3354 20.9185 76.2759 20.8091C76.1973 20.6646 76.0928 20.7482 75.7385 21.2383C75.3515 21.7735 75.2248 21.8659 74.687 22.0046C73.9564 22.193 73.4483 22.0849 72.6661 21.5742C72.2891 21.3282 72.0721 21.0706 71.8527 20.6093C70.8573 18.515 71.9707 16.178 73.9684 16.1691C74.8142 16.1653 75.4609 16.5447 75.7798 17.2322C75.9201 17.5343 76.0831 17.7507 76.1421 17.7132C76.2012 17.6756 76.2496 17.3158 76.2496 16.9138V16.1829L75.6086 15.988C74.8346 15.7528 73.6715 15.6773 73.0997 15.8254ZM82.9388 15.7881C82.606 15.9122 82.0359 16.5744 81.4291 17.5413C80.7706 18.5908 80.626 18.7308 80.0715 18.8561C79.7291 18.9336 79.7192 18.9246 79.685 18.4977C79.6657 18.257 79.6668 17.7069 79.6874 17.2754C79.7241 16.5041 79.7312 16.4881 80.1054 16.3272C80.7854 16.0347 80.5435 15.937 79.1391 15.937C78.1527 15.937 77.8036 15.9733 77.8357 16.0726C77.8599 16.1472 78.0508 16.2674 78.2599 16.3399C78.5754 16.4493 78.6569 16.5484 78.7373 16.9216C78.8608 17.4938 78.7547 21.484 78.6089 21.752C78.5487 21.8629 78.3451 22.0069 78.1566 22.0723C77.4687 22.3106 77.7993 22.4206 79.204 22.4206C80.5791 22.4206 80.9499 22.3076 80.291 22.0897C79.7295 21.9038 79.7057 21.8396 79.7057 20.5131C79.7057 19.3414 79.7195 19.2648 79.9287 19.2648C80.2249 19.2648 80.4307 19.4913 81.2411 20.7092C82.1532 22.08 82.4321 22.3381 83.1739 22.4983C83.7767 22.6284 84.3882 22.5662 84.3882 22.3747C84.3882 22.3202 84.1676 22.2185 83.8979 22.1486C83.3082 21.9958 82.7345 21.3823 81.7333 19.8338L81.0594 18.7914L81.7365 17.795C82.1092 17.2469 82.4943 16.7354 82.5928 16.6583C82.6911 16.5811 82.9815 16.5164 83.238 16.5144C83.6171 16.5115 83.7187 16.4642 83.7812 16.2613C83.9039 15.8634 83.4381 15.6017 82.9388 15.7881ZM87.7032 15.8262C86.7005 16.0842 85.8193 16.8136 85.3656 17.7616C84.9858 18.555 85.0082 19.9115 85.4145 20.7097C86.0185 21.8964 87.0635 22.5327 88.4051 22.5308C89.8433 22.5287 90.7721 21.9074 91.4005 20.5271C92.1689 18.8392 91.4367 16.7874 89.8002 16.0421C89.2253 15.7803 88.2654 15.6815 87.7032 15.8262ZM92.6788 15.8478C92.6514 15.8934 92.8192 16.0226 93.0518 16.1351L93.4744 16.3394L93.547 17.3145C93.6387 18.5477 93.6374 21.0499 93.545 21.5025C93.4899 21.7713 93.3575 21.9044 92.9407 22.1092C92.6473 22.2535 92.4316 22.4123 92.4615 22.462C92.4913 22.5119 93.5844 22.5486 94.8905 22.544L97.2651 22.5353L97.4584 22.1288C97.7589 21.4963 97.8315 20.9862 97.6209 20.9862C97.5255 20.9862 97.4183 21.0803 97.3828 21.1954C97.3472 21.3105 97.1648 21.556 96.9774 21.7405C96.6605 22.0529 96.5761 22.0764 95.7695 22.0764C94.5606 22.0764 94.5336 22.0432 94.5336 20.5652V19.3692L95.2851 19.4031C95.9805 19.4344 96.0475 19.4606 96.1831 19.7526C96.2637 19.9261 96.3704 20.0682 96.4203 20.0682C96.5596 20.0682 96.6473 18.3086 96.5146 18.1747C96.4387 18.098 96.3843 18.107 96.3504 18.2019C96.1874 18.6589 95.9196 18.8151 95.2583 18.8391L94.5894 18.8633L94.5579 17.5854L94.5266 16.3076L95.3383 16.2563C95.7848 16.2282 96.2049 16.2246 96.2719 16.2485C96.3388 16.2724 96.5051 16.4961 96.6414 16.7456C96.7776 16.9952 96.9361 17.1993 96.9934 17.1993C97.1267 17.1993 97.1271 16.1624 96.9939 15.9457C96.9131 15.8143 96.4848 15.7804 94.811 15.7736C93.6656 15.7688 92.7061 15.8021 92.6788 15.8478ZM109.193 15.8246C109.154 15.8891 109.3 16.0182 109.517 16.1114C109.733 16.2047 109.963 16.3809 110.026 16.5031C110.174 16.787 110.181 21.3244 110.034 21.7214C109.971 21.8923 109.761 22.0839 109.525 22.1855C109.303 22.2806 109.152 22.4073 109.188 22.4669C109.277 22.6155 111.954 22.563 112.003 22.4118C112.024 22.3473 111.839 22.2028 111.593 22.091C111.321 21.9675 111.122 21.7894 111.086 21.6378C111.053 21.5003 111.041 20.2518 111.058 18.8633L111.089 16.3387H112.818H114.546L114.538 19.0028C114.532 21.3952 114.511 21.6902 114.332 21.894C114.222 22.0188 114.024 22.1367 113.893 22.156C113.761 22.1753 113.654 22.2686 113.654 22.3632C113.654 22.5052 113.869 22.5373 114.88 22.5458C115.555 22.5515 116.194 22.5352 116.301 22.5095C116.611 22.435 116.529 22.2773 116.106 22.1334C115.89 22.0604 115.664 21.9031 115.602 21.7838C115.533 21.6507 115.501 20.5574 115.519 18.9537L115.549 16.3403L115.972 16.1356C116.204 16.0229 116.364 15.8805 116.327 15.819C116.234 15.6633 109.286 15.6687 109.193 15.8246ZM117.213 15.836C117.178 15.8942 117.317 16.0139 117.522 16.102C117.727 16.1902 117.976 16.357 118.076 16.4726C118.36 16.8027 120.176 20.6119 120.176 20.8777C120.176 21.4684 119.626 21.8322 118.912 21.713C118.491 21.6426 118.363 21.8004 118.511 22.209C118.721 22.7909 119.654 22.6067 120.175 21.8803C120.387 21.5851 121.614 19.1081 122.5 17.1839C122.769 16.5979 122.938 16.38 123.231 16.2373C123.439 16.1352 123.665 16.0517 123.732 16.0517C123.9 16.0517 123.887 15.8593 123.716 15.7936C123.608 15.7525 121.954 15.7676 121.485 15.814C121.279 15.8345 121.433 16.0405 121.737 16.1493C121.984 16.2382 122.071 16.3416 122.071 16.5477C122.071 16.9656 120.956 19.7239 120.787 19.7239C120.714 19.7239 119.172 16.5424 119.172 16.3915C119.172 16.3243 119.323 16.2153 119.507 16.1493C119.812 16.0398 119.961 15.839 119.758 15.8105C119.228 15.7363 117.261 15.7558 117.213 15.836ZM124.708 15.851C124.566 15.9459 124.802 16.1616 125.051 16.1648C125.126 16.1658 125.268 16.2933 125.367 16.4484C125.521 16.6904 125.541 17.0782 125.509 19.1851C125.469 21.8022 125.455 21.8728 124.885 22.1632C124.325 22.4483 124.565 22.5353 125.907 22.5353C127.342 22.5353 127.629 22.4115 126.886 22.1116L126.455 21.9372L126.382 20.6979C126.288 19.1336 126.287 17.889 126.379 16.9867L126.451 16.2813H127.436C128.527 16.2813 128.65 16.3609 128.814 17.1706C128.977 17.9773 129.243 17.4305 129.184 16.4067L129.151 15.7987L126.994 15.7818C125.807 15.7724 124.779 15.8037 124.708 15.851ZM130.605 15.8142C130.567 15.8769 130.733 16.0312 130.973 16.1573C131.212 16.2832 131.44 16.4702 131.478 16.5726C131.591 16.8752 131.557 21.4036 131.44 21.7214C131.376 21.8923 131.167 22.0839 130.931 22.1855C130.709 22.2806 130.556 22.4051 130.59 22.4622C130.638 22.5414 132.792 22.5653 133.248 22.4915C133.455 22.4577 133.295 22.2492 132.913 22.0571C132.154 21.6747 132.243 21.4513 133.8 19.8765C134.554 19.1135 135.359 18.3227 135.589 18.1192L136.007 17.7494V19.7516C136.007 21.9161 135.987 21.9903 135.36 22.1873C135.218 22.2316 135.123 22.3274 135.145 22.4002C135.193 22.5494 137.577 22.6144 137.8 22.4727C137.971 22.3633 137.831 22.1347 137.589 22.13C137.486 22.1281 137.306 22.0524 137.19 21.962C136.997 21.8122 136.973 21.5787 136.923 19.3396C136.893 17.9878 136.9 16.7499 136.94 16.5888C136.989 16.3892 137.136 16.2494 137.403 16.1501C138.045 15.9111 137.792 15.7673 136.667 15.7312C135.096 15.681 134.699 15.8487 135.561 16.1973C135.943 16.3516 136.007 16.4269 136.007 16.7209C136.007 17.014 135.75 17.319 134.251 18.8046L132.495 20.5451L132.465 18.5606C132.448 17.4692 132.46 16.5075 132.491 16.4234C132.522 16.3392 132.701 16.2153 132.889 16.148C133.077 16.0807 133.211 15.9669 133.188 15.8953C133.133 15.7274 130.703 15.6511 130.605 15.8142ZM139.297 15.8209C139.256 15.8891 139.396 16.0158 139.618 16.1114C139.836 16.2047 140.064 16.3809 140.128 16.5031C140.254 16.7456 140.291 20.9412 140.172 21.5512C140.12 21.825 139.994 21.972 139.667 22.1437C139.428 22.2692 139.258 22.416 139.291 22.4697C139.383 22.6238 142.056 22.5602 142.108 22.4029C142.13 22.3298 141.971 22.2096 141.753 22.1354C141.535 22.0612 141.305 21.9014 141.242 21.7801C141.178 21.6585 141.141 21.0572 141.159 20.4409L141.191 19.3222H142.92H144.647L144.683 20.1255C144.702 20.5674 144.685 21.154 144.646 21.4292C144.581 21.8798 144.531 21.9474 144.137 22.1066C143.689 22.2875 143.593 22.416 143.838 22.502C143.953 22.542 146.231 22.532 146.514 22.4903C146.735 22.4578 146.557 22.2523 146.208 22.1334C145.992 22.0604 145.767 21.9047 145.706 21.7878C145.642 21.6652 145.595 20.4838 145.595 18.9996C145.595 16.2383 145.591 16.2583 146.186 16.1047C146.357 16.0605 146.478 15.9661 146.454 15.8947C146.399 15.7255 143.791 15.7135 143.735 15.8823C143.715 15.9468 143.911 16.1017 144.173 16.2266L144.647 16.4534L144.679 17.5722L144.712 18.6911H142.923H141.135V17.5382V16.3854L141.469 16.1898C141.653 16.0824 141.787 15.9427 141.766 15.8796C141.716 15.7203 139.39 15.6651 139.297 15.8209ZM150.695 15.8254C149.175 16.2185 148.148 17.3798 147.973 18.9016C147.899 19.5515 148.139 20.5225 148.519 21.1006C148.908 21.6957 149.716 22.2281 150.547 22.4393C151.173 22.5985 151.426 22.6073 152.187 22.4967C153.431 22.3156 153.638 22.1927 153.82 21.5324C153.91 21.2005 153.93 20.9185 153.872 20.8091C153.793 20.6646 153.688 20.7482 153.334 21.2383C152.947 21.7735 152.82 21.8659 152.282 22.0046C151.552 22.193 151.044 22.0849 150.262 21.5742C148.947 20.7162 148.674 18.2719 149.75 17.0097C150.467 16.1695 151.662 15.926 152.622 16.4247C153.005 16.6227 153.179 16.8112 153.375 17.2322C153.516 17.5343 153.679 17.7507 153.738 17.7132C153.796 17.6756 153.845 17.3158 153.845 16.9138V16.1829L153.203 15.988C152.43 15.7528 151.267 15.6773 150.695 15.8254ZM159.865 15.7881C159.532 15.9122 158.962 16.5744 158.356 17.5413C157.697 18.5908 157.552 18.7308 156.998 18.8561C156.655 18.9336 156.646 18.9246 156.611 18.4977C156.592 18.257 156.593 17.7069 156.613 17.2754C156.65 16.5041 156.658 16.4881 157.031 16.3272C157.712 16.0347 157.47 15.937 156.066 15.937C155.079 15.937 154.73 15.9733 154.762 16.0726C154.787 16.1472 154.977 16.2674 155.187 16.3399C155.502 16.4493 155.583 16.5484 155.663 16.9216C155.787 17.4938 155.681 21.484 155.535 21.752C155.475 21.8629 155.272 22.0069 155.083 22.0723C154.395 22.3106 154.726 22.4206 156.131 22.4206C157.506 22.4206 157.877 22.3076 157.217 22.0897C156.656 21.9038 156.632 21.8396 156.632 20.5131C156.632 19.3414 156.646 19.2648 156.855 19.2648C157.151 19.2648 157.357 19.4913 158.168 20.7092C159.079 22.08 159.358 22.3381 160.1 22.4983C160.704 22.6284 161.314 22.5662 161.314 22.3747C161.314 22.3202 161.094 22.2185 160.824 22.1486C160.235 21.9958 159.661 21.3823 158.66 19.8338L157.986 18.7914L158.663 17.795C159.035 17.2469 159.421 16.7354 159.519 16.6583C159.617 16.5811 159.908 16.5164 160.165 16.5144C160.543 16.5115 160.645 16.4642 160.707 16.2613C160.83 15.8634 160.365 15.6017 159.865 15.7881ZM162.044 15.8142C162.007 15.8769 162.172 16.0312 162.411 16.1573C162.652 16.2832 162.88 16.4702 162.918 16.5726C163.031 16.8752 162.997 21.4036 162.88 21.7214C162.816 21.8923 162.605 22.0839 162.37 22.1855C162.148 22.2806 161.996 22.4051 162.029 22.4622C162.077 22.5414 164.232 22.5653 164.687 22.4915C164.896 22.4577 164.735 22.2492 164.353 22.0571C163.592 21.6747 163.683 21.4513 165.239 19.8765C165.994 19.1135 166.799 18.3227 167.029 18.1192L167.447 17.7494V19.7516C167.447 21.9161 167.426 21.9903 166.799 22.1873C166.657 22.2316 166.562 22.3274 166.585 22.4002C166.633 22.5494 169.016 22.6144 169.238 22.4727C169.411 22.3633 169.271 22.1347 169.029 22.13C168.925 22.1281 168.745 22.0524 168.629 21.962C168.437 21.8122 168.413 21.5787 168.363 19.3396C168.333 17.9878 168.34 16.7499 168.38 16.5888C168.428 16.3892 168.575 16.2494 168.842 16.1501C169.485 15.9111 169.232 15.7673 168.107 15.7312C166.536 15.681 166.139 15.8487 167.001 16.1973C167.383 16.3518 167.447 16.4267 167.447 16.7215C167.447 17.0154 167.192 17.3171 165.691 18.801L163.935 20.5366L163.904 18.5564C163.887 17.4673 163.899 16.5075 163.93 16.4234C163.961 16.3392 164.141 16.2153 164.328 16.148C164.516 16.0807 164.65 15.9669 164.627 15.8953C164.573 15.7274 162.142 15.6511 162.044 15.8142ZM38.4107 16.5567C38.7306 16.8859 38.7898 17.0283 38.7898 17.4683C38.7898 18.2707 38.4554 18.6025 37.5803 18.6675L36.8945 18.7187V17.5192C36.8945 16.8594 36.9279 16.285 36.9689 16.2431C37.0097 16.201 37.2655 16.1665 37.5374 16.1665C37.9509 16.1665 38.0936 16.2303 38.4107 16.5567ZM45.6957 16.3927C46.6996 16.9198 47.2071 18.0324 47.1303 19.5379C47.0419 21.2727 46.2448 22.2179 44.963 22.1086C44.1691 22.0408 43.5537 21.5958 43.0936 20.7567C42.77 20.1665 42.7476 20.0504 42.7476 18.9695C42.7476 17.8823 42.7677 17.7797 43.086 17.2496C43.6893 16.2446 44.7501 15.8961 45.6957 16.3927ZM89.1758 16.3927C90.1797 16.9198 90.6872 18.0324 90.6104 19.5379C90.522 21.2727 89.725 22.2179 88.4433 22.1086C87.6492 22.0408 87.0338 21.5958 86.5738 20.7567C86.2502 20.1665 86.2278 20.0506 86.2278 18.969C86.2278 17.8811 86.2479 17.779 86.5661 17.2491C87.1696 16.2446 88.2306 15.8963 89.1758 16.3927ZM23.4486 18.1182C23.6697 18.6866 23.8505 19.2288 23.8505 19.3231C23.8505 19.4608 23.6752 19.4943 22.9586 19.4943C22.468 19.4943 22.0666 19.473 22.0666 19.4469C22.0666 19.3754 22.8399 17.3041 22.9105 17.1866C22.9442 17.1305 22.9885 17.0845 23.0091 17.0845C23.0298 17.0845 23.2275 17.5496 23.4486 18.1182ZM60.2394 18.1182C60.4605 18.6866 60.6414 19.2288 60.6414 19.3231C60.6414 19.4608 60.466 19.4943 59.7495 19.4943C59.2589 19.4943 58.8575 19.473 58.8575 19.4469C58.8575 19.3754 59.6309 17.3041 59.7014 17.1866C59.7351 17.1305 59.7794 17.0845 59.8001 17.0845C59.8207 17.0845 60.0183 17.5496 60.2394 18.1182ZM30.9919 18.3755C31.5117 19.7539 32.212 21.7824 32.212 21.9094C32.212 21.974 31.5476 22.019 30.5955 22.019C29.657 22.019 28.9789 21.9735 28.9789 21.9107C28.9789 21.8512 29.2842 20.9088 29.6574 19.8165C30.0306 18.7242 30.3625 17.7402 30.3951 17.6296C30.5037 17.2609 30.6322 17.4216 30.9919 18.3755ZM38.5318 19.3738C38.9982 19.6667 39.1657 20.0091 39.1573 20.6528C39.1488 21.3043 38.9909 21.6218 38.5318 21.91C38.0351 22.2217 37.5053 22.1991 37.1682 21.852C36.9146 21.5911 36.8945 21.4873 36.8945 20.4367C36.8945 19.8133 36.9279 19.2687 36.9689 19.2266C37.134 19.0564 38.1836 19.1554 38.5318 19.3738ZM112.105 27.6629C111.903 27.844 111.56 28.5642 111.029 29.9193C110.601 31.0142 110.078 32.2928 109.868 32.7606C109.521 33.5349 109.44 33.6317 108.971 33.8387C108.687 33.964 108.484 34.1139 108.519 34.1721C108.567 34.2526 110.443 34.2706 110.95 34.1952C111.156 34.1647 111.003 33.9305 110.708 33.8245C110.25 33.66 110.219 33.4679 110.509 32.5963L110.764 31.8303L111.429 31.7402C111.794 31.6907 112.311 31.6817 112.577 31.7202C113.022 31.7846 113.078 31.8323 113.286 32.316C113.411 32.6053 113.538 33.0406 113.57 33.2835C113.624 33.696 113.605 33.7335 113.278 33.8505C112.964 33.9632 112.8 34.1728 113.013 34.1892C114.094 34.2727 115.719 34.2708 115.77 34.1863C115.806 34.1259 115.596 33.9584 115.302 33.814L114.769 33.5517L113.967 31.4861C113.526 30.3501 113.03 29.0074 112.866 28.5026C112.701 27.9976 112.53 27.5423 112.484 27.4908C112.439 27.4393 112.268 27.5166 112.105 27.6629ZM119.176 27.5226C118.989 27.6438 119.001 27.6591 119.423 27.8457C119.602 27.9248 119.73 28.0709 119.73 28.1972C119.73 28.3738 119.621 28.4246 119.132 28.4766C117.852 28.6126 116.858 29.3271 116.605 30.2926C116.236 31.7051 117.166 32.8286 118.982 33.1636C119.837 33.3214 119.944 33.5374 119.314 33.8386C119.116 33.9333 118.97 34.0624 118.989 34.1255C119.032 34.2708 121.071 34.3337 121.277 34.1962C121.469 34.0685 121.344 33.8386 121.083 33.8386C120.976 33.8386 120.829 33.7766 120.756 33.7009C120.496 33.4337 120.619 33.2792 121.151 33.2053C122.616 33.0017 123.46 32.4094 123.738 31.3914C124.138 29.9211 123.139 28.7033 121.345 28.4725C120.839 28.4075 120.671 28.3389 120.642 28.1846C120.616 28.0426 120.725 27.9299 121.008 27.8084C121.229 27.7131 121.381 27.5849 121.344 27.5237C121.259 27.3817 119.394 27.3807 119.176 27.5226ZM127.49 27.6629C127.288 27.844 126.945 28.5642 126.414 29.9193C125.986 31.0142 125.463 32.2928 125.253 32.7606C124.906 33.5349 124.826 33.6317 124.356 33.8387C124.073 33.964 123.869 34.1139 123.904 34.1721C123.953 34.2526 125.828 34.2706 126.335 34.1952C126.541 34.1647 126.389 33.9305 126.093 33.8245C125.636 33.66 125.604 33.4679 125.894 32.5963L126.149 31.8303L126.814 31.7402C127.179 31.6907 127.696 31.6817 127.961 31.7202C128.407 31.7846 128.463 31.8323 128.672 32.316C128.796 32.6053 128.923 33.0406 128.956 33.2835C129.009 33.696 128.99 33.7335 128.663 33.8505C128.35 33.9632 128.185 34.1728 128.397 34.1892C129.479 34.2727 131.104 34.2708 131.155 34.1863C131.192 34.1259 130.981 33.9584 130.688 33.814L130.153 33.5517L129.352 31.4861C128.911 30.3501 128.415 29.0074 128.251 28.5026C128.087 27.9976 127.915 27.5423 127.869 27.4908C127.824 27.4393 127.654 27.5166 127.49 27.6629ZM131.938 27.5257C131.897 27.5939 132.039 27.7207 132.26 27.8162C132.477 27.9095 132.707 28.0858 132.77 28.208C132.896 28.4505 132.933 32.6461 132.815 33.256C132.761 33.5298 132.636 33.6769 132.309 33.8486C132.07 33.9741 131.901 34.1209 131.933 34.1746C132.025 34.3287 134.699 34.2652 134.749 34.1077C134.773 34.0347 134.614 33.9145 134.396 33.8404C134.176 33.7661 133.946 33.6062 133.884 33.4849C133.821 33.3634 133.784 32.762 133.802 32.1457L133.833 31.0272H135.561H137.289L137.324 31.8303C137.343 32.2722 137.326 32.8588 137.287 33.1342C137.223 33.5848 137.172 33.6522 136.779 33.8114C136.383 33.9713 136.209 34.161 136.425 34.1968C136.688 34.2405 141.447 34.2598 141.609 34.2179C141.905 34.1413 141.843 33.9553 141.479 33.8245C141.02 33.66 140.989 33.4679 141.28 32.5963L141.535 31.8303L142.199 31.7402C142.564 31.6907 143.08 31.6815 143.345 31.7198C143.789 31.784 143.843 31.8301 144.053 32.3262C144.177 32.6217 144.307 33.0572 144.339 33.2942C144.394 33.6954 144.374 33.7339 144.049 33.8505C143.734 33.9632 143.57 34.1728 143.783 34.1892C144.865 34.2727 146.49 34.2708 146.54 34.1863C146.576 34.1259 146.367 33.9584 146.073 33.814L145.539 33.5517L144.737 31.4861C144.296 30.3501 143.8 29.0074 143.636 28.5026C143.472 27.9976 143.301 27.5423 143.255 27.4908C143.21 27.4393 143.038 27.5166 142.875 27.6629C142.673 27.844 142.331 28.5642 141.8 29.9193C140.474 33.3069 140.333 33.5795 139.776 33.8227C139.346 34.0108 139.256 34.0157 138.906 33.8692C138.691 33.7794 138.452 33.6226 138.376 33.5208C138.202 33.2902 138.177 28.4309 138.347 28.1027C138.408 27.9857 138.612 27.8554 138.8 27.8128C138.986 27.7704 139.121 27.6758 139.098 27.6028C139.042 27.4305 136.433 27.4156 136.378 27.5872C136.356 27.6516 136.554 27.8066 136.814 27.9314L137.289 28.1583L137.32 29.2772L137.353 30.396H135.565H133.778V29.243V28.0902L134.111 27.8946C134.294 27.7873 134.428 27.6477 134.409 27.5846C134.359 27.4253 132.033 27.3699 131.938 27.5257ZM150.026 27.5303C148.351 27.9636 147.327 29.2472 147.33 30.9124C147.333 33.1999 149.193 34.6015 151.694 34.2012C152.775 34.0283 153.001 33.876 153.164 33.21C153.378 32.3337 153.182 32.2285 152.664 32.9431C152.278 33.4784 152.152 33.5707 151.614 33.7094C150.883 33.898 150.374 33.7897 149.592 33.2791C149.215 33.033 148.998 32.7755 148.779 32.3142C147.784 30.2199 148.898 27.8829 150.894 27.8739C151.741 27.8701 152.388 28.2496 152.706 28.9371C152.846 29.2392 153.009 29.4556 153.068 29.418C153.128 29.3804 153.176 29.0206 153.176 28.6187V27.8877L152.535 27.6928C151.761 27.4576 150.598 27.3823 150.026 27.5303ZM154.23 27.5363C154.148 27.6719 154.358 27.8666 154.589 27.8697C154.662 27.8706 154.8 27.9525 154.896 28.0517C155.044 28.2047 155.072 28.6146 155.072 30.756C155.072 32.2473 155.025 33.3692 154.958 33.498C154.896 33.6179 154.642 33.7723 154.393 33.8411C154.129 33.9143 153.96 34.0231 153.987 34.1033C154.02 34.2018 154.529 34.2396 155.806 34.238C157.44 34.2358 157.623 34.2143 158.116 33.9659C159.375 33.3337 159.678 31.6449 158.695 30.7555C158.192 30.3015 157.533 30.1236 156.66 30.2065L155.963 30.2726V29.3108C155.963 28.7819 155.993 28.27 156.029 28.1732C156.065 28.0765 156.268 27.9382 156.48 27.8661C156.692 27.7939 156.848 27.6753 156.824 27.6023C156.764 27.4175 154.338 27.3555 154.23 27.5363ZM160.91 27.5526C160.882 27.5983 161.05 27.7276 161.282 27.8401L161.705 28.0448L161.784 29.501C161.827 30.3021 161.827 31.541 161.784 32.2546L161.705 33.5517L161.171 33.814C160.877 33.9584 160.662 34.1173 160.692 34.1669C160.721 34.2167 161.815 34.2536 163.12 34.2489L165.496 34.2403L165.688 33.8336C165.989 33.2011 166.062 32.691 165.851 32.691C165.755 32.691 165.649 32.7853 165.613 32.9004C165.577 33.0155 165.395 33.2608 165.208 33.4455C164.891 33.7578 164.807 33.7812 164 33.7812C162.791 33.7812 162.764 33.748 162.764 32.2701V31.0741L163.516 31.1079C164.21 31.1394 164.277 31.1654 164.414 31.4575C164.494 31.6309 164.601 31.773 164.651 31.773C164.79 31.773 164.878 30.0135 164.745 29.8796C164.669 29.803 164.615 29.8118 164.581 29.9068C164.418 30.3639 164.151 30.52 163.488 30.5439L162.82 30.5681L162.789 29.2903L162.756 28.0124L163.568 27.9611C164.015 27.933 164.436 27.9295 164.503 27.9533C164.57 27.9772 164.735 28.201 164.872 28.4505C165.008 28.7 165.166 28.9042 165.224 28.9042C165.357 28.9042 165.358 27.8672 165.225 27.6507C165.143 27.5193 164.715 27.4854 163.041 27.4784C161.896 27.4736 160.937 27.5071 160.91 27.5526ZM167.697 27.4913C167.117 27.5243 166.889 27.5807 166.889 27.6916C166.889 27.7769 167.062 27.8794 167.278 27.9211C167.556 27.9747 167.686 28.0701 167.73 28.2544C167.817 28.6096 167.744 33.4571 167.65 33.553C167.608 33.5954 167.384 33.6976 167.152 33.7797C166.683 33.946 166.552 34.1304 166.856 34.1978C166.966 34.2219 167.783 34.2415 168.673 34.241C170.393 34.2403 170.869 34.1272 171.428 33.5863C171.797 33.2296 172.059 32.4371 171.969 31.9477C171.881 31.4582 171.368 30.8238 170.901 30.6246L170.563 30.4805L171.011 30.0542C171.405 29.6803 171.46 29.5658 171.459 29.1227C171.459 28.5007 171.152 27.9519 170.657 27.6847C170.268 27.4752 169.202 27.4055 167.697 27.4913ZM170.189 28.2615C170.509 28.5908 170.568 28.7332 170.568 29.1732C170.568 29.9757 170.234 30.3074 169.358 30.3725L168.673 30.4235V29.224C168.673 28.5642 168.707 27.99 168.747 27.9479C168.788 27.9058 169.044 27.8714 169.316 27.8714C169.729 27.8714 169.872 27.9352 170.189 28.2615ZM69.3652 28.1895C67.6373 28.2146 67.2191 28.2512 67.2191 28.3778C67.2191 28.4643 67.3411 28.5666 67.4901 28.605C68.0951 28.7614 68.1111 28.835 68.1111 31.5018C68.1111 32.9543 68.0644 34.0581 67.9977 34.1865C67.9354 34.3065 67.6844 34.4599 67.4402 34.5277C67.1959 34.5953 66.9961 34.6994 66.9961 34.7588C66.9961 34.9553 67.5271 35.0094 69.0266 34.9657C70.2301 34.9308 70.6021 34.8779 71.0097 34.6844C72.3254 34.0595 72.7335 32.7085 71.9015 31.733C71.4976 31.2595 70.945 31.0845 69.854 31.0845H69.0029L69.0046 30.023C69.0057 29.4392 69.0483 28.8935 69.0994 28.8104C69.1721 28.6923 69.3978 28.6797 70.1291 28.753C71.0645 28.8467 71.0657 28.8473 71.2884 29.2768C71.411 29.5132 71.5616 29.6886 71.6229 29.6662C71.7472 29.6209 71.719 28.3126 71.5918 28.218C71.5476 28.1851 70.5456 28.1723 69.3652 28.1895ZM78.7777 28.2668C77.7275 28.5771 76.92 29.392 76.5534 30.5113L76.3846 31.0272L75.6998 31.0614L75.015 31.0957L75.0471 29.9718L75.079 28.848L75.5017 28.6435C75.7343 28.5309 75.8947 28.3891 75.858 28.3282C75.7599 28.1647 73.213 28.2389 73.1589 28.4067C73.1351 28.4803 73.2313 28.5767 73.3727 28.6211C74.0153 28.823 74.02 28.8442 74.0182 31.5326C74.0171 32.8956 73.9797 34.0695 73.9346 34.1413C73.8896 34.2131 73.6608 34.3539 73.4265 34.4544C73.1922 34.5549 73.0311 34.6881 73.0687 34.7505C73.1717 34.9223 75.9407 34.8505 75.9976 34.6748C76.0225 34.5972 75.9031 34.5014 75.728 34.4586C75.0927 34.303 75.0232 34.144 75.0232 32.8454V31.6582H75.6803C76.3713 31.6582 76.4714 31.7354 76.4737 32.2701C76.4753 32.6698 76.9711 33.6355 77.3788 34.0335C78.0057 34.6457 78.7435 34.9263 79.7057 34.9189C81.0558 34.9085 82.1168 34.246 82.6794 33.0623C83.0809 32.2177 83.113 30.9776 82.7544 30.1606C82.0711 28.6042 80.3727 27.7954 78.7777 28.2668ZM84.5727 28.2531C84.4927 28.312 84.4863 28.3663 84.5555 28.3967C84.6168 28.4236 84.8426 28.5358 85.0571 28.6462L85.4473 28.8468L85.4426 31.3714C85.4374 34.178 85.4098 34.3055 84.7483 34.59C84.1007 34.8686 84.4766 34.9698 85.9947 34.9257C87.6484 34.8777 87.5099 34.8927 87.5099 34.761C87.5099 34.7004 87.3098 34.5953 87.0651 34.5275C86.753 34.4409 86.6022 34.3283 86.5598 34.1501C86.5266 34.0103 86.5135 32.7083 86.5308 31.2566L86.5623 28.6173L86.8277 28.5787C88.0323 28.4033 88.9134 29.4718 88.6318 30.7666C88.501 31.3683 87.9834 31.8878 87.5147 31.8878C87.1454 31.8878 86.9579 32.0924 87.189 32.2431C87.591 32.5053 88.5216 32.2273 89.0823 31.6775C89.8728 30.9026 89.9258 29.7664 89.2123 28.8938C88.6996 28.2668 88.3239 28.1686 86.4123 28.1632C85.4714 28.1604 84.6437 28.201 84.5727 28.2531ZM93.7235 28.2196C92.7208 28.4777 91.8397 29.207 91.386 30.155C91.0062 30.9485 91.0286 32.3049 91.4348 33.103C92.0388 34.2899 93.0838 34.9261 94.4254 34.9242C95.8636 34.9221 96.7925 34.3009 97.4208 32.9205C98.1892 31.2326 97.4571 29.1808 95.8205 28.4355C95.2456 28.1738 94.2858 28.0749 93.7235 28.2196ZM80.4082 28.7455C81.5334 29.3307 82.0938 30.7926 81.8325 32.4623C81.5717 34.1291 80.2327 34.9865 78.9487 34.3088C78.0014 33.8086 77.5546 32.8871 77.5454 31.4133C77.5397 30.5335 77.5762 30.348 77.8698 29.7582C78.1273 29.2412 78.3095 29.0347 78.6919 28.8269C79.2666 28.5147 79.906 28.4843 80.4082 28.7455ZM95.1961 28.7861C96.2001 29.3132 96.7075 30.4258 96.6308 31.9313C96.5424 33.6661 95.7453 34.6113 94.4636 34.502C93.6695 34.4342 93.0541 33.9892 92.5941 33.1501C92.2705 32.5599 92.2481 32.4439 92.2481 31.3624C92.2481 30.2746 92.2682 30.1723 92.5864 29.6425C93.19 28.6379 94.2509 28.2896 95.1961 28.7861ZM112.416 29.823C112.637 30.3915 112.818 30.9337 112.818 31.0279C112.818 31.1656 112.642 31.1993 111.926 31.1993C111.435 31.1993 111.034 31.1779 111.034 31.1517C111.034 31.0802 111.807 29.009 111.878 28.8915C111.911 28.8353 111.956 28.7895 111.976 28.7895C111.997 28.7895 112.195 29.2545 112.416 29.823ZM119.73 30.7977V32.8058H119.445C118.892 32.8058 118.07 32.2322 117.768 31.6354C117.564 31.232 117.567 30.1287 117.773 29.7188C118.023 29.2212 118.749 28.8298 119.479 28.7998L119.73 28.7895V30.7977ZM121.888 29.1712C122.135 29.3138 122.406 29.5996 122.529 29.8454C122.805 30.4039 122.808 31.3601 122.533 31.8868C122.289 32.3546 121.533 32.8058 120.994 32.8058H120.622V30.7849V28.7638L121.04 28.8438C121.27 28.8878 121.651 29.0351 121.888 29.1712ZM127.801 29.823C128.023 30.3915 128.202 30.9337 128.202 31.0279C128.202 31.1656 128.027 31.1993 127.311 31.1993C126.82 31.1993 126.419 31.1779 126.419 31.1517C126.419 31.0802 127.193 29.009 127.263 28.8915C127.297 28.8353 127.341 28.7895 127.361 28.7895C127.382 28.7895 127.579 29.2545 127.801 29.823ZM143.186 29.823C143.407 30.3915 143.588 30.9337 143.588 31.0279C143.588 31.1656 143.413 31.1993 142.696 31.1993C142.206 31.1993 141.805 31.1779 141.805 31.1517C141.805 31.0802 142.577 29.009 142.648 28.8915C142.681 28.8353 142.726 28.7895 142.747 28.7895C142.768 28.7895 142.965 29.2545 143.186 29.823ZM157.41 30.8265C157.883 31.0706 158.304 31.6896 158.304 32.1379C158.304 32.9867 157.703 33.7183 156.931 33.8079C156.528 33.8546 156.391 33.8199 156.199 33.6225C155.987 33.4037 155.963 33.2505 155.963 32.0791C155.963 31.3637 155.996 30.744 156.037 30.702C156.183 30.5524 157.029 30.629 157.41 30.8265ZM170.31 31.0788C170.776 31.3715 170.944 31.714 170.936 32.3577C170.927 33.0091 170.769 33.3267 170.31 33.6148C169.813 33.9265 169.284 33.904 168.946 33.5569C168.693 33.2959 168.673 33.1921 168.673 32.1416C168.673 31.5182 168.707 30.9735 168.747 30.9316C168.913 30.7614 169.962 30.8603 170.31 31.0788ZM70.6866 31.8059C71.6642 32.4831 71.3922 34.1978 70.256 34.5207C69.7996 34.6505 69.4282 34.5274 69.1814 34.1646C69.0478 33.9683 69.0029 33.6249 69.0029 32.7994C69.0029 32.1928 69.0363 31.6621 69.0773 31.62C69.1181 31.578 69.4118 31.5435 69.7297 31.5435C70.1472 31.5435 70.413 31.6164 70.6866 31.8059ZM109.199 39.9125C109.161 39.9752 109.327 40.1294 109.567 40.2554C109.807 40.3815 110.034 40.5684 110.072 40.6709C110.185 40.9734 110.152 45.5019 110.034 45.8197C109.971 45.9906 109.761 46.1822 109.525 46.2838C109.303 46.3789 109.15 46.5033 109.185 46.5604C109.232 46.6398 111.387 46.6636 111.842 46.5898C112.05 46.556 111.89 46.3474 111.508 46.1553C110.747 45.773 110.838 45.5496 112.394 43.9748C113.148 43.2118 113.953 42.421 114.183 42.2175L114.601 41.8476V43.8498C114.601 46.0144 114.582 46.0886 113.954 46.2856C113.813 46.3299 113.716 46.4257 113.74 46.4984C113.788 46.6477 116.171 46.7127 116.393 46.571C116.565 46.4617 116.425 46.233 116.184 46.2283C116.08 46.2263 115.9 46.1507 115.784 46.0602C115.592 45.9105 115.568 45.677 115.518 43.4379C115.487 42.086 115.495 40.8482 115.534 40.6871C115.583 40.4876 115.73 40.3477 115.997 40.2484C116.639 40.0093 116.387 39.8656 115.261 39.8295C113.691 39.7792 113.293 39.9469 114.155 40.2956C114.537 40.45 114.601 40.5252 114.601 40.8192C114.601 41.1123 114.344 41.4172 112.845 42.9029L111.089 44.6433L111.059 42.6589C111.042 41.5674 111.054 40.6058 111.085 40.5216C111.117 40.4375 111.296 40.3135 111.483 40.2463C111.671 40.1789 111.805 40.0653 111.782 39.9935C111.728 39.8256 109.297 39.7493 109.199 39.9125ZM119.896 39.923C119.857 39.9873 120.003 40.1164 120.219 40.2096C120.436 40.3029 120.665 40.4792 120.73 40.6013C120.877 40.8853 120.884 45.4228 120.737 45.8197C120.673 45.9906 120.464 46.1822 120.228 46.2838C120.006 46.3789 119.854 46.5056 119.89 46.5653C119.98 46.7138 122.657 46.6613 122.706 46.5102C122.726 46.4455 122.542 46.301 122.296 46.1893C122.024 46.0658 121.824 45.8877 121.788 45.736C121.756 45.5986 121.743 44.3501 121.761 42.9615L121.792 40.4369H123.52H125.249L125.241 43.1011C125.234 45.4935 125.214 45.7884 125.034 45.9923C124.925 46.117 124.728 46.2349 124.596 46.2542C124.464 46.2735 124.356 46.3668 124.356 46.4615C124.356 46.6035 124.572 46.6354 125.583 46.6441C126.257 46.6498 126.897 46.6335 127.005 46.6077C127.315 46.5332 127.232 46.3757 126.808 46.2317C126.594 46.1586 126.366 46.0014 126.305 45.882C126.236 45.749 126.203 44.6557 126.221 43.0519L126.252 40.4386L126.675 40.2338C126.908 40.1212 127.067 39.9788 127.031 39.9173C126.936 39.7616 119.989 39.767 119.896 39.923ZM131.503 40.0563C131.302 40.2374 130.958 40.9575 130.428 42.3126C130 43.4076 129.477 44.6862 129.267 45.154C128.92 45.9283 128.839 46.0251 128.37 46.2321C128.086 46.3573 127.882 46.5073 127.917 46.5655C127.966 46.646 129.842 46.664 130.349 46.5886C130.555 46.5581 130.402 46.3239 130.107 46.2179C129.649 46.0535 129.618 45.8612 129.908 44.9897L130.163 44.2238L130.828 44.1337C131.193 44.0841 131.709 44.0751 131.975 44.1135C132.421 44.178 132.477 44.2256 132.685 44.7094C132.81 44.9986 132.936 45.425 132.967 45.657C133.016 46.0428 132.992 46.0917 132.675 46.2268C132.358 46.3615 132.206 46.5669 132.411 46.5826C133.493 46.6661 135.118 46.6643 135.168 46.5796C135.205 46.5193 134.994 46.3518 134.701 46.2074L134.167 45.9451L133.366 43.8795C132.925 42.7435 132.429 41.4008 132.265 40.896C132.101 40.391 131.928 39.9357 131.883 39.8842C131.837 39.8327 131.667 39.9101 131.503 40.0563ZM136.08 39.9579C135.999 40.017 135.993 40.0712 136.063 40.1017C136.124 40.1285 136.35 40.2407 136.565 40.3511L136.955 40.5516L136.95 43.1502C136.946 46.0105 136.948 45.9969 136.24 46.3013C135.608 46.5734 135.995 46.6744 137.501 46.6307C139.155 46.5825 139.018 46.5976 139.018 46.466C139.018 46.4052 138.816 46.3002 138.572 46.2323C138.261 46.1458 138.11 46.0331 138.067 45.8549C138.034 45.7151 138.021 44.4131 138.038 42.9615L138.069 40.3222L138.335 40.2835C139.54 40.1081 140.42 41.1766 140.139 42.4715C140.008 43.0732 139.491 43.5926 139.022 43.5926C138.652 43.5926 138.465 43.7972 138.697 43.9479C139.098 44.2102 140.028 43.9321 140.589 43.3824C141.38 42.6075 141.433 41.4714 140.72 40.5986C140.207 39.9716 139.831 39.8735 137.919 39.8681C136.979 39.8654 136.151 39.9058 136.08 39.9579ZM142.101 39.8923C142.073 39.9394 142.032 40.3343 142.011 40.7698C141.983 41.3305 142.012 41.5761 142.111 41.6113C142.188 41.6386 142.284 41.5662 142.325 41.4505C142.365 41.3348 142.495 41.0962 142.613 40.9202C142.823 40.6087 142.854 40.601 143.738 40.6333L144.647 40.6664L144.677 43.1216C144.712 45.9103 144.684 46.0208 143.915 46.234C143.661 46.3044 143.482 46.4178 143.505 46.492C143.565 46.6782 146.618 46.6868 146.678 46.5011C146.702 46.4281 146.543 46.3079 146.325 46.2337C146.106 46.1595 145.884 46.0126 145.83 45.9072C145.669 45.5886 145.568 43.3284 145.653 41.9265L145.733 40.609H146.563C147.542 40.609 147.787 40.7193 148.006 41.2575C148.095 41.4776 148.229 41.6371 148.304 41.612C148.428 41.5695 148.635 40.0451 148.532 39.9272C148.508 39.8994 148.323 39.9381 148.12 40.0133C147.539 40.2293 142.892 40.2006 142.474 39.9784C142.297 39.8839 142.128 39.8451 142.101 39.8923ZM149.33 39.9191C149.289 39.9873 149.431 40.1141 149.652 40.2096C149.869 40.3029 150.099 40.4792 150.162 40.6013C150.288 40.8439 150.325 45.0395 150.207 45.6494C150.153 45.9232 150.028 46.0702 149.701 46.242C149.462 46.3675 149.293 46.5142 149.325 46.568C149.417 46.722 152.091 46.6586 152.141 46.5011C152.165 46.4281 152.006 46.3079 151.788 46.2337C151.569 46.1595 151.339 45.9996 151.276 45.8784C151.213 45.7568 151.176 45.1554 151.194 44.5391L151.225 43.4205H152.953H154.681L154.716 44.2238C154.735 44.6656 154.719 45.2522 154.679 45.5276C154.616 45.9781 154.564 46.0456 154.171 46.2048C153.723 46.3857 153.626 46.5142 153.873 46.6004C153.988 46.6402 156.265 46.6303 156.549 46.5885C156.768 46.5562 156.591 46.3505 156.241 46.2317C156.026 46.1586 155.8 46.0031 155.739 45.8862C155.593 45.6053 155.593 40.7768 155.739 40.4962C155.8 40.3791 156.004 40.2487 156.192 40.2062C156.379 40.1638 156.513 40.0692 156.49 39.9961C156.434 39.8239 153.825 39.8089 153.77 39.9806C153.748 40.045 153.946 40.2 154.206 40.3248L154.681 40.5516L154.713 41.6706L154.745 42.7893H152.957H151.17V41.6364V40.4836L151.503 40.2881C151.686 40.1807 151.82 40.0411 151.801 39.9779C151.751 39.8186 149.425 39.7633 149.33 39.9191ZM157.564 39.946C157.537 39.9917 157.704 40.1211 157.938 40.2335L158.361 40.4382L158.439 41.8944C158.482 42.6954 158.482 43.9344 158.439 44.648L158.361 45.9451L157.827 46.2074C157.533 46.3518 157.318 46.5106 157.347 46.5604C157.377 46.6101 158.47 46.6469 159.776 46.6423L162.15 46.6337L162.344 46.227C162.645 45.5945 162.717 45.0844 162.507 45.0844C162.411 45.0844 162.304 45.1787 162.269 45.2938C162.233 45.4089 162.051 45.6542 161.863 45.8388C161.547 46.1512 161.462 46.1746 160.656 46.1746C159.446 46.1746 159.42 46.1414 159.42 44.6635V43.4675L160.171 43.5013C160.866 43.5328 160.933 43.5588 161.069 43.8509C161.149 44.0243 161.256 44.1665 161.306 44.1665C161.445 44.1665 161.534 42.4069 161.401 42.273C161.324 42.1963 161.27 42.2053 161.236 42.3002C161.074 42.7572 160.805 42.9134 160.144 42.9373L159.475 42.9615L159.443 41.6837L159.412 40.4059L160.224 40.3545C160.671 40.3265 161.09 40.3229 161.157 40.3467C161.225 40.3705 161.391 40.5944 161.528 40.8439C161.663 41.0935 161.822 41.2976 161.88 41.2976C162.013 41.2976 162.013 40.2607 161.88 40.044C161.799 39.9127 161.371 39.8788 159.696 39.8719C158.551 39.867 157.592 39.9004 157.564 39.946ZM163.506 39.9579C163.426 40.017 163.42 40.0712 163.488 40.1017C163.55 40.1285 163.776 40.2407 163.99 40.3511L164.38 40.5516L164.375 43.0763C164.366 45.8814 164.339 46.0124 163.681 46.2948C163.034 46.5735 163.409 46.6747 164.928 46.6307C166.582 46.5825 166.443 46.5976 166.443 46.466C166.443 46.4052 166.243 46.3002 165.999 46.2323C165.686 46.1458 165.535 46.0331 165.493 45.8549C165.46 45.7151 165.446 44.4131 165.464 42.9615L165.496 40.3222L165.761 40.2835C166.965 40.1081 167.847 41.1766 167.565 42.4715C167.435 43.0732 166.916 43.5926 166.448 43.5926C166.079 43.5926 165.891 43.7972 166.122 43.9479C166.524 44.2102 167.455 43.9321 168.016 43.3824C168.806 42.6075 168.859 41.4714 168.145 40.5986C167.632 39.9716 167.257 39.8735 165.346 39.8681C164.404 39.8654 163.577 39.9058 163.506 39.9579ZM170.284 39.9285C170.193 40.0813 170.2 40.088 170.708 40.3043L171.126 40.4827V43.1197C171.126 46.0142 171.116 46.0561 170.441 46.195C170.113 46.2627 169.936 46.4221 170.054 46.5438C170.179 46.6727 173.409 46.608 173.913 46.4664C174.905 46.188 175.474 45.4685 175.474 44.4933C175.473 43.7775 175.174 43.244 174.581 42.9047C174.159 42.6625 173.926 42.6157 173.103 42.6072C172.567 42.6017 172.099 42.5666 172.063 42.5292C172.026 42.4919 172.033 42.0135 172.077 41.466L172.157 40.4704L172.541 40.3054C173.227 40.0104 172.936 39.8655 171.597 39.8347C170.812 39.8168 170.331 39.8511 170.284 39.9285ZM175.812 39.914C175.613 40.046 175.641 40.0788 176.154 40.2971C176.464 40.4297 176.572 40.5525 176.627 40.8399C176.716 41.291 176.703 43.4986 176.604 44.9123L176.533 45.9451L176.115 46.1746C175.886 46.3008 175.713 46.4558 175.734 46.5189C175.764 46.6105 177.266 46.6446 178.567 46.5829C178.847 46.5696 178.697 46.3612 178.316 46.2317C177.584 45.9832 177.591 46.0149 177.591 43.2657C177.591 40.5599 177.631 40.3659 178.211 40.2163C178.37 40.1752 178.479 40.0789 178.455 40.0024C178.399 39.83 176.056 39.7516 175.812 39.914ZM131.818 42.2443C132.037 42.828 132.217 43.3703 132.217 43.4492C132.217 43.552 131.963 43.5926 131.325 43.5926C130.834 43.5926 130.432 43.5713 130.432 43.5451C130.432 43.4736 131.206 41.4024 131.277 41.2849C131.31 41.2287 131.356 41.1828 131.379 41.1828C131.4 41.1828 131.598 41.6605 131.818 42.2443ZM173.644 43.2535C175.004 43.9312 174.591 45.9839 173.051 46.1964C172.741 46.2392 172.56 46.1979 172.376 46.0427C172.156 45.8553 172.119 45.6865 172.055 44.6005C172.003 43.6834 172.021 43.3259 172.126 43.1948C172.327 42.9446 173.083 42.9737 173.644 43.2535Z" fill="#383838"/>
<path fill-rule="evenodd" clip-rule="evenodd" d="M0.884007 3.42886C0.975984 3.49003 1.13229 3.54087 1.2314 3.5419C1.3304 3.54281 1.7758 3.73124 2.22096 3.96052C3.21733 4.47348 4.2672 5.5144 4.75229 6.46984C5.49525 7.93341 5.45478 6.87963 5.4569 24.8469C5.45856 38.3768 5.48532 41.2537 5.61532 41.8853C6.09783 44.2285 8.06058 46.181 10.3217 46.5674C10.824 46.6533 12.5342 46.6868 15.3217 46.6657C19.5436 46.6338 19.5561 46.6329 18.945 46.4317C17.0137 45.7961 15.5 44.1514 14.9965 42.1417C14.8395 41.5146 14.8197 39.6349 14.818 25.1582C14.8164 11.4754 14.7906 8.75607 14.6563 8.10427C14.1916 5.84639 12.3538 3.95972 10.1511 3.47913C9.25973 3.28474 0.596592 3.23768 0.884007 3.42886ZM109.402 3.45434C109.374 3.50002 109.542 3.62923 109.775 3.74168L110.198 3.94606L110.27 4.92112C110.362 6.15427 110.361 8.65647 110.268 9.10917C110.213 9.37793 110.081 9.51093 109.664 9.71577C109.37 9.86013 109.155 10.0189 109.185 10.0686C109.214 10.1184 110.307 10.1553 111.614 10.1506L113.988 10.142L114.182 9.73539C114.482 9.10286 114.555 8.59279 114.344 8.59279C114.249 8.59279 114.141 8.687 114.106 8.80209C114.07 8.91719 113.888 9.16254 113.701 9.34717C113.384 9.65953 113.299 9.68294 112.493 9.68294C111.284 9.68294 111.257 9.64979 111.257 8.17187V6.97578L112.008 7.00964C112.704 7.04108 112.771 7.06713 112.906 7.35919C112.987 7.53281 113.094 7.67476 113.143 7.67476C113.283 7.67476 113.37 5.91524 113.238 5.78132C113.162 5.70466 113.107 5.71362 113.074 5.80851C112.91 6.26557 112.643 6.42176 111.981 6.44563L111.313 6.46984L111.281 5.19206L111.25 3.91417L112.061 3.86287C112.508 3.83476 112.928 3.8312 112.995 3.85506C113.062 3.87893 113.228 4.1027 113.365 4.35217C113.501 4.60176 113.659 4.80592 113.717 4.80592C113.85 4.80592 113.85 3.769 113.717 3.55235C113.636 3.42095 113.208 3.3871 111.534 3.38021C110.389 3.3754 109.429 3.40879 109.402 3.45434ZM116.012 3.45756C115.87 3.55246 116.106 3.7682 116.355 3.77141C116.43 3.77232 116.572 3.89994 116.671 4.05497C116.825 4.29698 116.845 4.68473 116.813 6.79172C116.773 9.40879 116.758 9.47937 116.188 9.76981C115.629 10.0549 115.869 10.142 117.212 10.142C118.646 10.142 118.932 10.0181 118.19 9.71817L117.759 9.54375L117.685 8.30452C117.592 6.74021 117.592 5.49559 117.683 4.59327L117.755 3.88789H118.74C119.831 3.88789 119.954 3.96753 120.118 4.77723C120.282 5.58394 120.546 5.03715 120.489 4.01331L120.454 3.40523L118.297 3.38836C117.111 3.37906 116.083 3.41017 116.012 3.45756ZM123.966 3.46468C122.226 3.98256 121.242 5.17072 121.242 6.75672C121.242 8.06308 121.895 9.11548 123.083 9.72701C123.917 10.1558 124.771 10.274 125.65 10.0822C128.332 9.49624 129.406 6.49876 127.641 4.52684C126.805 3.59377 125.146 3.11388 123.966 3.46468ZM129.39 3.46628C129.31 3.52527 129.304 3.57954 129.374 3.60995C129.435 3.6368 129.661 3.74904 129.875 3.85942L130.266 4.06001L130.259 6.5846C130.252 9.38975 130.223 9.52068 129.566 9.8032C128.918 10.0818 129.295 10.183 130.812 10.139C132.466 10.0909 132.328 10.1059 132.328 9.97431C132.328 9.91359 132.128 9.80848 131.883 9.74067C131.571 9.65415 131.421 9.54145 131.377 9.36324C131.345 9.22347 131.332 7.92148 131.349 6.46984L131.38 3.83051L131.646 3.79183C132.851 3.61649 133.731 4.68496 133.449 5.97985C133.319 6.5815 132.801 7.10098 132.333 7.10098C131.963 7.10098 131.776 7.30559 132.007 7.45626C132.409 7.71848 133.339 7.44043 133.9 6.89076C134.69 6.11582 134.744 4.97964 134.03 4.10695C133.518 3.47993 133.142 3.38182 131.23 3.37643C130.29 3.37367 129.462 3.41418 129.39 3.46628ZM138.682 3.46468C136.942 3.98256 135.959 5.17072 135.959 6.75672C135.959 8.06308 136.611 9.11548 137.8 9.72701C138.633 10.1558 139.487 10.274 140.366 10.0822C143.048 9.49624 144.122 6.49876 142.357 4.52684C141.521 3.59377 139.862 3.11388 138.682 3.46468ZM144.954 3.39296C144.374 3.426 144.145 3.48246 144.145 3.59331C144.145 3.67868 144.319 3.78116 144.534 3.82282C144.812 3.8764 144.943 3.97189 144.987 4.15618C145.073 4.51134 145 9.35876 144.907 9.4547C144.865 9.49716 144.641 9.59929 144.409 9.68145C143.939 9.84773 143.808 10.0321 144.113 10.0995C144.223 10.1237 145.04 10.1432 145.93 10.1428C147.65 10.142 148.125 10.0289 148.684 9.48809C149.053 9.13132 149.316 8.33884 149.226 7.84941C149.137 7.36365 148.626 6.72586 148.166 6.53032L147.838 6.39032L148.277 5.96011C148.659 5.58612 148.717 5.46391 148.716 5.02452C148.716 4.40244 148.409 3.85368 147.913 3.58642C147.525 3.37688 146.459 3.30724 144.954 3.39296ZM125.614 3.95112C126.573 4.36308 127.202 5.3394 127.286 6.5504C127.448 8.85935 126.141 10.1755 124.258 9.60009C123.629 9.40799 122.828 8.56708 122.591 7.85114C122.489 7.54233 122.406 6.9502 122.406 6.53548C122.41 4.53017 123.992 3.25479 125.614 3.95112ZM140.33 3.95112C141.29 4.36308 141.918 5.3394 142.002 6.5504C142.164 8.85935 140.857 10.1755 138.975 9.60009C138.346 9.40799 137.544 8.56708 137.307 7.85114C137.205 7.54233 137.123 6.9502 137.123 6.53548C137.126 4.53017 138.709 3.25479 140.33 3.95112ZM147.446 4.16329C147.766 4.49252 147.824 4.63493 147.824 5.0749C147.824 5.87737 147.49 6.20913 146.615 6.27419L145.93 6.32526V5.12573C145.93 4.4659 145.963 3.89167 146.004 3.84967C146.045 3.80756 146.301 3.77314 146.573 3.77314C146.986 3.77314 147.129 3.83694 147.446 4.16329ZM147.614 7.01917C148.099 7.35516 148.308 7.96359 148.166 8.61711C148.024 9.26937 147.635 9.63704 147.01 9.70946C146.573 9.76018 146.464 9.7277 146.217 9.47259C145.946 9.19489 145.93 9.10849 145.93 8.04335C145.93 7.41989 145.963 6.87526 146.004 6.83327C146.045 6.79116 146.338 6.75672 146.657 6.75672C147.073 6.75672 147.339 6.82959 147.614 7.01917ZM173.266 13.7797C172.913 14.1429 173.308 14.9095 173.963 15.132C174.793 15.4138 175.808 14.8793 175.808 14.1604C175.808 13.9161 175.743 13.7558 175.627 13.7096C175.341 13.5969 175.111 13.8695 175.182 14.2356C175.255 14.61 175.023 14.7895 174.47 14.7895C173.932 14.7895 173.66 14.6005 173.804 14.3257C174.029 13.8914 173.591 13.4457 173.266 13.7797ZM170.815 15.6749C170.631 15.7445 170.852 16.0517 171.083 16.0517C171.168 16.0517 171.337 16.1551 171.46 16.2813C171.669 16.4964 171.683 16.6626 171.682 18.9492C171.681 20.2906 171.649 21.5064 171.611 21.6512C171.572 21.8026 171.357 22.0118 171.107 22.1433C170.867 22.2691 170.698 22.4157 170.73 22.4689C170.775 22.5434 172.949 22.5619 173.384 22.4915C173.591 22.4577 173.43 22.2492 173.048 22.0571C172.72 21.8919 172.624 21.773 172.602 21.5025C172.575 21.1937 172.755 20.9773 174.36 19.3967L176.148 17.6351L176.117 19.7409L176.087 21.8469L175.697 22.0473C174.996 22.4071 175.193 22.534 176.477 22.5499C178.152 22.5708 178.415 22.4574 177.62 22.0571C177.231 21.8614 177.196 21.803 177.129 21.2157C177.089 20.8686 177.051 19.6458 177.045 18.4984C177.033 16.2406 177.06 16.1363 177.661 15.9808C177.812 15.9418 177.917 15.8514 177.894 15.78C177.868 15.698 177.464 15.6413 176.802 15.6261C175.201 15.5893 174.843 15.7371 175.697 16.0825C176.089 16.2413 176.142 16.3072 176.142 16.6357C176.142 16.9659 175.948 17.2033 174.443 18.7071C173.507 19.6412 172.703 20.407 172.656 20.409C172.609 20.4108 172.584 19.4699 172.6 18.3182L172.63 16.2238L172.996 16.0588C173.618 15.7767 173.359 15.6512 172.12 15.635C171.481 15.6268 170.894 15.6446 170.815 15.6749ZM109.193 15.8246C109.154 15.8891 109.3 16.0182 109.517 16.1114C109.733 16.2047 109.963 16.3809 110.026 16.5031C110.174 16.787 110.181 21.3244 110.034 21.7214C109.971 21.8923 109.761 22.0839 109.525 22.1855C109.303 22.2806 109.152 22.4073 109.188 22.4669C109.277 22.6155 111.954 22.563 112.003 22.4118C112.024 22.3473 111.839 22.2028 111.593 22.091C111.321 21.9675 111.122 21.7894 111.086 21.6378C111.053 21.5003 111.041 20.2518 111.058 18.8633L111.089 16.3387H112.818H114.546L114.538 19.0028C114.532 21.3952 114.511 21.6902 114.332 21.894C114.222 22.0188 114.024 22.1367 113.893 22.156C113.761 22.1753 113.654 22.2686 113.654 22.3632C113.654 22.5052 113.869 22.5371 114.88 22.5458C115.555 22.5515 116.194 22.5352 116.301 22.5095C116.611 22.435 116.529 22.2773 116.106 22.1334C115.89 22.0604 115.664 21.9031 115.602 21.7838C115.533 21.6507 115.501 20.5574 115.519 18.9537L115.549 16.3403L115.972 16.1356C116.204 16.0229 116.364 15.8805 116.327 15.819C116.234 15.6633 109.286 15.6687 109.193 15.8246ZM117.213 15.836C117.178 15.8942 117.317 16.0139 117.522 16.102C117.727 16.1902 117.976 16.357 118.076 16.4726C118.36 16.8027 120.176 20.6119 120.176 20.8777C120.176 21.4684 119.626 21.8322 118.912 21.713C118.491 21.6426 118.363 21.8004 118.511 22.209C118.721 22.7909 119.654 22.6067 120.175 21.8803C120.387 21.5851 121.614 19.1081 122.5 17.1839C122.769 16.5979 122.938 16.38 123.231 16.2373C123.439 16.1352 123.665 16.0517 123.732 16.0517C123.9 16.0517 123.887 15.8593 123.716 15.7936C123.608 15.7525 121.954 15.7676 121.485 15.814C121.279 15.8345 121.433 16.0405 121.737 16.1493C121.984 16.2382 122.071 16.3416 122.071 16.5477C122.071 16.9656 120.956 19.7239 120.787 19.7239C120.714 19.7239 119.172 16.5424 119.172 16.3915C119.172 16.3243 119.323 16.2153 119.507 16.1493C119.812 16.0398 119.961 15.839 119.758 15.8105C119.228 15.7363 117.261 15.7558 117.213 15.836ZM124.708 15.851C124.566 15.9459 124.802 16.1616 125.051 16.1648C125.126 16.1658 125.268 16.2933 125.367 16.4484C125.521 16.6904 125.541 17.0782 125.509 19.1851C125.469 21.8022 125.455 21.8728 124.885 22.1632C124.325 22.4483 124.565 22.5353 125.907 22.5353C127.342 22.5353 127.629 22.4115 126.886 22.1116L126.455 21.9372L126.382 20.6979C126.288 19.1336 126.287 17.889 126.379 16.9867L126.451 16.2813H127.436C128.527 16.2813 128.65 16.3609 128.814 17.1706C128.977 17.9773 129.243 17.4305 129.184 16.4067L129.151 15.7987L126.994 15.7818C125.807 15.7724 124.779 15.8037 124.708 15.851ZM130.605 15.8142C130.567 15.8769 130.733 16.0312 130.973 16.1572C131.212 16.2832 131.44 16.4702 131.478 16.5726C131.591 16.8752 131.557 21.4036 131.44 21.7214C131.376 21.8923 131.167 22.0839 130.931 22.1855C130.709 22.2806 130.556 22.4051 130.59 22.4622C130.638 22.5414 132.792 22.5653 133.248 22.4915C133.455 22.4577 133.295 22.2492 132.913 22.0571C132.154 21.6747 132.243 21.4513 133.8 19.8765C134.554 19.1135 135.359 18.3227 135.589 18.1192L136.007 17.7494V19.7516C136.007 21.9161 135.987 21.9903 135.36 22.1873C135.218 22.2316 135.123 22.3274 135.145 22.4002C135.193 22.5493 137.577 22.6144 137.8 22.4727C137.971 22.3633 137.831 22.1347 137.589 22.13C137.486 22.1281 137.306 22.0524 137.19 21.962C136.997 21.8122 136.973 21.5787 136.923 19.3396C136.893 17.9878 136.9 16.7499 136.94 16.5888C136.989 16.3892 137.136 16.2494 137.403 16.1501C138.045 15.9111 137.792 15.7673 136.667 15.7312C135.096 15.681 134.699 15.8487 135.561 16.1973C135.943 16.3516 136.007 16.4269 136.007 16.7209C136.007 17.014 135.75 17.319 134.251 18.8046L132.495 20.5451L132.465 18.5606C132.448 17.4692 132.46 16.5075 132.491 16.4234C132.522 16.3392 132.701 16.2153 132.889 16.148C133.077 16.0807 133.211 15.9669 133.188 15.8952C133.133 15.7274 130.703 15.6511 130.605 15.8142ZM139.297 15.8209C139.256 15.8891 139.396 16.0158 139.618 16.1114C139.836 16.2047 140.064 16.3809 140.128 16.5031C140.254 16.7456 140.291 20.9412 140.172 21.551C140.12 21.825 139.994 21.972 139.667 22.1437C139.428 22.2692 139.258 22.416 139.291 22.4697C139.383 22.6238 142.056 22.5602 142.108 22.4029C142.13 22.3298 141.971 22.2096 141.753 22.1354C141.535 22.0612 141.305 21.9014 141.242 21.7801C141.178 21.6585 141.141 21.0572 141.159 20.4409L141.191 19.3222H142.92H144.647L144.683 20.1255C144.702 20.5674 144.685 21.1539 144.646 21.4292C144.581 21.8798 144.531 21.9474 144.137 22.1066C143.689 22.2875 143.593 22.416 143.838 22.502C143.953 22.542 146.231 22.532 146.514 22.4903C146.735 22.4578 146.557 22.2523 146.208 22.1334C145.992 22.0604 145.767 21.9047 145.706 21.7878C145.642 21.6652 145.595 20.4838 145.595 18.9996C145.595 16.2383 145.591 16.2583 146.186 16.1047C146.357 16.0605 146.478 15.9661 146.454 15.8947C146.399 15.7254 143.791 15.7135 143.735 15.8823C143.715 15.9468 143.911 16.1017 144.173 16.2266L144.647 16.4534L144.679 17.5722L144.712 18.6911H142.923H141.135V17.5382V16.3854L141.469 16.1898C141.653 16.0824 141.787 15.9427 141.766 15.8796C141.716 15.7203 139.39 15.6651 139.297 15.8209ZM150.695 15.8254C149.175 16.2185 148.148 17.3798 147.973 18.9016C147.899 19.5515 148.139 20.5224 148.519 21.1006C148.908 21.6957 149.716 22.2281 150.547 22.4393C151.173 22.5985 151.426 22.6073 152.187 22.4966C153.431 22.3156 153.638 22.1927 153.82 21.5324C153.91 21.2005 153.93 20.9185 153.872 20.8091C153.793 20.6646 153.688 20.7482 153.334 21.2383C152.947 21.7735 152.82 21.8659 152.282 22.0046C151.552 22.193 151.044 22.0849 150.262 21.5742C148.947 20.7162 148.674 18.2719 149.75 17.0097C150.467 16.1695 151.662 15.926 152.622 16.4247C153.005 16.6227 153.179 16.8112 153.375 17.2322C153.516 17.5343 153.679 17.7507 153.738 17.7132C153.796 17.6756 153.845 17.3158 153.845 16.9138V16.1828L153.203 15.988C152.43 15.7528 151.267 15.6773 150.695 15.8254ZM159.865 15.7881C159.532 15.9122 158.962 16.5744 158.356 17.5413C157.697 18.5908 157.552 18.7308 156.998 18.8561C156.655 18.9336 156.646 18.9245 156.611 18.4977C156.592 18.257 156.593 17.7069 156.613 17.2754C156.65 16.5041 156.658 16.4881 157.031 16.3272C157.712 16.0347 157.47 15.937 156.066 15.937C155.079 15.937 154.73 15.9733 154.762 16.0726C154.787 16.1472 154.977 16.2674 155.187 16.3399C155.502 16.4493 155.583 16.5484 155.663 16.9216C155.787 17.4938 155.681 21.484 155.535 21.752C155.475 21.8629 155.272 22.0069 155.083 22.0723C154.395 22.3106 154.726 22.4206 156.131 22.4206C157.506 22.4206 157.877 22.3076 157.217 22.0897C156.656 21.9038 156.632 21.8396 156.632 20.5131C156.632 19.3414 156.646 19.2648 156.855 19.2648C157.151 19.2648 157.357 19.4913 158.168 20.7092C159.079 22.08 159.358 22.3381 160.1 22.4983C160.704 22.6284 161.314 22.5662 161.314 22.3747C161.314 22.3202 161.094 22.2185 160.824 22.1486C160.235 21.9958 159.661 21.3823 158.66 19.8338L157.986 18.7914L158.663 17.795C159.035 17.2469 159.421 16.7354 159.519 16.6583C159.617 16.5811 159.908 16.5164 160.165 16.5144C160.543 16.5115 160.645 16.4642 160.707 16.2613C160.83 15.8634 160.365 15.6017 159.865 15.7881ZM162.044 15.8142C162.007 15.8769 162.172 16.0312 162.411 16.1572C162.652 16.2832 162.88 16.4702 162.918 16.5726C163.031 16.8752 162.997 21.4036 162.88 21.7214C162.816 21.8923 162.605 22.0839 162.37 22.1855C162.148 22.2806 161.996 22.4051 162.029 22.4622C162.077 22.5414 164.232 22.5653 164.687 22.4915C164.896 22.4577 164.735 22.2492 164.353 22.0571C163.592 21.6747 163.683 21.4513 165.239 19.8765C165.994 19.1135 166.799 18.3227 167.029 18.1192L167.447 17.7494V19.7516C167.447 21.9161 167.426 21.9903 166.799 22.1873C166.657 22.2316 166.562 22.3274 166.585 22.4002C166.633 22.5493 169.016 22.6144 169.238 22.4727C169.411 22.3633 169.271 22.1347 169.029 22.13C168.925 22.1281 168.745 22.0524 168.629 21.962C168.437 21.8122 168.413 21.5787 168.363 19.3396C168.333 17.9878 168.34 16.7499 168.38 16.5888C168.428 16.3892 168.575 16.2494 168.842 16.1501C169.485 15.9111 169.232 15.7673 168.107 15.7312C166.536 15.681 166.139 15.8487 167.001 16.1973C167.383 16.3518 167.447 16.4267 167.447 16.7215C167.447 17.0154 167.192 17.3171 165.691 18.801L163.935 20.5366L163.904 18.5564C163.887 17.4673 163.899 16.5075 163.93 16.4234C163.961 16.3392 164.141 16.2153 164.328 16.148C164.516 16.0807 164.65 15.9669 164.627 15.8952C164.573 15.7274 162.142 15.6511 162.044 15.8142ZM112.105 27.6629C111.903 27.844 111.56 28.5642 111.029 29.9193C110.601 31.0141 110.078 32.2928 109.868 32.7606C109.521 33.5349 109.44 33.6317 108.971 33.8387C108.687 33.964 108.484 34.1139 108.519 34.1721C108.567 34.2526 110.443 34.2706 110.95 34.1952C111.156 34.1647 111.003 33.9305 110.708 33.8245C110.25 33.66 110.219 33.4679 110.509 32.5963L110.764 31.8303L111.429 31.7402C111.794 31.6906 112.311 31.6817 112.577 31.7201C113.022 31.7846 113.078 31.8323 113.286 32.316C113.411 32.6053 113.538 33.0406 113.57 33.2835C113.624 33.696 113.605 33.7335 113.278 33.8505C112.964 33.9632 112.8 34.1728 113.013 34.1892C114.094 34.2727 115.719 34.2708 115.77 34.1863C115.806 34.1259 115.596 33.9584 115.302 33.814L114.769 33.5517L113.967 31.4861C113.526 30.3501 113.03 29.0074 112.866 28.5025C112.701 27.9976 112.53 27.5423 112.484 27.4908C112.439 27.4393 112.268 27.5166 112.105 27.6629ZM119.176 27.5226C118.989 27.6438 119.001 27.659 119.423 27.8457C119.602 27.9248 119.73 28.0709 119.73 28.1972C119.73 28.3738 119.621 28.4246 119.132 28.4766C117.852 28.6126 116.858 29.3271 116.605 30.2926C116.236 31.7051 117.166 32.8286 118.982 33.1636C119.837 33.3214 119.944 33.5374 119.314 33.8386C119.116 33.9333 118.97 34.0624 118.989 34.1255C119.032 34.2708 121.071 34.3337 121.277 34.1962C121.469 34.0685 121.344 33.8386 121.083 33.8386C120.976 33.8386 120.829 33.7766 120.756 33.7009C120.496 33.4337 120.619 33.2792 121.151 33.2053C122.616 33.0017 123.46 32.4094 123.738 31.3914C124.138 29.9211 123.139 28.7033 121.345 28.4725C120.839 28.4075 120.671 28.3389 120.642 28.1846C120.616 28.0426 120.725 27.9299 121.008 27.8084C121.229 27.7131 121.381 27.5849 121.344 27.5237C121.259 27.3817 119.394 27.3807 119.176 27.5226ZM127.49 27.6629C127.288 27.844 126.945 28.5642 126.414 29.9193C125.986 31.0141 125.463 32.2928 125.253 32.7606C124.906 33.5349 124.826 33.6317 124.356 33.8387C124.073 33.964 123.869 34.1139 123.904 34.1721C123.953 34.2526 125.828 34.2706 126.335 34.1952C126.541 34.1647 126.389 33.9305 126.093 33.8245C125.636 33.66 125.604 33.4679 125.894 32.5963L126.149 31.8303L126.814 31.7402C127.179 31.6906 127.696 31.6817 127.961 31.7201C128.407 31.7846 128.463 31.8323 128.672 32.316C128.796 32.6053 128.923 33.0406 128.956 33.2835C129.009 33.696 128.99 33.7335 128.663 33.8505C128.35 33.9632 128.185 34.1728 128.397 34.1892C129.479 34.2727 131.104 34.2708 131.155 34.1863C131.192 34.1259 130.981 33.9584 130.688 33.814L130.153 33.5517L129.352 31.4861C128.911 30.3501 128.415 29.0074 128.251 28.5025C128.087 27.9976 127.915 27.5423 127.869 27.4908C127.824 27.4393 127.654 27.5166 127.49 27.6629ZM131.938 27.5257C131.897 27.5939 132.039 27.7207 132.26 27.8162C132.477 27.9095 132.707 28.0858 132.77 28.208C132.896 28.4505 132.933 32.6461 132.815 33.256C132.761 33.5298 132.636 33.6769 132.309 33.8486C132.07 33.9741 131.901 34.1209 131.933 34.1746C132.025 34.3287 134.699 34.2652 134.749 34.1077C134.773 34.0347 134.614 33.9145 134.396 33.8404C134.176 33.7661 133.946 33.6062 133.884 33.4849C133.821 33.3634 133.784 32.762 133.802 32.1457L133.833 31.0272H135.561H137.289L137.324 31.8303C137.343 32.2722 137.326 32.8588 137.287 33.1341C137.223 33.5848 137.172 33.6522 136.779 33.8114C136.383 33.9713 136.209 34.161 136.425 34.1968C136.688 34.2405 141.447 34.2598 141.609 34.2179C141.905 34.1413 141.843 33.9553 141.479 33.8245C141.02 33.66 140.989 33.4679 141.28 32.5963L141.535 31.8303L142.199 31.7402C142.564 31.6906 143.08 31.6815 143.345 31.7198C143.789 31.784 143.843 31.8301 144.053 32.3262C144.177 32.6217 144.307 33.0572 144.339 33.2942C144.394 33.6954 144.374 33.7339 144.049 33.8505C143.734 33.9632 143.57 34.1728 143.783 34.1892C144.865 34.2727 146.49 34.2708 146.54 34.1863C146.576 34.1259 146.367 33.9584 146.073 33.814L145.539 33.5517L144.737 31.4861C144.296 30.3501 143.8 29.0074 143.636 28.5025C143.472 27.9976 143.301 27.5423 143.255 27.4908C143.21 27.4393 143.038 27.5166 142.875 27.6629C142.673 27.844 142.331 28.5642 141.8 29.9193C140.474 33.3069 140.333 33.5795 139.776 33.8227C139.346 34.0108 139.256 34.0157 138.906 33.8692C138.691 33.7794 138.452 33.6226 138.376 33.5208C138.202 33.2902 138.177 28.4309 138.347 28.1027C138.408 27.9857 138.612 27.8554 138.8 27.8128C138.986 27.7704 139.121 27.6758 139.098 27.6028C139.042 27.4305 136.433 27.4156 136.378 27.5872C136.356 27.6516 136.554 27.8066 136.814 27.9314L137.289 28.1583L137.32 29.2772L137.353 30.396H135.565H133.778V29.243V28.0902L134.111 27.8946C134.294 27.7873 134.428 27.6477 134.409 27.5846C134.359 27.4253 132.033 27.3699 131.938 27.5257ZM150.026 27.5302C148.351 27.9636 147.327 29.2472 147.33 30.9124C147.333 33.1999 149.193 34.6015 151.694 34.2012C152.775 34.0283 153.001 33.876 153.164 33.21C153.378 32.3337 153.182 32.2285 152.664 32.9431C152.278 33.4784 152.152 33.5707 151.614 33.7094C150.883 33.898 150.374 33.7897 149.592 33.2791C149.215 33.033 148.998 32.7755 148.779 32.3142C147.784 30.2199 148.898 27.8829 150.894 27.8739C151.741 27.8701 152.388 28.2496 152.706 28.9371C152.846 29.2392 153.009 29.4556 153.068 29.418C153.128 29.3804 153.176 29.0206 153.176 28.6187V27.8877L152.535 27.6928C151.761 27.4576 150.598 27.3823 150.026 27.5302ZM154.23 27.5363C154.148 27.6719 154.358 27.8666 154.589 27.8697C154.662 27.8706 154.8 27.9525 154.896 28.0517C155.044 28.2047 155.072 28.6146 155.072 30.756C155.072 32.2473 155.025 33.3692 154.958 33.498C154.896 33.6179 154.642 33.7723 154.393 33.8411C154.129 33.9142 153.96 34.0231 153.987 34.1032C154.02 34.2018 154.529 34.2395 155.806 34.2379C157.44 34.2358 157.623 34.2143 158.116 33.9659C159.375 33.3337 159.678 31.6449 158.695 30.7555C158.192 30.3015 157.533 30.1236 156.66 30.2065L155.963 30.2726V29.3108C155.963 28.7819 155.993 28.27 156.029 28.1732C156.065 28.0765 156.268 27.9382 156.48 27.8661C156.692 27.7939 156.848 27.6753 156.824 27.6023C156.764 27.4175 154.338 27.3555 154.23 27.5363ZM160.91 27.5526C160.882 27.5983 161.05 27.7276 161.282 27.8401L161.705 28.0448L161.784 29.501C161.827 30.3021 161.827 31.541 161.784 32.2546L161.705 33.5517L161.171 33.814C160.877 33.9584 160.662 34.1173 160.692 34.1668C160.721 34.2167 161.815 34.2536 163.12 34.2489L165.496 34.2403L165.688 33.8336C165.989 33.2011 166.062 32.691 165.851 32.691C165.755 32.691 165.649 32.7853 165.613 32.9004C165.577 33.0155 165.395 33.2608 165.208 33.4455C164.891 33.7578 164.807 33.7812 164 33.7812C162.791 33.7812 162.764 33.748 162.764 32.2701V31.0741L163.516 31.1079C164.21 31.1394 164.277 31.1654 164.414 31.4575C164.494 31.6309 164.601 31.773 164.651 31.773C164.79 31.773 164.878 30.0135 164.745 29.8796C164.669 29.803 164.615 29.8118 164.581 29.9068C164.418 30.3639 164.151 30.52 163.488 30.5439L162.82 30.5681L162.789 29.2903L162.756 28.0124L163.568 27.9611C164.015 27.933 164.436 27.9295 164.503 27.9533C164.57 27.9772 164.735 28.201 164.872 28.4505C165.008 28.7 165.166 28.9042 165.224 28.9042C165.357 28.9042 165.358 27.8672 165.225 27.6507C165.143 27.5193 164.715 27.4854 163.041 27.4784C161.896 27.4736 160.937 27.5071 160.91 27.5526ZM167.697 27.4912C167.117 27.5243 166.889 27.5807 166.889 27.6916C166.889 27.7769 167.062 27.8794 167.278 27.9211C167.556 27.9746 167.686 28.0701 167.73 28.2544C167.817 28.6096 167.744 33.4571 167.65 33.553C167.608 33.5954 167.384 33.6976 167.152 33.7797C166.683 33.946 166.552 34.1304 166.856 34.1977C166.966 34.2219 167.783 34.2415 168.673 34.241C170.393 34.2403 170.869 34.1272 171.428 33.5863C171.797 33.2296 172.059 32.4371 171.969 31.9477C171.881 31.4582 171.368 30.8238 170.901 30.6246L170.563 30.4805L171.011 30.0542C171.405 29.6803 171.46 29.5658 171.459 29.1227C171.459 28.5007 171.152 27.9519 170.657 27.6847C170.268 27.4752 169.202 27.4055 167.697 27.4912ZM170.189 28.2615C170.509 28.5908 170.568 28.7332 170.568 29.1732C170.568 29.9757 170.234 30.3074 169.358 30.3725L168.673 30.4235V29.224C168.673 28.5642 168.707 27.99 168.747 27.9479C168.788 27.9058 169.044 27.8714 169.316 27.8714C169.729 27.8714 169.872 27.9352 170.189 28.2615ZM112.416 29.823C112.637 30.3915 112.818 30.9337 112.818 31.0279C112.818 31.1656 112.642 31.1993 111.926 31.1993C111.435 31.1993 111.034 31.1779 111.034 31.1517C111.034 31.0802 111.807 29.009 111.878 28.8915C111.911 28.8353 111.956 28.7895 111.976 28.7895C111.997 28.7895 112.195 29.2545 112.416 29.823ZM119.73 30.7977V32.8058H119.445C118.892 32.8058 118.07 32.2322 117.768 31.6354C117.564 31.232 117.567 30.1287 117.773 29.7188C118.023 29.2212 118.749 28.8298 119.479 28.7998L119.73 28.7895V30.7977ZM121.888 29.1712C122.135 29.3138 122.406 29.5996 122.529 29.8454C122.805 30.4039 122.808 31.3601 122.533 31.8868C122.289 32.3546 121.533 32.8058 120.994 32.8058H120.622V30.7849V28.7638L121.04 28.8438C121.27 28.8878 121.651 29.0351 121.888 29.1712ZM127.801 29.823C128.023 30.3915 128.202 30.9337 128.202 31.0279C128.202 31.1656 128.027 31.1993 127.311 31.1993C126.82 31.1993 126.419 31.1779 126.419 31.1517C126.419 31.0802 127.193 29.009 127.263 28.8915C127.297 28.8353 127.341 28.7895 127.361 28.7895C127.382 28.7895 127.579 29.2545 127.801 29.823ZM143.186 29.823C143.407 30.3915 143.588 30.9337 143.588 31.0279C143.588 31.1656 143.413 31.1993 142.696 31.1993C142.206 31.1993 141.805 31.1779 141.805 31.1517C141.805 31.0802 142.577 29.009 142.648 28.8915C142.681 28.8353 142.726 28.7895 142.747 28.7895C142.768 28.7895 142.965 29.2545 143.186 29.823ZM157.41 30.8265C157.883 31.0706 158.304 31.6896 158.304 32.1379C158.304 32.9867 157.703 33.7183 156.931 33.8079C156.528 33.8546 156.391 33.8199 156.199 33.6225C155.987 33.4037 155.963 33.2505 155.963 32.0791C155.963 31.3637 155.996 30.744 156.037 30.702C156.183 30.5524 157.029 30.629 157.41 30.8265ZM170.31 31.0788C170.776 31.3715 170.944 31.714 170.936 32.3577C170.927 33.0091 170.769 33.3266 170.31 33.6148C169.813 33.9265 169.284 33.9039 168.946 33.5569C168.693 33.2959 168.673 33.1921 168.673 32.1416C168.673 31.5181 168.707 30.9735 168.747 30.9316C168.913 30.7614 169.962 30.8603 170.31 31.0788ZM109.199 39.9125C109.161 39.9752 109.327 40.1294 109.567 40.2554C109.807 40.3814 110.034 40.5684 110.072 40.6709C110.185 40.9734 110.152 45.5019 110.034 45.8197C109.971 45.9906 109.761 46.1822 109.525 46.2838C109.303 46.3789 109.15 46.5033 109.185 46.5603C109.232 46.6398 111.387 46.6636 111.842 46.5898C112.05 46.556 111.89 46.3474 111.508 46.1553C110.747 45.773 110.838 45.5496 112.394 43.9747C113.148 43.2118 113.953 42.421 114.183 42.2175L114.601 41.8476V43.8498C114.601 46.0144 114.582 46.0886 113.954 46.2856C113.813 46.3299 113.716 46.4257 113.74 46.4984C113.788 46.6477 116.171 46.7127 116.393 46.571C116.565 46.4617 116.425 46.233 116.184 46.2283C116.08 46.2263 115.9 46.1507 115.784 46.0602C115.592 45.9105 115.568 45.677 115.518 43.4379C115.487 42.086 115.495 40.8482 115.534 40.6871C115.583 40.4876 115.73 40.3477 115.997 40.2484C116.639 40.0093 116.387 39.8656 115.261 39.8295C113.691 39.7792 113.293 39.9469 114.155 40.2956C114.537 40.4498 114.601 40.5252 114.601 40.8192C114.601 41.1123 114.344 41.4172 112.845 42.9029L111.089 44.6433L111.059 42.6589C111.042 41.5674 111.054 40.6058 111.085 40.5216C111.117 40.4375 111.296 40.3135 111.483 40.2463C111.671 40.1789 111.805 40.0652 111.782 39.9935C111.728 39.8256 109.297 39.7493 109.199 39.9125ZM119.896 39.923C119.857 39.9873 120.003 40.1164 120.219 40.2096C120.436 40.3029 120.665 40.4792 120.73 40.6013C120.877 40.8853 120.884 45.4228 120.737 45.8197C120.673 45.9906 120.464 46.1822 120.228 46.2838C120.006 46.3789 119.854 46.5055 119.89 46.5653C119.98 46.7137 122.657 46.6613 122.706 46.5102C122.726 46.4455 122.542 46.301 122.296 46.1893C122.024 46.0658 121.824 45.8877 121.788 45.736C121.756 45.5986 121.743 44.35 121.761 42.9614L121.792 40.4369H123.52H125.249L125.241 43.1011C125.234 45.4935 125.214 45.7884 125.034 45.9923C124.925 46.117 124.728 46.2349 124.596 46.2542C124.464 46.2735 124.356 46.3668 124.356 46.4615C124.356 46.6035 124.572 46.6354 125.583 46.6441C126.257 46.6498 126.897 46.6335 127.005 46.6077C127.315 46.5332 127.232 46.3757 126.808 46.2317C126.594 46.1586 126.366 46.0014 126.305 45.882C126.236 45.749 126.203 44.6557 126.221 43.0519L126.252 40.4386L126.675 40.2338C126.908 40.1212 127.067 39.9787 127.031 39.9173C126.936 39.7616 119.989 39.767 119.896 39.923ZM131.503 40.0563C131.302 40.2374 130.958 40.9575 130.428 42.3126C130 43.4076 129.477 44.6862 129.267 45.154C128.92 45.9283 128.839 46.0251 128.37 46.2321C128.086 46.3573 127.882 46.5073 127.917 46.5655C127.966 46.646 129.842 46.664 130.349 46.5886C130.555 46.5581 130.402 46.3239 130.107 46.2179C129.649 46.0535 129.618 45.8612 129.908 44.9897L130.163 44.2238L130.828 44.1335C131.193 44.0841 131.709 44.0751 131.975 44.1135C132.421 44.178 132.477 44.2256 132.685 44.7094C132.81 44.9986 132.936 45.425 132.967 45.657C133.016 46.0428 132.992 46.0917 132.675 46.2268C132.358 46.3615 132.206 46.5669 132.411 46.5826C133.493 46.6661 135.118 46.6643 135.168 46.5796C135.205 46.5193 134.994 46.3518 134.701 46.2074L134.167 45.9451L133.366 43.8795C132.925 42.7435 132.429 41.4008 132.265 40.896C132.101 40.391 131.928 39.9357 131.883 39.8842C131.837 39.8326 131.667 39.9101 131.503 40.0563ZM136.08 39.9579C135.999 40.017 135.993 40.0712 136.063 40.1017C136.124 40.1285 136.35 40.2407 136.565 40.3511L136.955 40.5516L136.95 43.1502C136.946 46.0105 136.948 45.9969 136.24 46.3013C135.608 46.5734 135.995 46.6744 137.501 46.6307C139.155 46.5825 139.018 46.5976 139.018 46.466C139.018 46.4052 138.816 46.3001 138.572 46.2323C138.261 46.1458 138.11 46.0331 138.067 45.8549C138.034 45.7151 138.021 44.4131 138.038 42.9614L138.069 40.3222L138.335 40.2835C139.54 40.1081 140.42 41.1766 140.139 42.4715C140.008 43.0732 139.491 43.5926 139.022 43.5926C138.652 43.5926 138.465 43.7972 138.697 43.9479C139.098 44.2102 140.028 43.9321 140.589 43.3824C141.38 42.6075 141.433 41.4714 140.72 40.5986C140.207 39.9716 139.831 39.8735 137.919 39.8681C136.979 39.8653 136.151 39.9058 136.08 39.9579ZM142.101 39.8923C142.073 39.9394 142.032 40.3343 142.011 40.7697C141.983 41.3305 142.012 41.576 142.111 41.6113C142.188 41.6386 142.284 41.5662 142.325 41.4505C142.365 41.3348 142.495 41.0961 142.613 40.9202C142.823 40.6087 142.854 40.601 143.738 40.6333L144.647 40.6664L144.677 43.1216C144.712 45.9103 144.684 46.0208 143.915 46.234C143.661 46.3044 143.482 46.4178 143.505 46.492C143.565 46.6782 146.618 46.6868 146.678 46.5011C146.702 46.4281 146.543 46.3079 146.325 46.2337C146.106 46.1595 145.884 46.0126 145.83 45.9072C145.669 45.5886 145.568 43.3283 145.653 41.9265L145.733 40.609H146.563C147.542 40.609 147.787 40.7193 148.006 41.2575C148.095 41.4776 148.229 41.6371 148.304 41.612C148.428 41.5695 148.635 40.0451 148.532 39.9272C148.508 39.8992 148.323 39.938 148.12 40.0133C147.539 40.2293 142.892 40.2006 142.474 39.9784C142.297 39.8839 142.128 39.8451 142.101 39.8923ZM149.33 39.9191C149.289 39.9873 149.431 40.1141 149.652 40.2096C149.869 40.3029 150.099 40.4792 150.162 40.6013C150.288 40.8439 150.325 45.0395 150.207 45.6494C150.153 45.9232 150.028 46.0702 149.701 46.242C149.462 46.3675 149.293 46.5142 149.325 46.568C149.417 46.722 152.091 46.6586 152.141 46.5011C152.165 46.4281 152.006 46.3079 151.788 46.2337C151.569 46.1595 151.339 45.9996 151.276 45.8782C151.213 45.7568 151.176 45.1554 151.194 44.5391L151.225 43.4205H152.953H154.681L154.716 44.2238C154.735 44.6656 154.719 45.2522 154.679 45.5276C154.616 45.9781 154.564 46.0456 154.171 46.2047C153.723 46.3857 153.626 46.5142 153.873 46.6004C153.988 46.6402 156.265 46.6303 156.549 46.5885C156.768 46.5562 156.591 46.3505 156.241 46.2317C156.026 46.1586 155.8 46.003 155.739 45.8862C155.593 45.6053 155.593 40.7768 155.739 40.4962C155.8 40.3791 156.004 40.2487 156.192 40.2062C156.379 40.1638 156.513 40.0692 156.49 39.9961C156.434 39.8239 153.825 39.8089 153.77 39.9806C153.748 40.045 153.946 40.2 154.206 40.3248L154.681 40.5516L154.713 41.6705L154.745 42.7893H152.957H151.17V41.6364V40.4836L151.503 40.2881C151.686 40.1807 151.82 40.0411 151.801 39.9779C151.751 39.8186 149.425 39.7633 149.33 39.9191ZM157.564 39.946C157.537 39.9917 157.704 40.1211 157.938 40.2335L158.361 40.4382L158.439 41.8944C158.482 42.6954 158.482 43.9344 158.439 44.648L158.361 45.9451L157.827 46.2074C157.533 46.3518 157.318 46.5106 157.347 46.5603C157.377 46.6101 158.47 46.6469 159.776 46.6423L162.15 46.6336L162.344 46.227C162.645 45.5945 162.717 45.0844 162.507 45.0844C162.411 45.0844 162.304 45.1787 162.269 45.2938C162.233 45.4089 162.051 45.6542 161.863 45.8388C161.547 46.1512 161.462 46.1746 160.656 46.1746C159.446 46.1746 159.42 46.1414 159.42 44.6635V43.4675L160.171 43.5013C160.866 43.5328 160.933 43.5587 161.069 43.8509C161.149 44.0243 161.256 44.1665 161.306 44.1665C161.445 44.1665 161.534 42.4069 161.401 42.273C161.324 42.1963 161.27 42.2053 161.236 42.3002C161.074 42.7572 160.805 42.9134 160.144 42.9373L159.475 42.9614L159.443 41.6837L159.412 40.4059L160.224 40.3545C160.671 40.3265 161.09 40.3229 161.157 40.3467C161.225 40.3705 161.391 40.5944 161.528 40.8439C161.663 41.0934 161.822 41.2976 161.88 41.2976C162.013 41.2976 162.013 40.2607 161.88 40.044C161.799 39.9127 161.371 39.8788 159.696 39.8718C158.551 39.867 157.592 39.9004 157.564 39.946ZM163.506 39.9579C163.426 40.017 163.42 40.0712 163.488 40.1017C163.55 40.1285 163.776 40.2407 163.99 40.3511L164.38 40.5516L164.375 43.0763C164.366 45.8814 164.339 46.0124 163.681 46.2948C163.034 46.5735 163.409 46.6747 164.928 46.6307C166.582 46.5825 166.443 46.5976 166.443 46.466C166.443 46.4052 166.243 46.3001 165.999 46.2323C165.686 46.1458 165.535 46.0331 165.493 45.8549C165.46 45.7151 165.446 44.4131 165.464 42.9614L165.496 40.3222L165.761 40.2835C166.965 40.1081 167.847 41.1766 167.565 42.4715C167.435 43.0732 166.916 43.5926 166.448 43.5926C166.079 43.5926 165.891 43.7972 166.122 43.9479C166.524 44.2102 167.455 43.9321 168.016 43.3824C168.806 42.6075 168.859 41.4714 168.145 40.5986C167.632 39.9716 167.257 39.8735 165.346 39.8681C164.404 39.8653 163.577 39.9058 163.506 39.9579ZM170.284 39.9285C170.193 40.0813 170.2 40.088 170.708 40.3043L171.126 40.4827V43.1197C171.126 46.0142 171.116 46.0561 170.441 46.195C170.113 46.2627 169.936 46.4221 170.054 46.5438C170.179 46.6727 173.409 46.608 173.913 46.4664C174.905 46.1879 175.474 45.4685 175.474 44.4933C175.473 43.7775 175.174 43.244 174.581 42.9047C174.159 42.6625 173.926 42.6157 173.103 42.6072C172.567 42.6017 172.099 42.5666 172.063 42.5292C172.026 42.4919 172.033 42.0135 172.077 41.466L172.157 40.4704L172.541 40.3054C173.227 40.0104 172.936 39.8655 171.597 39.8347C170.812 39.8168 170.331 39.8511 170.284 39.9285ZM175.812 39.914C175.613 40.046 175.641 40.0788 176.154 40.2971C176.464 40.4297 176.572 40.5525 176.627 40.8399C176.716 41.291 176.703 43.4986 176.604 44.9123L176.533 45.9451L176.115 46.1746C175.886 46.3008 175.713 46.4558 175.734 46.5189C175.764 46.6105 177.266 46.6445 178.567 46.5829C178.847 46.5696 178.697 46.3612 178.316 46.2317C177.584 45.9832 177.591 46.0149 177.591 43.2657C177.591 40.5599 177.631 40.3659 178.211 40.2163C178.37 40.1752 178.479 40.0789 178.455 40.0024C178.399 39.83 176.056 39.7516 175.812 39.914ZM131.818 42.2443C132.037 42.828 132.217 43.3703 132.217 43.4492C132.217 43.552 131.963 43.5926 131.325 43.5926C130.834 43.5926 130.432 43.5713 130.432 43.5451C130.432 43.4736 131.206 41.4024 131.277 41.2849C131.31 41.2287 131.356 41.1828 131.379 41.1828C131.4 41.1828 131.598 41.6605 131.818 42.2443ZM173.644 43.2535C175.004 43.9312 174.591 45.9839 173.051 46.1964C172.741 46.2392 172.56 46.1979 172.376 46.0426C172.156 45.8553 172.119 45.6865 172.055 44.6005C172.003 43.6834 172.021 43.3259 172.126 43.1948C172.327 42.9446 173.083 42.9737 173.644 43.2535Z" fill="#A2202A"/>
</g>
</g>
</g>
<defs>
<clipPath id="clip0_72_342">
<rect width="178.467" height="47.9087" fill="white" transform="translate(0.395996 0.191406)"/>
</clipPath>
<clipPath id="clip1_72_342">
<rect width="178.467" height="47.9087" fill="white" transform="translate(0.395996 0.191406)"/>
</clipPath>
<clipPath id="clip2_72_342">
<rect width="178.46" height="47.9087" fill="white" transform="translate(0.399597 0.191406)"/>
</clipPath>
</defs>
</svg>
