<svg width="146" height="51" viewBox="0 0 146 51" fill="none" xmlns="http://www.w3.org/2000/svg">
<g clip-path="url(#clip0_72_347)">
<g clip-path="url(#clip1_72_347)">
<g clip-path="url(#clip2_72_347)">
<path d="M71.9134 21.6225C71.9134 21.1509 71.8367 20.7407 71.6831 20.3916C71.5285 20.0421 71.2948 19.7575 70.9802 19.5366C70.7077 19.3479 70.3891 19.2115 70.0273 19.132C69.6629 19.0524 69.2109 19.0136 68.6708 19.0136H67.2405V24.4817H68.4182C69.1157 24.4817 69.6792 24.4222 70.1085 24.3028C70.5389 24.1827 70.8964 23.9709 71.1818 23.6633C71.4365 23.3877 71.6231 23.0878 71.7388 22.7635C71.8561 22.4377 71.9134 22.0593 71.9134 21.6225ZM73.7098 21.5774C73.7098 22.1716 73.6097 22.7338 73.408 23.2634C73.2079 23.794 72.931 24.246 72.5764 24.6185C72.1281 25.0844 71.6026 25.4383 70.9985 25.6772C70.3934 25.9156 69.6294 26.0354 68.7058 26.0354H67.2405V31.1364H65.5161V17.4507H68.7757C69.5419 17.4507 70.1962 17.5174 70.7363 17.6524C71.2776 17.7877 71.7534 18.0059 72.167 18.3058C72.6483 18.6543 73.0274 19.0964 73.3004 19.633C73.5724 20.1697 73.7098 20.8177 73.7098 21.5774Z" fill="#383838"/>
<path d="M84.0533 22.2085L78.8159 34.4284H77.0633L78.8061 30.7038L75.2665 22.2085H77.0363L79.6955 28.8179L82.3452 22.2085H84.0533Z" fill="#383838"/>
<path d="M89.625 31.3354C88.9577 31.3354 88.3434 31.24 87.7848 31.0525C87.2285 30.8632 86.7483 30.5758 86.3476 30.193C85.9475 29.8091 85.6355 29.3249 85.4153 28.7418C85.1937 28.1578 85.0829 27.4718 85.0829 26.6849C85.0829 25.9006 85.198 25.2239 85.4284 24.654C85.6576 24.0842 85.9637 23.6049 86.3476 23.2155C86.7305 22.8278 87.2089 22.5267 87.7827 22.3174C88.3537 22.1056 88.968 22.001 89.625 22.001C90.1603 22.001 90.6761 22.0692 91.1731 22.2087C91.6694 22.3472 92.1112 22.5072 92.5006 22.6881V24.3754H92.4053C92.2902 24.2838 92.1415 24.1796 91.9571 24.0624C91.7738 23.9458 91.5516 23.8262 91.2915 23.703C91.0649 23.5966 90.7961 23.5038 90.488 23.4232C90.1798 23.3437 89.8834 23.3039 89.5985 23.3039C88.7511 23.3039 88.0698 23.5983 87.5539 24.1867C87.0402 24.7757 86.7829 25.6079 86.7829 26.6849C86.7829 27.74 87.0332 28.5614 87.5291 29.1498C88.0249 29.7381 88.7154 30.0328 89.5985 30.0328C90.1343 30.0328 90.6415 29.9325 91.125 29.7294C91.6073 29.5277 92.0344 29.2665 92.4053 28.9453H92.5006V30.632C92.3394 30.7012 92.1356 30.7852 91.8916 30.884C91.6489 30.9836 91.4267 31.0558 91.2282 31.1036C90.9513 31.1784 90.7005 31.2362 90.4798 31.2766C90.2587 31.3148 89.9737 31.3354 89.625 31.3354Z" fill="#383838"/>
<path d="M102.662 19.0688H96.6906V31.1364H94.9652V17.4507H102.662V19.0688Z" fill="#383838"/>
<path d="M109.777 31.1362H108.154V24.4783L103.57 31.1362H102.087V22.2085H103.709V28.7618L108.242 22.2085H109.777V31.1362Z" fill="#383838"/>
<path d="M118.642 29.8564V23.4715H115.852C115.777 24.8033 115.578 26.0188 115.255 27.1203C114.933 28.2193 114.528 29.1322 114.039 29.8564H118.642ZM121.248 33.2773H119.722V31.1117H113.307V33.2773H111.781V29.8564H112.427C112.979 29.0258 113.43 27.9401 113.781 26.6006C114.135 25.2596 114.309 23.7966 114.309 22.2085H120.28V29.8564H121.248V33.2773Z" fill="#383838"/>
<path d="M125.309 23.5774V29.6305C125.739 29.8229 126.108 29.7882 126.412 29.8564C126.717 29.925 127.068 29.9616 127.461 29.9616C128.311 29.9616 128.972 29.6753 129.441 29.1055C129.911 28.535 130.148 27.7013 130.148 26.604C130.148 25.5868 129.97 25.1278 129.616 24.5656C129.261 24.0032 128.685 23.7225 127.889 23.7225L125.309 23.5774ZM128.291 22.2913C129.406 22.2913 130.277 22.6954 130.901 23.5065C131.526 24.3163 131.838 25.0725 131.838 26.4365C131.838 27.9229 131.45 29.1065 130.675 29.9893C129.899 30.8702 128.918 31.3118 127.732 31.3118C127.251 31.3118 126.823 31.4268 126.452 31.325C126.08 31.224 125.699 31.3985 125.309 31.1848V34.4284H123.67V22.2085H125.309L128.291 22.2913Z" fill="#383838"/>
<path d="M140.721 26.6775C140.721 25.5204 140.493 24.6622 140.033 24.0998C139.573 23.537 138.92 23.2572 138.071 23.2572C137.216 23.2572 136.559 23.537 136.097 24.0998C135.634 24.6622 135.404 25.5204 135.404 26.6775C135.404 27.795 135.634 28.644 136.097 29.2216C136.559 29.8012 137.216 30.0896 138.071 30.0896C138.913 30.0896 139.567 29.8061 140.028 29.2384C140.49 28.6714 140.721 27.8167 140.721 26.6775ZM142.412 26.6775C142.412 28.1795 142.018 29.3393 141.227 30.1585C140.437 30.9758 139.386 31.3837 138.071 31.3837C136.716 31.3837 135.652 30.9622 134.877 30.1176C134.1 29.2728 133.712 28.1265 133.712 26.6775C133.712 25.1852 134.113 24.0273 134.911 23.2006C135.71 22.3738 136.764 21.9609 138.071 21.9609C139.386 21.9609 140.437 22.3727 141.227 23.1956C142.018 24.019 142.412 25.1802 142.412 26.6775Z" fill="#383838"/>
<path d="M11.4691 42.0725L14.2893 39.1729C14.2893 39.1729 18.9403 42.7563 22.074 43.9151C25.21 45.0743 27.4568 48.6573 27.4568 48.6573C27.4568 48.6573 32.7331 49.87 24.9476 50.0277C17.1634 50.1864 12.8789 46.3401 12.8789 46.3401L11.4691 42.0725Z" fill="url(#paint0_radial_72_347)"/>
<path d="M7.08131 25.2136C7.08131 25.2136 -0.547366 19.7341 6.82024 14.2001L13.8729 9.82715C13.8729 9.82715 14.605 14.0426 31.7953 20.839C48.9847 27.6366 48.4614 30.0608 48.7759 30.852C49.0903 31.6422 49.3505 35.0668 46.5299 38.6498C43.7072 42.2336 38.4836 44.9739 38.4836 44.9739C38.4836 44.9739 39.6852 41.9173 35.6613 39.2294C31.639 36.543 22.9649 32.5917 20.0926 31.327C17.2165 30.0608 7.08131 25.2136 7.08131 25.2136Z" fill="url(#paint1_radial_72_347)"/>
<path d="M26.6307 2.23584C26.6307 2.23584 35.9317 2.49972 39.9027 6.39847C43.8735 10.2986 40.0073 10.1406 39.5376 10.7202C39.0667 11.2994 36.9239 11.669 36.9239 11.669C36.9239 11.669 29.7141 8.82309 24.9582 4.13359C24.0707 2.71088 26.6307 2.23584 26.6307 2.23584Z" fill="url(#paint2_radial_72_347)"/>
<path d="M39.2018 5.68164C39.2018 5.68164 41.4471 8.36419 37.8086 10.6687C24.8503 19.0985 12.9385 19.2566 2.80206 29.3742C2.80206 36.277 10.1175 44.9177 12.9914 46.4998C12.9914 46.4998 10.9527 43.8658 14.9764 41.2303C18.9991 38.5958 29.1878 34.2221 32.5324 32.9574C35.8762 31.6919 43.4516 28.2678 45.3851 26.7392C47.3187 25.2116 48.4153 24.7361 49.5646 22.2073C48.3638 14.5663 44.4961 9.13857 39.2018 5.68164Z" fill="url(#paint3_radial_72_347)"/>
<path d="M48.3147 35.4863C48.3147 35.4863 42.6191 40.8622 34.8855 44.3392C27.4534 47.6809 26.0028 48.9233 25.167 49.9235C25.2717 50.3984 25.7946 50.2937 26.3695 50.2937C26.9439 50.2937 32.6919 49.8199 37.6546 47.2372C42.6191 44.6555 45.963 41.0715 48.3147 35.4863Z" fill="url(#paint4_radial_72_347)"/>
<path d="M27.4637 2.07764C25.4263 2.02523 10.0129 1.8137 3.95145 17.6229C3.95145 17.6229 8.80257 12.1701 15.3936 9.19255C22.3952 6.03027 29.501 2.13113 27.4637 2.07764Z" fill="url(#paint5_radial_72_347)"/>
</g>
</g>
</g>
<defs>
<radialGradient id="paint0_radial_72_347" cx="0" cy="0" r="1" gradientUnits="userSpaceOnUse" gradientTransform="translate(4.25603 49.7316) scale(0.73356 0.739811)">
<stop stop-color="#F57D14"/>
<stop offset="1" stop-color="#F2521B"/>
</radialGradient>
<radialGradient id="paint1_radial_72_347" cx="0" cy="0" r="1" gradientUnits="userSpaceOnUse" gradientTransform="translate(4.85282 48.0151) scale(2.02213 2.03936)">
<stop stop-color="#F57D14"/>
<stop offset="1" stop-color="#F2521B"/>
</radialGradient>
<radialGradient id="paint2_radial_72_347" cx="0" cy="0" r="1" gradientUnits="userSpaceOnUse" gradientTransform="translate(5.55428 45.9686) scale(0.683094 0.688915)">
<stop stop-color="#F57D14"/>
<stop offset="1" stop-color="#F2521B"/>
</radialGradient>
<radialGradient id="paint3_radial_72_347" cx="0" cy="0" r="1" gradientUnits="userSpaceOnUse" gradientTransform="translate(5.58428 47.0389) scale(3.41271 3.44178)">
<stop stop-color="#576EBE"/>
<stop offset="0.563636" stop-color="#293D9B"/>
<stop offset="0.678788" stop-color="#2B2F7F"/>
<stop offset="0.90303" stop-color="#293D9B"/>
<stop offset="1" stop-color="#576EBE"/>
</radialGradient>
<radialGradient id="paint4_radial_72_347" cx="0" cy="0" r="1" gradientUnits="userSpaceOnUse" gradientTransform="translate(5.38083 49.3128) scale(1.19517 1.20535)">
<stop stop-color="#2B2F7F"/>
<stop offset="0.661236" stop-color="#293D9B"/>
<stop offset="1" stop-color="#576EBE"/>
</radialGradient>
<radialGradient id="paint5_radial_72_347" cx="0" cy="0" r="1" gradientUnits="userSpaceOnUse" gradientTransform="translate(5.58401 47.0391) scale(3.41277 3.44184)">
<stop stop-color="#576EBE"/>
<stop offset="0.563636" stop-color="#293D9B"/>
<stop offset="0.678788" stop-color="#2B2F7F"/>
<stop offset="0.90303" stop-color="#293D9B"/>
<stop offset="1" stop-color="#576EBE"/>
</radialGradient>
<clipPath id="clip0_72_347">
<rect width="144.703" height="49.4401" fill="white" transform="translate(0.390137 0.98584)"/>
</clipPath>
<clipPath id="clip1_72_347">
<rect width="144.703" height="49.4401" fill="white" transform="translate(0.390137 0.98584)"/>
</clipPath>
<clipPath id="clip2_72_347">
<rect width="144.703" height="49.4401" fill="white" transform="translate(0.390137 0.98584)"/>
</clipPath>
</defs>
</svg>
