<svg width="121" height="50" viewBox="0 0 121 50" fill="none" xmlns="http://www.w3.org/2000/svg">
<g clip-path="url(#clip0_72_715)">
<g clip-path="url(#clip1_72_715)">
<path d="M12.3346 45.9866V16.6064H4.6217V45.9576H12.3346V45.9866ZM63.407 46.2767V39.0838C62.2804 39.0838 61.3272 39.0258 60.6338 38.9098C59.825 38.7938 59.2184 38.5038 58.8139 38.0978C58.4095 37.6918 58.1495 37.1117 58.0051 36.3286C57.8895 35.6035 57.8317 34.6464 57.8317 33.4862V23.2482H63.407V16.6064H57.8317V5.17924H50.119V33.5733C50.119 35.9806 50.3211 38.0107 50.7255 39.6349C51.1299 41.2301 51.8232 42.5352 52.7765 43.5214C53.7298 44.5074 55.0009 45.2036 56.5318 45.6386C58.0917 46.0736 60.0561 46.2767 62.3959 46.2767H63.407ZM107.546 45.9866V2.91699H99.8337V45.9866H107.546ZM42.6949 19.5067C40.5572 17.1866 37.553 16.0264 33.7399 16.0264C31.8911 16.0264 30.1867 16.4035 28.6846 17.1575C27.1536 17.9116 25.8826 18.9557 24.8426 20.2898L24.4383 20.8409V20.3478V16.6064H16.8409V45.9576H24.4961V30.325V31.3981C24.4961 31.2241 24.4961 31.05 24.4961 30.876C24.5826 28.1207 25.2471 26.0905 26.5182 24.7854C27.8758 23.3932 29.5224 22.6971 31.4001 22.6971C33.6244 22.6971 35.3286 23.3932 36.4553 24.7274C37.553 26.0615 38.1308 27.9467 38.1308 30.3539V30.441V45.9576H45.9014V29.3099C45.9303 25.1334 44.8326 21.8271 42.6949 19.5067ZM95.8472 31.253C95.8472 29.1359 95.4717 27.1636 94.7495 25.3074C93.9984 23.4802 92.9585 21.856 91.6586 20.4638C90.3297 19.0718 88.741 17.9986 86.8922 17.2155C85.0435 16.4324 82.9924 16.0555 80.7681 16.0555C78.6594 16.0555 76.6661 16.4615 74.8173 17.2446C72.9686 18.0566 71.351 19.1298 69.9933 20.4929C68.6355 21.856 67.5378 23.4802 66.7579 25.3365C65.9491 27.1926 65.5735 29.1939 65.5735 31.311C65.5735 33.4282 65.9491 35.4295 66.7001 37.2857C67.4512 39.142 68.52 40.7661 69.8488 42.1292C71.1776 43.4923 72.8242 44.5945 74.7307 45.3776C76.6373 46.1897 78.746 46.5957 80.9993 46.5957C87.5276 46.5957 91.5719 43.6083 93.9984 40.8241L88.4521 36.5896C87.2966 37.9818 84.5235 39.867 81.057 39.867C78.8905 39.867 77.0994 39.374 75.7417 38.3589C74.3841 37.3727 73.4596 35.9806 72.9686 34.2693L72.8819 34.0084H95.8472V31.253ZM72.9397 28.5557C72.9397 26.4095 75.3952 22.6681 80.6815 22.6391C85.9678 22.6391 88.4521 26.3805 88.4521 28.5268L72.9397 28.5557ZM116.328 42.2743C116.184 41.9262 115.982 41.6362 115.722 41.3751C115.462 41.1141 115.173 40.9111 114.826 40.7661C114.479 40.6211 114.104 40.534 113.728 40.534C113.324 40.534 112.977 40.6211 112.631 40.7661C112.284 40.9111 111.995 41.1141 111.735 41.3751C111.475 41.6362 111.273 41.9262 111.128 42.2743C110.984 42.6223 110.897 42.9994 110.897 43.3763C110.897 43.7825 110.984 44.1305 111.128 44.4785C111.273 44.8265 111.475 45.1165 111.735 45.3776C111.995 45.6386 112.284 45.8416 112.631 45.9866C112.977 46.1317 113.353 46.2187 113.728 46.2187C114.133 46.2187 114.479 46.1317 114.826 45.9866C115.173 45.8416 115.462 45.6386 115.722 45.3776C115.982 45.1165 116.184 44.8265 116.328 44.4785C116.473 44.1305 116.559 43.7534 116.559 43.3763C116.559 42.9994 116.473 42.6223 116.328 42.2743ZM115.866 44.3045C115.75 44.5945 115.577 44.8555 115.375 45.0585C115.173 45.2616 114.913 45.4356 114.624 45.5516C114.335 45.6676 114.046 45.7256 113.699 45.7256C113.382 45.7256 113.064 45.6676 112.775 45.5516C112.486 45.4356 112.226 45.2616 112.024 45.0585C111.822 44.8555 111.648 44.5945 111.533 44.3045C111.417 44.0145 111.36 43.7243 111.36 43.3763C111.36 43.0574 111.417 42.7383 111.533 42.4483C111.648 42.1582 111.822 41.8972 112.024 41.6942C112.226 41.4912 112.486 41.3171 112.775 41.2011C113.064 41.0851 113.353 41.0271 113.699 41.0271C114.017 41.0271 114.335 41.0851 114.624 41.2011C114.913 41.3171 115.173 41.4912 115.375 41.6942C115.577 41.8972 115.75 42.1582 115.866 42.4483C115.982 42.7383 116.039 43.0283 116.039 43.3763C116.039 43.7243 115.982 44.0145 115.866 44.3045ZM114.248 43.6374C114.479 43.6083 114.653 43.5214 114.797 43.3763C114.942 43.2314 115.028 43.0283 115.028 42.7383C115.028 42.4192 114.942 42.1872 114.739 42.0132C114.566 41.8392 114.248 41.7522 113.873 41.7522H112.602V45.0296H113.208V43.6954H113.642L114.45 45.0296H115.086L114.248 43.6374ZM113.93 43.1443C113.844 43.1443 113.757 43.1443 113.642 43.1443H113.208V42.2163H113.642C113.728 42.2163 113.815 42.2163 113.93 42.2163C114.017 42.2163 114.104 42.2452 114.19 42.2743C114.277 42.3032 114.335 42.3612 114.364 42.4192C114.422 42.4772 114.422 42.5643 114.422 42.6803C114.422 42.7963 114.393 42.8832 114.364 42.9412C114.306 42.9994 114.248 43.0574 114.19 43.0863C114.104 43.1154 114.017 43.1443 113.93 43.1443Z" fill="#00C7FD"/>
<path d="M12.5412 3.52441H4.42395V11.6743H12.5412V3.52441Z" fill="#00C7FD"/>
</g>
</g>
<defs>
<clipPath id="clip0_72_715">
<rect width="119.38" height="48.2343" fill="white" transform="translate(0.796875 0.98584)"/>
</clipPath>
<clipPath id="clip1_72_715">
<rect width="119.38" height="48.2343" fill="white" transform="translate(0.796875 0.98584)"/>
</clipPath>
</defs>
</svg>
