<svg width="50" height="50" viewBox="0 0 50 50" fill="none" xmlns="http://www.w3.org/2000/svg">
<path fill-rule="evenodd" clip-rule="evenodd" d="M43.7497 37.5001C44.3022 37.5001 44.8321 37.7196 45.2228 38.1103C45.6135 38.501 45.833 39.0309 45.833 39.5834C45.833 40.1359 45.6135 40.6659 45.2228 41.0566C44.8321 41.4473 44.3022 41.6667 43.7497 41.6667H4.16635C3.61382 41.6667 3.08392 41.4473 2.69321 41.0566C2.30251 40.6659 2.08302 40.1359 2.08302 39.5834C2.08302 39.0309 2.30251 38.501 2.69321 38.1103C3.08392 37.7196 3.61382 37.5001 4.16635 37.5001H43.7497ZM24.9997 10.4167C31.7164 10.4167 37.3789 12.6563 41.3913 15.8105C45.3309 18.9063 47.9164 23.0938 47.9164 27.0834C47.9164 28.8376 47.3789 30.3334 46.4309 31.5417C45.508 32.7209 44.2768 33.5209 43.0226 34.0709C40.5518 35.1501 37.6122 35.4167 35.4164 35.4167H6.23719C5.69068 35.4165 5.14959 35.3084 4.64489 35.0988C4.14019 34.8891 3.68179 34.582 3.29593 34.195C2.91007 33.808 2.60433 33.3487 2.3962 32.8433C2.18808 32.338 2.08165 31.7966 2.08302 31.2501V14.5834C2.08302 12.2897 3.93719 10.4167 6.24552 10.4167H24.9997ZM14.583 14.5834H6.24969V20.8334H14.583V14.5834ZM24.9997 14.5834H18.7497V20.8334H27.083V14.6667C26.6241 14.6296 26.1642 14.6053 25.7039 14.5938L24.9997 14.5834ZM31.2497 15.3813V20.8334H40.7309C40.1378 20.2032 39.4978 19.6189 38.8164 19.0855C36.8122 17.5105 34.2539 16.1792 31.2497 15.3813Z" fill="#FFBC0F"/>
</svg>
