<svg width="50" height="50" viewBox="0 0 50 50" fill="none" xmlns="http://www.w3.org/2000/svg">
<path d="M2.08301 12.5V35.4167H4.16634C4.16634 36.5217 4.60533 37.5815 5.38673 38.3629C6.16813 39.1443 7.22794 39.5833 8.33301 39.5833C9.43808 39.5833 10.4979 39.1443 11.2793 38.3629C12.0607 37.5815 12.4997 36.5217 12.4997 35.4167H37.4997C37.4997 36.5217 37.9387 37.5815 38.7201 38.3629C39.5015 39.1443 40.5613 39.5833 41.6663 39.5833C42.7714 39.5833 43.8312 39.1443 44.6126 38.3629C45.394 37.5815 45.833 36.5217 45.833 35.4167H47.9163V12.5H2.08301ZM43.7497 31.25H39.583V18.75H35.4163V31.25H31.2497V18.75H27.083V31.25H22.9163V18.75H18.7497V31.25H14.583V18.75H10.4163V31.25H6.24967V16.6667H43.7497V31.25Z" fill="#FFBC0F"/>
</svg>
