<svg width="50" height="50" viewBox="0 0 50 50" fill="none" xmlns="http://www.w3.org/2000/svg">
<g clip-path="url(#clip0_82_8004)">
<path d="M45.6208 3.21792C46.1302 3.21792 46.4888 3.31255 46.6755 3.38442C46.8997 3.9813 47.2006 6.12031 44.9896 8.33281L33.7107 19.6109L33.7919 21.0102C33.963 23.9383 34.2802 29.1859 34.5536 33.6843C34.795 37.6882 35.024 41.4695 35.0388 41.7914C35.0466 42.0125 35.0498 42.0648 34.8435 42.3133C34.3826 42.8734 33.5224 43.8227 32.7974 44.6094C31.6732 41.5805 29.3107 35.1828 28.006 31.6016L26.3295 26.9937L22.8615 30.4617L16.4842 36.5938L15.5959 37.4805L15.5685 38.7344C15.5474 39.7352 15.5521 41.5312 15.5545 43.1148C15.5576 44.218 15.5608 45.2203 15.5529 45.7727C15.5389 45.7984 15.7662 45.8289 15.7451 45.8656C15.6092 45.6477 15.4631 45.4125 15.3084 45.168C14.0225 43.1172 12.2428 40.2805 11.6998 39.3953L11.3029 38.7469L10.6514 38.3531C8.28186 36.9219 5.65686 35.2695 4.05529 34.2375C4.11076 34.2055 4.15602 34.375 4.19274 34.3554H4.29665C4.80056 34.3554 5.63337 34.3664 6.56696 34.3796C7.78806 34.396 9.17321 34.4164 10.2334 34.4164C10.6396 34.4164 11.0006 34.4132 11.2912 34.407L12.5451 34.3781L13.4318 33.4914L19.5717 27.1578L23.0279 23.7031L18.4412 22.0156C14.9944 20.7477 8.39201 18.282 5.30373 17.1218C6.09587 16.3921 7.05056 15.5257 7.60759 15.0647C7.76306 14.9366 7.8842 14.871 7.96774 14.871L8.0779 14.8742C8.42243 14.8906 12.7013 15.1703 16.838 15.4406C21.2294 15.7273 26.1857 16.0507 29.0036 16.2296L30.4122 16.3179L41.6926 5.03667C43.277 3.45464 44.8333 3.21792 45.6208 3.21792ZM45.6209 0.0930664C43.7748 0.0930664 41.5085 0.802344 39.4842 2.82734L29.2007 13.1102C23.4085 12.7438 8.57409 11.7625 8.20612 11.7523C8.12676 11.7483 8.04731 11.7462 7.96784 11.746C7.46706 11.746 6.60222 11.8421 5.61784 12.6554C4.46237 13.6109 2.053 15.8766 2.053 15.8766C1.47175 16.4594 1.17722 17.1812 1.24753 17.8602C1.2905 18.2703 1.51315 19.018 2.52019 19.4118C3.1319 19.6516 12.8671 23.2938 17.3624 24.9477L11.2226 31.2813C10.9507 31.2875 10.6139 31.2907 10.2335 31.2907C8.36159 31.2907 5.45925 31.2297 4.29592 31.2297C4.14201 31.2297 4.01857 31.2297 3.93103 31.2329C3.57712 31.2438 2.84431 31.0696 0.911494 32.6852L0.773994 32.8133C0.194307 33.393 0.058369 33.9711 0.045869 34.3532C0.033369 34.7469 0.138838 35.3141 0.708369 35.7704C1.05056 36.0469 5.43727 38.8555 9.03488 41.0282C9.89743 42.4353 13.8662 48.743 14.0732 49.0852C14.3756 49.5961 14.8701 49.8875 15.4615 49.9063H15.5108C16.0858 49.9063 16.6764 49.6211 17.2545 49.0594C18.8904 47.1461 18.6647 46.354 18.6716 46.0211C18.6974 44.9774 18.6537 40.5555 18.6912 38.8024L25.0677 32.6696C26.6974 37.1461 30.2599 46.7813 30.4982 47.3945C30.8951 48.4016 31.6427 48.6227 32.0529 48.6641C32.1201 48.6719 32.1889 48.675 32.256 48.675C32.8725 48.675 33.5115 48.3852 34.0349 47.8618C34.0349 47.8618 36.2935 45.4649 37.2529 44.2985C38.2138 43.1329 38.1764 42.1376 38.1576 41.6681C38.1498 41.3431 37.2451 26.5892 36.9092 20.8274L47.1951 10.5415C50.8404 6.89453 50.2608 2.50005 48.9069 1.14849C48.3092 0.547705 47.099 0.0931152 45.6209 0.0930664Z" fill="#FFBC0F"/>
</g>
<defs>
<clipPath id="clip0_82_8004">
<rect width="50" height="50" fill="white"/>
</clipPath>
</defs>
</svg>
