<svg width="50" height="50" viewBox="0 0 50 50" fill="none" xmlns="http://www.w3.org/2000/svg">
<g clip-path="url(#clip0_82_7987)">
<path fill-rule="evenodd" clip-rule="evenodd" d="M29.6062 37.0333C30.6892 36.4918 31.8773 36.1929 33.0876 36.1572C34.2979 36.1216 35.5015 36.3502 36.6145 36.827L37.0603 37.0354L42.5978 39.802C43.0735 40.0395 43.4404 40.4499 43.6233 40.9491C43.8063 41.4483 43.7914 41.9985 43.5819 42.4871C43.3723 42.9757 42.9839 43.3658 42.4961 43.5773C42.0084 43.7888 41.4582 43.8059 40.9583 43.625L40.7353 43.5291L35.1958 40.7604C34.6763 40.5007 34.1083 40.3524 33.5281 40.3251C32.948 40.2979 32.3686 40.3922 31.827 40.602L31.4687 40.7604L28.727 42.1333C27.6435 42.6748 26.4551 42.9735 25.2443 43.0088C24.0336 43.044 22.8297 42.815 21.7166 42.3375L21.2729 42.1333L18.5291 40.7604C18.0096 40.5007 17.4416 40.3524 16.8615 40.3251C16.2813 40.2979 15.7019 40.3922 15.1603 40.602L14.802 40.7604L9.26451 43.5312C8.78879 43.7718 8.23895 43.8208 7.72815 43.6683C7.21735 43.5157 6.78447 43.1732 6.5186 42.7111C6.25274 42.249 6.17411 41.7026 6.29892 41.1843C6.42372 40.6661 6.74245 40.2153 7.18951 39.925L7.40201 39.802L12.9395 37.0333C14.0226 36.4918 15.2106 36.1929 16.4209 36.1572C17.6313 36.1216 18.8348 36.3502 19.9478 36.827L20.3937 37.0354L23.1353 38.4062C23.6551 38.6662 24.2235 38.8146 24.804 38.8419C25.3845 38.8692 25.9643 38.7747 26.5062 38.5645L26.8624 38.4062L29.6062 37.0333ZM27.0833 4.16663C27.6358 4.16663 28.1657 4.38612 28.5564 4.77682C28.9471 5.16752 29.1666 5.69743 29.1666 6.24996V8.99996L36.102 10.1541C37.0745 10.3168 37.9578 10.8191 38.5949 11.5718C39.2319 12.3244 39.5814 13.2785 39.5812 14.2645V21.4145L43.8728 22.8437C44.2146 22.9577 44.5291 23.1415 44.7962 23.3832C45.0634 23.625 45.2774 23.9196 45.4249 24.2484C45.5723 24.5772 45.6499 24.9329 45.6528 25.2933C45.6557 25.6536 45.5838 26.0105 45.4416 26.3416L40.9228 36.8833L37.0603 34.95C35.9031 34.3713 34.6271 34.07 33.3333 34.07C32.0394 34.07 30.7634 34.3713 29.6062 34.95L26.8624 36.3229C26.2838 36.6122 25.6458 36.7628 24.9989 36.7628C24.352 36.7628 23.714 36.6122 23.1353 36.3229L20.3937 34.95C19.2365 34.3713 17.9604 34.07 16.6666 34.07C15.3728 34.07 14.0967 34.3713 12.9395 34.95L10.2937 36.275L4.75618 26.5854C4.56503 26.2509 4.45049 25.8781 4.42082 25.4939C4.39115 25.1098 4.44708 24.7239 4.58459 24.364C4.7221 24.0041 4.93775 23.6791 5.216 23.4126C5.49425 23.1462 5.82817 22.9447 6.19368 22.8229L10.4166 21.4145V14.2645C10.4164 13.2785 10.7659 12.3244 11.4029 11.5718C12.04 10.8191 12.9233 10.3168 13.8958 10.1541L20.8333 8.99996V6.24996C20.8333 5.69743 21.0528 5.16752 21.4435 4.77682C21.8342 4.38612 22.3641 4.16663 22.9166 4.16663H27.0833ZM24.9999 12.5291L14.5833 14.2645V20.027L23.6812 16.9937C24.5365 16.7086 25.4613 16.7086 26.3166 16.9937L35.4166 20.027V14.2645L24.9999 12.5291Z" fill="#FFBC0F"/>
</g>
<defs>
<clipPath id="clip0_82_7987">
<rect width="50" height="50" fill="white"/>
</clipPath>
</defs>
</svg>
