<svg width="50" height="50" viewBox="0 0 50 50" fill="none" xmlns="http://www.w3.org/2000/svg">
<path d="M43.7503 15.6251L35.417 19.7917M35.417 19.7917L34.3753 20.3126L25.0003 25.0001M35.417 19.7917V27.0834M35.417 19.7917L15.6253 9.37508M25.0003 25.0001L6.25033 15.6251M25.0003 25.0001V44.7918M32.4545 7.04591L36.6212 9.23342C41.1024 11.5855 43.3441 12.7605 44.5899 14.8751C45.8337 16.9876 45.8337 19.6188 45.8337 24.8793V25.123C45.8337 30.3813 45.8337 33.0126 44.5899 35.1251C43.3441 37.2397 41.1024 38.4168 36.6212 40.7688L32.4545 42.9543C28.7962 44.873 26.967 45.8334 25.0003 45.8334C23.0337 45.8334 21.2045 44.8751 17.5462 42.9543L13.3795 40.7668C8.89824 38.4147 6.65658 37.2397 5.41074 35.1251C4.16699 33.0126 4.16699 30.3813 4.16699 25.1251V24.8813C4.16699 19.6209 4.16699 16.9897 5.41074 14.8772C6.65658 12.7626 8.89824 11.5855 13.3795 9.2355L17.5462 7.048C21.2045 5.12716 23.0337 4.16675 25.0003 4.16675C26.967 4.16675 28.7962 5.12508 32.4545 7.04591Z" stroke="#FFBC0F" stroke-width="1.5" stroke-linecap="round"/>
</svg>
