<svg width="50" height="50" viewBox="0 0 50 50" fill="none" xmlns="http://www.w3.org/2000/svg">
<path d="M12.4997 41.6666C10.7636 41.6666 9.28787 41.0589 8.07259 39.8437C6.85731 38.6284 6.24967 37.1527 6.24967 35.4166H2.08301V8.33325H35.4163V16.6666H41.6663L47.9163 24.9999V35.4166H43.7497C43.7497 37.1527 43.142 38.6284 41.9268 39.8437C40.7115 41.0589 39.2358 41.6666 37.4997 41.6666C35.7636 41.6666 34.2879 41.0589 33.0726 39.8437C31.8573 38.6284 31.2497 37.1527 31.2497 35.4166H18.7497C18.7497 37.1527 18.142 38.6284 16.9268 39.8437C15.7115 41.0589 14.2358 41.6666 12.4997 41.6666ZM12.4997 37.4999C13.09 37.4999 13.5851 37.2999 13.9851 36.8999C14.3851 36.4999 14.5844 36.0055 14.583 35.4166C14.583 34.8263 14.383 34.3319 13.983 33.9333C13.583 33.5346 13.0886 33.3346 12.4997 33.3333C11.9094 33.3333 11.415 33.5333 11.0163 33.9333C10.6177 34.3333 10.4177 34.8277 10.4163 35.4166C10.4163 36.0069 10.6163 36.502 11.0163 36.902C11.4163 37.302 11.9108 37.5013 12.4997 37.4999ZM37.4997 37.4999C38.09 37.4999 38.5851 37.2999 38.9851 36.8999C39.3851 36.4999 39.5844 36.0055 39.583 35.4166C39.583 34.8263 39.383 34.3319 38.983 33.9333C38.583 33.5346 38.0886 33.3346 37.4997 33.3333C36.9094 33.3333 36.415 33.5333 36.0163 33.9333C35.6177 34.3333 35.4177 34.8277 35.4163 35.4166C35.4163 36.0069 35.6163 36.502 36.0163 36.902C36.4163 37.302 36.9108 37.5013 37.4997 37.4999ZM35.4163 27.0833H44.2705L39.583 20.8333H35.4163V27.0833Z" fill="#FFBC0F"/>
</svg>
