<svg width="120" height="48" viewBox="0 0 120 48" fill="none" xmlns="http://www.w3.org/2000/svg">
<path d="M42.5271 31.7548H46.0916V25.6442H47.6414L51.4274 31.7548H55.2354L51.051 25.0243C52.9108 24.4708 54.3056 23.2088 54.3056 20.8177V20.7292C54.3056 17.4525 51.9366 15.9248 48.1949 15.9248H42.5271V31.7548ZM46.0916 23.2088V18.6702H48.1063C49.8333 18.6702 50.8075 19.2237 50.8075 20.8399V20.9284C50.8075 22.4561 49.8997 23.2088 48.1063 23.2088H46.0916Z" fill="#383838"/>
<path d="M61.3537 31.9985C64.5197 31.9985 66.5123 30.6037 66.8886 28.1019H63.8555C63.6562 29.0761 62.9256 29.7181 61.4423 29.7181C59.6932 29.7181 58.6526 28.6111 58.5641 26.685H66.9108V25.7994C66.9108 21.6592 64.254 19.9102 61.2651 19.9102C57.8999 19.9102 55.3094 22.2791 55.3094 25.9322V26.1093C55.3094 29.8067 57.8555 31.9985 61.3537 31.9985ZM58.6083 24.7145C58.8518 23.0761 59.826 22.1242 61.2651 22.1242C62.7928 22.1242 63.6784 22.9654 63.7891 24.7145H58.6083Z" fill="#383838"/>
<path d="M68.4365 31.755H71.6247V14.9287H68.4365V31.755Z" fill="#383838"/>
<path d="M77.7412 31.9985C79.6455 31.9985 80.8185 31.1129 81.4162 29.9395V31.755H84.6045V20.1758H81.4162V26.9727C81.4162 28.6776 80.3535 29.5188 79.0035 29.5188C77.631 29.5188 76.9882 28.7661 76.9882 27.1941V20.1758H73.8004V27.6369C73.8004 30.6701 75.483 31.9985 77.7412 31.9985Z" fill="#383838"/>
<path d="M86.781 31.755H89.9918V24.9138C89.9918 23.3419 90.9878 22.5448 92.2275 22.5448C93.357 22.5448 94.0433 23.209 94.0433 24.6924V31.755H97.2315V24.9138C97.2315 23.3419 98.2275 22.5448 99.4673 22.5448C100.619 22.5448 101.283 23.209 101.283 24.6924V31.755H104.471V24.3382C104.471 21.2607 102.811 19.9102 100.663 19.9102C99.2018 19.9102 97.6965 20.53 96.7665 21.9249C96.213 20.5522 95.0618 19.9102 93.534 19.9102C91.8068 19.9102 90.567 20.8621 89.9918 21.947V20.1758H86.781V31.755Z" fill="#383838"/>
<path d="M111.884 31.9985C115.051 31.9985 117.043 30.6037 117.419 28.1019H114.386C114.187 29.0761 113.456 29.7181 111.973 29.7181C110.224 29.7181 109.183 28.6111 109.095 26.685H117.442V25.7994C117.442 21.6592 114.784 19.9102 111.796 19.9102C108.43 19.9102 105.84 22.2791 105.84 25.9322V26.1093C105.84 29.8067 108.386 31.9985 111.884 31.9985ZM109.139 24.7145C109.383 23.0761 110.357 22.1242 111.796 22.1242C113.323 22.1242 114.209 22.9654 114.32 24.7145H109.139Z" fill="#383838"/>
<path fill-rule="evenodd" clip-rule="evenodd" d="M30.2597 16.872L30.0445 16.4876C29.7669 16.0228 29.3753 15.6365 28.9068 15.3653L18.5902 9.41513C18.123 9.14415 17.5927 9.00098 17.0527 9H16.6068C16.0667 9.00098 15.5365 9.14415 15.0693 9.41513L4.75274 15.3806C4.28684 15.65 3.89983 16.0371 3.63037 16.503L3.41513 16.8874C3.14414 17.3545 3.00096 17.8848 3 18.4248V30.3404C3.00096 30.8805 3.14414 31.4108 3.41513 31.8779L3.63037 32.2623C3.90679 32.7228 4.29224 33.1082 4.75274 33.3847L15.0847 39.3347C15.5495 39.6113 16.0813 39.755 16.6222 39.7499H17.0527C17.5927 39.7489 18.123 39.6057 18.5902 39.3347L28.9068 33.3693C29.3773 33.1059 29.7658 32.7175 30.0291 32.2469L30.2597 31.8626C30.5275 31.394 30.6704 30.8646 30.6748 30.3251V18.4094C30.6739 17.8694 30.5308 17.3391 30.2597 16.872ZM16.6068 12.0749H17.0527L26.0624 17.2717L16.8374 22.5914L7.6125 17.2717L16.6068 12.0749ZM18.3749 35.9063L27.3692 30.7095L27.5998 30.3251V19.9317L18.3749 25.2668V35.9063Z" fill="#383838"/>
</svg>
