<svg width="70" height="70" viewBox="0 0 70 70" fill="none" xmlns="http://www.w3.org/2000/svg">
<path d="M36.6475 18.6621H33.3594C33.0587 18.6621 32.8126 18.9082 32.8126 19.209V38.0283C32.8126 38.2061 32.8946 38.3701 33.0381 38.4727L44.3379 46.7236C44.584 46.9014 44.9258 46.8535 45.1036 46.6074L47.0587 43.9414C47.2432 43.6885 47.1885 43.3467 46.9424 43.1758L37.1944 36.1279V19.209C37.1944 18.9082 36.9483 18.6621 36.6475 18.6621ZM51.6729 23.8027L62.3917 26.4209C62.7335 26.5029 63.0684 26.2432 63.0684 25.8945L63.1231 14.8545C63.1231 14.3965 62.5967 14.1367 62.2413 14.4238L51.4678 22.8389C51.3864 22.9019 51.3244 22.9866 51.289 23.0832C51.2536 23.1799 51.2461 23.2845 51.2675 23.3852C51.289 23.4859 51.3384 23.5785 51.4101 23.6524C51.4818 23.7262 51.5729 23.7784 51.6729 23.8027ZM63.1368 44.3857L59.2608 43.0527C59.1257 43.0064 58.9778 43.0148 58.8487 43.0761C58.7197 43.1375 58.6198 43.2468 58.5704 43.3809C58.4405 43.7295 58.3038 44.0713 58.1602 44.4131C56.9434 47.291 55.2003 49.8818 52.9717 52.1035C50.768 54.3141 48.1562 56.0762 45.2813 57.292C42.3031 58.5512 39.1017 59.1975 35.8682 59.1924C32.6006 59.1924 29.4356 58.5566 26.4551 57.292C23.5802 56.0762 20.9685 54.3141 18.7647 52.1035C16.543 49.8818 14.7999 47.291 13.5762 44.4131C12.324 41.4332 11.6824 38.2323 11.6895 35C11.6895 31.7324 12.3252 28.5606 13.5899 25.5801C14.8067 22.7022 16.5499 20.1113 18.7784 17.8897C20.9821 15.679 23.5939 13.917 26.4688 12.7012C29.4356 11.4365 32.6075 10.8008 35.8751 10.8008C39.1426 10.8008 42.3077 11.4365 45.2881 12.7012C48.1631 13.917 50.7748 15.679 52.9786 17.8897C53.6758 18.5938 54.3321 19.3252 54.9337 20.0977L59.0215 16.8984C53.6417 10.0215 45.2676 5.59864 35.8614 5.60548C19.4825 5.61231 6.33013 18.915 6.49419 35.3008C6.65826 51.3994 19.7491 64.3945 35.8751 64.3945C48.5557 64.3945 59.3565 56.3555 63.4717 45.0967C63.5743 44.8096 63.4239 44.4883 63.1368 44.3857Z" fill="#FFBC0F"/>
</svg>
