<svg width="70" height="70" viewBox="0 0 70 70" fill="none" xmlns="http://www.w3.org/2000/svg">
<path d="M37.1 31.5C35.7 31.15 34.3 30.45 33.25 29.4C32.2 29.05 31.85 28 31.85 27.3C31.85 26.6 32.2 25.55 32.9 25.2C33.95 24.5 35 23.8 36.05 24.15C38.15 24.15 39.9 25.2 40.95 26.6L44.1 22.4C43.05 21.35 42 20.65 40.95 19.95C39.9 19.25 38.5 18.9 37.1 18.9V14H32.9V18.9C31.15 19.25 29.4 20.3 28 21.7C26.6 23.45 25.55 25.55 25.9 27.65C25.9 29.75 26.6 31.85 28 33.25C29.75 35 32.2 36.05 34.3 37.1C35.35 37.45 36.75 38.15 37.8 38.85C38.5 39.55 38.85 40.6 38.85 41.65C38.85 42.7 38.5 43.75 37.8 44.8C36.75 45.85 35.35 46.2 34.3 46.2C32.9 46.2 31.15 45.85 30.1 44.8C29.05 44.1 28 43.05 27.3 42L23.8 45.85C24.85 47.25 25.9 48.3 27.3 49.35C29.05 50.4 31.15 51.45 33.25 51.45V56H37.1V50.75C39.2 50.4 40.95 49.35 42.35 47.95C44.1 46.2 45.15 43.4 45.15 40.95C45.15 38.85 44.45 36.4 42.7 35C40.95 33.25 39.2 32.2 37.1 31.5ZM35 7C19.6 7 7 19.6 7 35C7 50.4 19.6 63 35 63C50.4 63 63 50.4 63 35C63 19.6 50.4 7 35 7ZM35 59.15C21.7 59.15 10.85 48.3 10.85 35C10.85 21.7 21.7 10.85 35 10.85C48.3 10.85 59.15 21.7 59.15 35C59.15 48.3 48.3 59.15 35 59.15Z" fill="#FFBC0F"/>
</svg>
