<svg width="70" height="70" viewBox="0 0 70 70" fill="none" xmlns="http://www.w3.org/2000/svg">
<path d="M30.9163 48.4166L51.4788 27.8541L47.3955 23.7708L30.9163 40.2499L22.6038 31.9374L18.5205 36.0208L30.9163 48.4166ZM34.9997 64.1666C30.965 64.1666 27.1733 63.4005 23.6247 61.8683C20.0761 60.336 16.9893 58.2584 14.3643 55.6353C11.7393 53.0103 9.66162 49.9235 8.13134 46.3749C6.60106 42.8263 5.83495 39.0346 5.83301 34.9999C5.83301 30.9652 6.59912 27.1735 8.13134 23.6249C9.66356 20.0763 11.7412 16.9895 14.3643 14.3645C16.9893 11.7395 20.0761 9.66186 23.6247 8.13159C27.1733 6.60131 30.965 5.8352 34.9997 5.83325C39.0344 5.83325 42.8261 6.59936 46.3747 8.13159C49.9233 9.66381 53.0101 11.7414 55.6351 14.3645C58.2601 16.9895 60.3387 20.0763 61.8709 23.6249C63.4031 27.1735 64.1683 30.9652 64.1663 34.9999C64.1663 39.0346 63.4002 42.8263 61.868 46.3749C60.3358 49.9235 58.2582 53.0103 55.6351 55.6353C53.0101 58.2603 49.9233 60.3389 46.3747 61.8712C42.8261 63.4034 39.0344 64.1685 34.9997 64.1666Z" fill="#FFBC0F"/>
</svg>
