<svg width="70" height="70" viewBox="0 0 70 70" fill="none" xmlns="http://www.w3.org/2000/svg">
<path d="M8.75 61.25V55.4167H14.5833V8.75H43.75V11.6667H55.4167V55.4167H61.25V61.25H49.5833V17.5H43.75V61.25H8.75ZM32.0833 37.9167C32.9097 37.9167 33.6029 37.6367 34.1629 37.0767C34.7229 36.5167 35.0019 35.8244 35 35C35 34.1736 34.72 33.4814 34.16 32.9233C33.6 32.3653 32.9078 32.0853 32.0833 32.0833C31.2569 32.0833 30.5647 32.3633 30.0067 32.9233C29.4486 33.4833 29.1686 34.1756 29.1667 35C29.1667 35.8264 29.4467 36.5196 30.0067 37.0796C30.5667 37.6396 31.2589 37.9186 32.0833 37.9167ZM20.4167 55.4167H37.9167V14.5833H20.4167V55.4167Z" fill="#FFBC0F"/>
</svg>
