<svg width="70" height="70" viewBox="0 0 70 70" fill="none" xmlns="http://www.w3.org/2000/svg">
<path d="M52.5 64.1666C50.0694 64.1666 48.0035 63.3159 46.3021 61.6145C44.6007 59.9131 43.75 57.8471 43.75 55.4166C43.75 55.0763 43.7743 54.7234 43.8229 54.3578C43.8715 53.9923 43.9444 53.6646 44.0417 53.3749L23.4792 41.4166C22.6528 42.1458 21.7292 42.7174 20.7083 43.1316C19.6875 43.5458 18.6181 43.7519 17.5 43.7499C15.0694 43.7499 13.0035 42.8992 11.3021 41.1978C9.60069 39.4964 8.75 37.4305 8.75 34.9999C8.75 32.5694 9.60069 30.5034 11.3021 28.802C13.0035 27.1006 15.0694 26.2499 17.5 26.2499C18.6181 26.2499 19.6875 26.457 20.7083 26.8712C21.7292 27.2853 22.6528 27.856 23.4792 28.5833L44.0417 16.6249C43.9444 16.3333 43.8715 16.0056 43.8229 15.642C43.7743 15.2784 43.75 14.9255 43.75 14.5833C43.75 12.1527 44.6007 10.0867 46.3021 8.38534C48.0035 6.68395 50.0694 5.83325 52.5 5.83325C54.9306 5.83325 56.9965 6.68395 58.6979 8.38534C60.3993 10.0867 61.25 12.1527 61.25 14.5833C61.25 17.0138 60.3993 19.0798 58.6979 20.7812C56.9965 22.4826 54.9306 23.3333 52.5 23.3333C51.3819 23.3333 50.3125 23.1271 49.2917 22.7149C48.2708 22.3027 47.3472 21.731 46.5208 20.9999L25.9583 32.9583C26.0556 33.2499 26.1285 33.5785 26.1771 33.9441C26.2257 34.3096 26.25 34.6616 26.25 34.9999C26.25 35.3402 26.2257 35.6931 26.1771 36.0587C26.1285 36.4242 26.0556 36.7519 25.9583 37.0416L46.5208 48.9999C47.3472 48.2708 48.2708 47.7001 49.2917 47.2878C50.3125 46.8756 51.3819 46.6685 52.5 46.6666C54.9306 46.6666 56.9965 47.5173 58.6979 49.2187C60.3993 50.9201 61.25 52.986 61.25 55.4166C61.25 57.8471 60.3993 59.9131 58.6979 61.6145C56.9965 63.3159 54.9306 64.1666 52.5 64.1666Z" fill="#FFBC0F"/>
</svg>
