<svg width="70" height="70" viewBox="0 0 70 70" fill="none" xmlns="http://www.w3.org/2000/svg">
<path d="M26.25 61.25C23.0417 61.25 20.2951 60.1076 18.0104 57.8229C15.7257 55.5382 14.5833 52.7917 14.5833 49.5833V25.7396C12.8819 25.1076 11.4849 24.0508 10.3921 22.5692C9.29931 21.0875 8.75194 19.3978 8.75 17.5C8.75 15.0694 9.60069 13.0035 11.3021 11.3021C13.0035 9.60069 15.0694 8.75 17.5 8.75C19.9306 8.75 21.9965 9.60069 23.6979 11.3021C25.3993 13.0035 26.25 15.0694 26.25 17.5C26.25 19.3958 25.7036 21.0856 24.6108 22.5692C23.5181 24.0528 22.12 25.1096 20.4167 25.7396V49.5833C20.4167 51.1875 20.9883 52.5613 22.1317 53.7046C23.275 54.8479 24.6478 55.4186 26.25 55.4167C27.8542 55.4167 29.2279 54.846 30.3712 53.7046C31.5146 52.5632 32.0853 51.1894 32.0833 49.5833V20.4167C32.0833 17.2083 33.2257 14.4618 35.5104 12.1771C37.7951 9.89236 40.5417 8.75 43.75 8.75C46.9583 8.75 49.7049 9.89236 51.9896 12.1771C54.2743 14.4618 55.4167 17.2083 55.4167 20.4167V44.2604C57.1181 44.8924 58.5161 45.9501 59.6108 47.4338C60.7056 48.9174 61.2519 50.6061 61.25 52.5C61.25 54.9306 60.3993 56.9965 58.6979 58.6979C56.9965 60.3993 54.9306 61.25 52.5 61.25C50.0694 61.25 48.0035 60.3993 46.3021 58.6979C44.6007 56.9965 43.75 54.9306 43.75 52.5C43.75 50.6042 44.2974 48.9028 45.3921 47.3958C46.4868 45.8889 47.8839 44.8438 49.5833 44.2604V20.4167C49.5833 18.8125 49.0126 17.4397 47.8712 16.2983C46.7299 15.1569 45.3561 14.5853 43.75 14.5833C42.1458 14.5833 40.7731 15.155 39.6317 16.2983C38.4903 17.4417 37.9186 18.8144 37.9167 20.4167V49.5833C37.9167 52.7917 36.7743 55.5382 34.4896 57.8229C32.2049 60.1076 29.4583 61.25 26.25 61.25ZM17.5 20.4167C18.3264 20.4167 19.0196 20.1367 19.5796 19.5767C20.1396 19.0167 20.4186 18.3244 20.4167 17.5C20.4167 16.6736 20.1367 15.9814 19.5767 15.4233C19.0167 14.8653 18.3244 14.5853 17.5 14.5833C16.6736 14.5833 15.9814 14.8633 15.4233 15.4233C14.8653 15.9833 14.5853 16.6756 14.5833 17.5C14.5833 18.3264 14.8633 19.0196 15.4233 19.5796C15.9833 20.1396 16.6756 20.4186 17.5 20.4167ZM52.5 55.4167C53.3264 55.4167 54.0196 55.1367 54.5796 54.5767C55.1396 54.0167 55.4186 53.3244 55.4167 52.5C55.4167 51.6736 55.1367 50.9814 54.5767 50.4233C54.0167 49.8653 53.3244 49.5853 52.5 49.5833C51.6736 49.5833 50.9814 49.8633 50.4233 50.4233C49.8653 50.9833 49.5853 51.6756 49.5833 52.5C49.5833 53.3264 49.8633 54.0196 50.4233 54.5796C50.9833 55.1396 51.6756 55.4186 52.5 55.4167Z" fill="#FFBC0F"/>
</svg>
