<svg width="70" height="70" viewBox="0 0 70 70" fill="none" xmlns="http://www.w3.org/2000/svg">
<path d="M16.187 30.6249C15.6037 30.3819 15.0573 30.1271 14.5479 29.8608C14.0384 29.5944 13.5154 29.2658 12.9787 28.8749L10.8641 29.5312C10.2322 29.7256 9.61189 29.7013 9.00328 29.4583C8.39467 29.2152 7.9212 28.8263 7.58286 28.2916L6.99953 27.2708C6.65925 26.6874 6.53772 26.0555 6.63495 25.3749C6.73217 24.6944 7.04814 24.1353 7.58286 23.6978L9.18703 22.3124C9.08981 21.6805 9.0412 21.0485 9.0412 20.4166C9.0412 19.7846 9.08981 19.1527 9.18703 18.5208L7.58286 17.1353C7.04814 16.6978 6.73217 16.1514 6.63495 15.4962C6.53772 14.8409 6.65925 14.2206 6.99953 13.6353L7.65578 12.5416C7.99606 12.0069 8.45786 11.618 9.0412 11.3749C9.62453 11.1319 10.2322 11.1076 10.8641 11.302L12.9787 11.9583C13.5134 11.5694 14.0365 11.2417 14.5479 10.9753C15.0593 10.7089 15.6056 10.4533 16.187 10.2083L16.6245 8.09367C16.7704 7.41311 17.099 6.86672 17.6104 6.4545C18.1218 6.04228 18.7168 5.8352 19.3954 5.83325H20.562C21.2426 5.83325 21.8386 6.052 22.3499 6.4895C22.8613 6.927 23.189 7.48603 23.3329 8.16659L23.7704 10.2083C24.3537 10.4513 24.9011 10.707 25.4124 10.9753C25.9238 11.2437 26.4459 11.5713 26.9787 11.9583L29.0933 11.302C29.7252 11.1076 30.3455 11.1319 30.9541 11.3749C31.5627 11.618 32.0362 12.0069 32.3745 12.5416L32.9579 13.5624C33.2981 14.1458 33.4197 14.7777 33.3224 15.4583C33.2252 16.1388 32.9093 16.6978 32.3745 17.1353L30.7704 18.5208C30.8676 19.1527 30.9162 19.7846 30.9162 20.4166C30.9162 21.0485 30.8676 21.6805 30.7704 22.3124L32.3745 23.6978C32.9093 24.1353 33.2252 24.6827 33.3224 25.3399C33.4197 25.9971 33.2981 26.6164 32.9579 27.1978L32.3016 28.2916C31.9613 28.8263 31.4995 29.2152 30.9162 29.4583C30.3329 29.7013 29.7252 29.7256 29.0933 29.5312L26.9787 28.8749C26.444 29.2638 25.9219 29.5924 25.4124 29.8608C24.903 30.1291 24.3556 30.3838 23.7704 30.6249L23.3329 32.7395C23.187 33.4201 22.8594 33.9674 22.3499 34.3816C21.8405 34.7958 21.2445 35.0019 20.562 34.9999H19.3954C18.7148 34.9999 18.1198 34.7812 17.6104 34.3437C17.1009 33.9062 16.7723 33.3471 16.6245 32.6666L16.187 30.6249ZM19.9787 26.2499C21.5829 26.2499 22.9566 25.6792 24.0999 24.5378C25.2433 23.3964 25.814 22.0227 25.812 20.4166C25.812 18.8124 25.2413 17.4396 24.0999 16.2983C22.9586 15.1569 21.5848 14.5852 19.9787 14.5833C18.3745 14.5833 17.0018 15.1549 15.8604 16.2983C14.719 17.4416 14.1473 18.8144 14.1454 20.4166C14.1454 22.0208 14.717 23.3945 15.8604 24.5378C17.0037 25.6812 18.3765 26.2519 19.9787 26.2499ZM41.8537 60.9583C41.0273 60.6666 40.2622 60.3137 39.5583 59.8995C38.8544 59.4853 38.1612 59.0119 37.4787 58.4791L34.7079 59.3541C33.8329 59.6458 32.9579 59.6341 32.0829 59.3191C31.2079 59.0041 30.5273 58.4324 30.0412 57.6041L29.2391 56.2187C28.753 55.3923 28.5829 54.5046 28.7287 53.5558C28.8745 52.6069 29.312 51.8174 30.0412 51.1874L32.2287 49.2916C32.1315 48.4166 32.0829 47.5416 32.0829 46.6666C32.0829 45.7916 32.1315 44.9166 32.2287 44.0416L30.0412 42.0728C29.312 41.4409 28.8745 40.6631 28.7287 39.7395C28.5829 38.8159 28.753 37.9409 29.2391 37.1145L30.0412 35.7291C30.5273 34.9027 31.2079 34.331 32.0829 34.0141C32.9579 33.6971 33.8329 33.6855 34.7079 33.9791L37.4787 34.8541C38.1593 34.3194 38.8524 33.8449 39.5583 33.4308C40.2641 33.0166 41.0293 32.6646 41.8537 32.3749L42.5099 29.3853C42.7044 28.4617 43.1545 27.7083 43.8604 27.1249C44.5662 26.5416 45.4043 26.2499 46.3745 26.2499H48.1245C49.0968 26.2499 49.9358 26.5416 50.6416 27.1249C51.3475 27.7083 51.7966 28.4617 51.9891 29.3853L52.6454 32.3749C53.4717 32.6666 54.2379 33.0195 54.9437 33.4337C55.6495 33.8478 56.3418 34.3213 57.0204 34.8541L59.7912 33.9791C60.6662 33.6874 61.5412 33.7001 62.4162 34.017C63.2912 34.3339 63.9718 34.9046 64.4579 35.7291L65.2599 37.1145C65.7461 37.9409 65.9162 38.8285 65.7704 39.7774C65.6245 40.7263 65.187 41.5158 64.4579 42.1458L62.2704 44.0416C62.3676 44.9166 62.4162 45.7916 62.4162 46.6666C62.4162 47.5416 62.3676 48.4166 62.2704 49.2916L64.4579 51.2603C65.187 51.8923 65.6245 52.6701 65.7704 53.5937C65.9162 54.5173 65.7461 55.3923 65.2599 56.2187L64.4579 57.6041C63.9718 58.4305 63.2912 59.0021 62.4162 59.3191C61.5412 59.636 60.6662 59.6477 59.7912 59.3541L57.0204 58.4791C56.3398 59.0138 55.6476 59.4873 54.9437 59.8995C54.2398 60.3117 53.4737 60.6646 52.6454 60.9583L51.9891 63.9478C51.7947 64.8714 51.3455 65.6249 50.6416 66.2083C49.9377 66.7916 49.0987 67.0833 48.1245 67.0833H46.3745C45.4023 67.0833 44.5643 66.7916 43.8604 66.2083C43.1565 65.6249 42.7063 64.8714 42.5099 63.9478L41.8537 60.9583ZM47.2495 55.4166C49.6801 55.4166 51.7461 54.5659 53.4474 52.8645C55.1488 51.1631 55.9995 49.0971 55.9995 46.6666C55.9995 44.236 55.1488 42.1701 53.4474 40.4687C51.7461 38.7673 49.6801 37.9166 47.2495 37.9166C44.819 37.9166 42.753 38.7673 41.0516 40.4687C39.3502 42.1701 38.4995 44.236 38.4995 46.6666C38.4995 49.0971 39.3502 51.1631 41.0516 52.8645C42.753 54.5659 44.819 55.4166 47.2495 55.4166Z" fill="#FFBC0F"/>
</svg>
