<svg width="1400" height="227" viewBox="0 0 1400 227" fill="none" xmlns="http://www.w3.org/2000/svg">
<g opacity="0.3">
<path d="M-18.6748 165.954C77.9262 157.871 146.103 132.161 190.782 109.902C235.963 87.3932 268.503 62.7008 327.962 49.4253C393.543 34.6748 436.393 41.2831 453.341 45.0002C476.839 50.1629 475.379 53.6735 513.818 65.6509C587.659 88.6617 601.687 78.4249 634.772 93.6769C689.63 118.959 673.271 157.325 730.651 199.881C772.203 230.709 840.999 255.239 903.232 238.232C961.835 222.213 968.429 181.988 1030.09 176.28C1055.41 173.934 1076.48 179.141 1118.59 189.555C1172.56 202.831 1208.8 219.204 1223.32 224.956C1266.32 242.023 1335.72 252.761 1449 219.056" stroke="#383838" stroke-width="0.971774" stroke-miterlimit="10"/>
<path d="M-19.3242 178.963C74.1202 171.986 143.979 148.71 192.714 125.64C232.305 106.642 262.499 85.8139 304.11 70.9306C313.211 67.6855 322.799 64.5437 333.124 61.8296C398.189 44.7485 440.877 47.5658 458.695 49.2916C482.591 51.5927 482.591 54.2183 520.264 65.8565C546.815 74.043 565.725 78.7189 580.372 81.787C605.271 86.994 617.735 87.348 637.383 97.3636C644.714 101.07 651.594 105.609 657.886 110.89C686.989 135.302 685.75 166.248 734.028 199.054C776.052 227.611 844.391 249.205 905.562 232.316C910.408 230.975 915.184 229.39 919.87 227.566C967.16 209.143 977.78 176.736 1031.97 171.647C1037.68 171.103 1043.43 170.94 1049.16 171.16C1068.42 171.839 1088.34 176.648 1119.87 184.436C1172.12 197.416 1207.8 213.48 1223.8 219.837C1235.53 224.45 1247.61 228.072 1259.94 230.664C1302.6 239.75 1362.9 240.694 1447.73 217.507" stroke="#383838" stroke-width="0.971774" stroke-miterlimit="10"/>
<path d="M-19.9727 193.125C70.3004 187.225 141.914 166.574 194.647 142.413C236.524 123.237 268.119 101.332 308.963 85.6968C318.286 82.1124 327.947 78.4838 338.317 75.3714C402.865 55.945 445.332 53.5997 464.094 54.7207C488.271 56.1958 489.878 55.9155 526.725 67.1996C552.524 75.1207 571.36 80.4751 585.727 84.2365C609.933 90.535 621.571 91.8035 639.95 102.203C646.953 106.208 653.536 110.907 659.598 116.23C687.712 140.48 689.099 169.568 737.436 199.423C779.932 225.694 847.814 244.353 907.922 227.582C913.011 226.107 917.717 224.632 922.127 222.862C970.907 204.099 981.704 173.197 1033.91 168.285C1039.57 167.727 1045.27 167.545 1050.96 167.739C1070.55 168.314 1090.43 172.99 1121.2 180.705C1171.74 193.331 1206.83 209.129 1224.34 215.944C1235.96 220.515 1247.94 224.146 1260.15 226.8C1302.42 236.093 1362.44 238.055 1446.43 217.168" stroke="#383838" stroke-width="0.971774" stroke-miterlimit="10"/>
<path d="M-20.6064 208.243C66.4953 203.479 139.82 185.262 196.595 160.216C240.699 140.745 273.74 117.838 313.787 101.435C323.346 97.5113 333.096 93.4107 343.48 89.8853C407.512 68.1431 449.684 63.5851 469.464 61.1071C493.935 58.0537 497.136 58.57 533.172 69.5001C558.247 77.1261 577.01 83.1738 591.171 87.6285C614.668 95.0037 625.51 97.2163 642.62 107.984C649.242 112.294 655.489 117.154 661.294 122.513C688.421 146.586 692.521 173.801 740.8 200.691C783.827 224.676 851.192 240.414 910.239 223.746C915.283 222.271 919.959 220.796 924.34 219.07C974.58 199.895 985.599 170.556 1035.78 165.673C1041.41 165.102 1047.06 164.9 1052.71 165.069C1072.63 165.526 1092.54 170.099 1122.5 177.666C1171.29 189.923 1205.82 205.441 1224.82 212.831C1236.38 217.333 1248.26 220.967 1260.36 223.702C1302.25 233.201 1361.99 236.196 1445.12 217.595" stroke="#383838" stroke-width="0.971774" stroke-miterlimit="10"/>
<path d="M-21.2559 223.392C62.6892 219.734 137.696 203.981 198.527 178.035C244.873 158.254 279.345 134.329 318.625 117.189C328.405 112.926 338.229 108.338 348.657 104.415C412.173 80.4009 453.961 72.2291 474.848 67.5385C499.525 61.9923 504.349 61.2695 539.632 71.8456C564.044 79.2209 582.644 85.9176 596.569 91.0213C619.358 99.4586 629.389 102.645 645.245 113.767C651.474 118.371 657.388 123.388 662.946 128.783C689.099 152.649 695.914 178.005 744.148 202.019C787.706 223.702 854.54 236.535 912.539 219.985C917.525 218.51 922.171 217.035 926.538 215.339C978.253 195.765 989.463 168.137 1037.64 163.196C1043.22 162.632 1048.84 162.41 1054.45 162.532C1074.66 162.886 1094.52 167.34 1123.78 174.76C1170.86 186.678 1204.82 201.93 1225.31 209.851C1236.78 214.31 1248.56 217.952 1260.55 220.752C1302.07 230.473 1361.53 234.47 1443.82 218.185" stroke="#383838" stroke-width="0.971774" stroke-miterlimit="10"/>
<path d="M-21.876 233.156C58.9125 230.605 135.615 217.329 200.488 190.483C249.061 170.378 284.979 145.391 323.492 127.572C333.478 122.955 343.405 117.94 353.864 113.574C416.833 87.2886 458.282 75.5767 480.216 68.5702C505.115 60.6344 511.65 58.5546 546.077 68.7915C565.09 74.4651 583.752 81.2523 601.967 89.1177C624.093 98.6023 633.282 102.791 647.841 114.194C654.199 119.194 659.243 124.519 664.701 129.696C689.88 153.297 699.424 176.898 747.569 197.962C791.703 217.329 857.977 227.271 914.914 210.839C919.855 209.364 924.472 207.889 928.809 206.222C982.014 186.294 993.416 160.127 1039.58 155.333C1045.13 154.767 1050.7 154.531 1056.27 154.625C1076.8 154.905 1096.63 159.197 1125.09 166.425C1170.45 177.96 1203.85 192.976 1225.81 201.428C1237.21 205.839 1248.9 209.486 1260.78 212.343C1301.92 222.285 1361.09 227.315 1442.54 213.317" stroke="#383838" stroke-width="0.971774" stroke-miterlimit="10"/>
<path d="M-22.5537 240.119C55.0634 238.644 133.462 227.832 202.391 200.116C253.192 179.686 290.526 153.607 328.302 135.213C338.509 130.228 348.51 124.77 359.012 119.991C421.51 91.478 462.635 76.2407 485.601 66.8889C510.677 56.6373 518.908 53.1267 552.539 63.0095C571.383 68.5479 589.72 75.6835 607.352 84.3388C628.755 94.8411 637.163 100.063 650.453 111.863C656.353 117.07 660.999 122.616 666.413 127.853C690.633 151.306 702.92 172.871 750.948 191.147C795.686 208.169 861.385 215.25 917.26 198.921C922.142 197.446 926.715 195.971 931.052 194.333C985.747 174.096 997.385 149.433 1041.49 144.816C1046.99 144.235 1052.52 143.979 1058.05 144.049C1078.88 144.226 1098.71 148.386 1126.39 155.525C1170.02 166.72 1202.84 181.456 1226.31 190.469C1237.64 194.824 1249.22 198.474 1260.99 201.399C1301.76 211.562 1360.65 217.624 1441.26 205.898" stroke="#383838" stroke-width="0.971774" stroke-miterlimit="10"/>
<path d="M-23.1885 247.184C51.2573 246.845 131.323 238.437 204.338 209.851C257.351 189.082 296.086 161.882 333.125 142.825C343.553 137.441 353.657 131.54 364.189 126.378C426.186 95.6671 467.015 76.9634 490.97 65.163C516.385 52.6546 526.165 47.6689 558.984 57.1978C577.692 62.6782 595.727 70.2383 612.75 79.7365C633.401 91.2272 641.041 97.5404 653.078 109.636C658.476 115.064 662.754 120.787 668.109 126.127C691.385 149.329 706.46 168.977 754.34 184.436C799.698 199.083 864.777 203.316 919.546 187.12C924.384 185.645 928.927 184.17 933.234 182.548C989.419 161.897 1001.19 138.783 1043.35 134.195C1048.8 133.615 1054.29 133.339 1059.78 133.369C1080.93 133.369 1100.73 137.47 1127.63 144.491C1169.55 155.303 1201.78 169.803 1226.75 179.332C1238 183.65 1249.48 187.314 1261.15 190.306C1301.54 200.632 1360.14 207.727 1439.9 198.331" stroke="#383838" stroke-width="0.971774" stroke-miterlimit="10"/>
<path d="M-23.8379 254.28C47.4513 255.047 129.199 249.073 206.27 219.616C261.511 198.508 301.647 170.173 337.962 150.54C348.583 144.802 358.805 138.503 369.351 132.839C430.861 99.9306 471.425 77.7606 496.353 63.5116C522.078 48.7611 533.421 42.2709 565.445 51.4457C584.01 56.8628 601.744 64.8039 618.148 75.0465C638.165 87.5402 644.906 94.9449 655.688 107.335C660.6 113 664.538 118.87 669.819 124.313C692.151 147.28 709.985 164.966 757.717 177.651C803.724 189.879 868.169 191.325 921.92 175.232C926.714 173.757 931.228 172.282 935.505 170.704C993.194 149.743 1005.13 128.104 1045.29 123.605C1050.71 123.023 1056.16 122.728 1061.61 122.72C1083.07 122.587 1102.91 126.6 1129 133.473C1169.18 143.931 1200.85 158.18 1227.31 168.24C1238.48 172.529 1249.86 176.217 1261.42 179.288C1301.44 189.879 1359.76 197.948 1438.67 190.853" stroke="#383838" stroke-width="0.971774" stroke-miterlimit="10"/>
<path d="M-24.4863 261.345C43.6462 263.174 127.105 259.619 208.232 229.307C265.759 207.845 307.208 178.359 342.831 158.18C353.658 152.044 363.983 145.347 374.559 139.27C435.567 104.208 475.88 78.5863 501.767 61.815C527.861 44.8961 540.723 36.8423 571.936 45.6632C590.372 51.0615 607.808 59.421 623.562 70.4145C642.885 83.867 648.786 92.4223 658.314 105.093C662.74 110.993 666.294 116.997 671.59 122.558C693.008 145.273 713.629 160.909 761.185 170.91C807.84 180.689 871.636 179.377 924.34 163.402C929.075 161.927 933.559 160.452 937.822 158.977C997.001 137.692 1009.11 117.528 1047.26 113.147C1052.64 112.534 1058.06 112.219 1063.48 112.203C1085.25 112.055 1105.02 115.846 1130.4 122.528C1168.86 132.632 1199.95 146.63 1227.92 157.221C1238.02 161.056 1249.22 164.847 1261.74 168.24C1301.38 179.037 1359.42 188.138 1437.48 183.33" stroke="#383838" stroke-width="0.971774" stroke-miterlimit="10"/>
<path d="M-25.1348 268.204C39.7674 271.154 124.922 270.033 210.136 238.88C269.816 217.064 312.696 186.398 347.64 165.688C358.659 159.153 369.102 152.073 379.707 145.553C440.273 108.338 480.365 79.2794 507.108 60.0004C533.57 40.8248 547.937 31.2959 578.352 39.7627C596.681 45.1473 613.841 53.9123 628.947 65.6056C647.606 80.0316 652.548 89.7522 660.911 102.674C664.849 108.81 668.05 114.961 673.228 120.625C693.731 143.061 717.125 156.734 764.489 163.992C811.853 171.249 874.956 167.237 926.597 151.38C931.288 149.905 935.742 148.43 939.976 146.955C1000.66 125.345 1012.95 106.656 1049.13 102.379C1054.46 101.756 1059.82 101.426 1065.19 101.39C1087.32 101.11 1107.03 104.798 1131.57 111.391C1168.31 121.127 1198.82 134.889 1228.29 145.996C1238.35 149.802 1249.46 153.578 1261.83 157.044C1301.08 168.048 1358.85 178.167 1436.06 175.674" stroke="#383838" stroke-width="0.971774" stroke-miterlimit="10"/>
<path d="M-25.7695 274.975C36.0203 279.061 122.783 280.315 212.082 248.336C274.034 226.21 318.197 194.29 352.463 173.108C363.688 166.161 374.249 158.712 384.914 151.749C445.007 112.366 484.893 79.9144 512.476 58.0394C539.366 36.7691 555.253 25.5882 584.754 33.7158C604.342 39.1145 622.132 50.2806 634.301 60.6502C652.311 76.0203 656.426 86.9356 663.492 100.108C666.914 106.48 669.776 112.779 674.879 118.561C694.483 140.687 720.606 152.325 767.807 156.912C815.791 161.617 878.289 154.95 928.868 139.211C933.5 137.736 937.925 136.261 942.144 134.786C1004.32 112.838 1016.77 95.6237 1050.91 91.4641C1056.21 90.8318 1061.53 90.4822 1066.86 90.4168C1089.27 89.989 1108.97 93.5881 1132.82 100.049C1167.84 109.43 1197.73 122.942 1228.7 134.58C1238.72 138.341 1249.74 142.132 1261.95 145.643C1300.83 156.868 1358.31 168.004 1434.68 167.768" stroke="#383838" stroke-width="0.971774" stroke-miterlimit="10"/>
<path d="M-26.4189 281.657C32.2143 286.863 120.585 290.33 214.014 257.687C278.076 235.03 323.684 202.078 357.301 180.379C368.703 173.004 379.426 165.201 390.061 157.796C449.742 116.333 489.436 80.371 517.86 56.0179C545.192 32.5941 562.436 19.8496 591.258 27.6084C610.154 32.7416 627.854 44.4977 639.743 55.6344C657.105 71.9485 660.232 84.0439 666.147 97.4816C669.097 104.09 671.589 110.506 676.634 116.407C695.338 138.296 724.234 147.796 771.259 149.846C819.935 151.955 881.755 142.677 931.272 127.042C935.864 125.576 940.255 124.101 944.444 122.616C1008.14 100.373 1020.75 84.6044 1052.89 80.5628C1058.14 79.9135 1063.42 79.5442 1068.7 79.4565C1091.42 78.9107 1111.12 82.4066 1134.21 88.7198C1167.49 97.7324 1196.83 111.067 1229.32 123.177C1239.29 126.924 1250.21 130.685 1262.29 134.255C1300.79 145.701 1357.99 157.855 1433.51 159.95" stroke="#383838" stroke-width="0.971774" stroke-miterlimit="10"/>
<path d="M-27.0674 288.236C28.3945 294.535 118.461 300.435 215.947 266.937C282.236 243.94 329.187 209.719 362.139 187.593C373.718 179.82 384.56 171.633 395.239 163.786C454.492 120.213 494.068 80.7997 523.23 53.88C551.034 28.2879 569.694 13.9209 597.646 21.3404C615.863 26.1933 633.49 38.5542 645.069 50.4874C661.81 67.7455 663.949 81.0505 668.669 94.739C671.059 101.598 673.286 108.147 678.243 114.151C696.164 135.745 727.819 144.596 774.652 142.604C823.889 140.51 885.163 130.229 933.633 114.711C938.176 113.246 942.532 111.771 946.702 110.286C1011.93 87.8357 1024.67 73.4097 1054.81 69.4861C1060.02 68.8315 1065.25 68.4475 1070.5 68.3355C1093.53 67.6865 1113.28 71.0496 1135.52 77.1858C1167.02 85.9182 1195.84 99.0904 1229.82 111.643C1239.75 115.36 1250.58 119.122 1262.5 122.75C1300.63 134.418 1357.55 147.59 1432.21 151.986" stroke="#383838" stroke-width="0.971774" stroke-miterlimit="10"/>
<path d="M-27.7754 294.741C24.5299 302.116 116.278 310.48 217.82 276.111C286.337 252.775 334.541 217.301 366.904 194.673C378.704 186.472 389.664 177.946 400.343 169.597C459.198 123.871 498.552 81.0943 528.554 51.5932C556.89 23.8623 576.995 7.9612 604.166 15.0119C621.689 19.5846 639.242 32.5356 650.526 45.2653C666.649 63.4379 667.755 77.9524 671.369 91.8769C673.227 98.9866 675.16 105.654 680.042 111.79C697.005 133.09 731.285 138.341 778.03 135.273C827.916 132.043 888.54 117.69 935.948 102.291C940.374 100.816 944.799 99.3406 948.914 97.8656C1015.63 75.076 1028.57 62.1103 1056.7 58.3195C1061.86 57.647 1067.05 57.2433 1072.26 57.1099C1095.59 56.3429 1115.27 59.6028 1136.81 65.621C1166.65 73.9255 1194.83 86.7732 1230.31 99.9307C1240.21 103.618 1250.96 107.306 1262.76 111.067C1300.51 122.868 1357.16 137.131 1430.92 143.828" stroke="#383838" stroke-width="0.971774" stroke-miterlimit="10"/>
<path d="M-28.3516 301.172C20.7824 309.683 114.197 320.451 219.826 285.226C290.628 261.552 340.042 224.749 371.756 201.724C383.674 193.08 394.855 184.23 405.534 175.468C464.079 127.794 503.183 81.3595 533.864 49.3214C562.657 19.3631 584.089 1.92802 610.566 8.65426C627.397 12.9467 644.906 26.4876 655.88 39.9991C671.397 59.1748 671.442 74.8103 673.949 89.0003C675.233 96.3756 676.899 103.146 681.693 109.4C697.801 130.405 734.795 133.414 781.362 127.912C831.853 122.012 891.903 105.123 938.234 89.8263C942.659 88.3513 946.981 86.8762 951.096 85.5192C1019.32 62.3904 1032.4 50.8407 1058.54 47.1678C1063.7 46.505 1068.89 46.1111 1074.09 45.9878C1095.73 45.1729 1117.35 47.9135 1138.1 54.1006C1166.22 62.0511 1193.83 74.6481 1230.81 88.3365C1240.66 91.9799 1251.31 95.7118 1262.92 99.4879C1317.19 116.854 1373 129.01 1429.57 135.789" stroke="#383838" stroke-width="0.971774" stroke-miterlimit="10"/>
<path d="M-29 307.559C16.9773 317.177 112.074 330.378 221.759 294.284C294.729 270.27 345.456 232.228 376.639 208.731C515.043 104.341 558.852 -12.2467 617.072 2.22352C633.209 6.23566 650.674 20.3667 661.323 34.6747C684.069 65.2082 669.731 88.3665 683.449 106.952C717.08 152.531 868.361 101.627 953.383 73.026C1036.28 45.1328 1039.35 36.1497 1075.81 34.6747C1139.46 32.0638 1172.55 57.6265 1263.14 87.7765C1317.01 105.617 1372.27 118.938 1428.35 127.603" stroke="#383838" stroke-width="0.971774" stroke-miterlimit="10"/>
<path d="M-29 311.777C18.2016 322.294 110.348 334.346 215.209 299.8C287.59 275.889 336.163 237.479 369.632 212.772C503.331 114.194 545.03 7.42998 604.342 16.9588C627.515 20.6759 651.042 28.125 666.575 39.5419C697.093 61.9921 685.75 82.0676 703.451 100.019C742.2 139.344 883.304 95.1955 964.254 68.9544C1043.11 43.3032 1046.3 36.046 1084.84 37.521C1148.89 39.9696 1180.47 62.5969 1265.81 91.5374C1319.06 109.584 1373.89 122.577 1429.57 130.346" stroke="#383838" stroke-width="0.971774" stroke-miterlimit="10"/>
<path d="M-29 316.174C49.7179 334.294 131.888 330.597 208.66 305.479C280.451 281.687 326.782 242.878 362.626 216.976C491.442 123.96 531.77 25.4262 591.627 31.8574C621.999 35.132 650.556 35.958 671.826 44.5871C708.318 59.3376 701.209 75.7107 723.452 93.2638C765.949 126.762 898.246 88.9271 975.14 65.046C1049.82 41.637 1053.14 35.958 1093.88 40.5307C1158.16 47.7289 1188.39 67.8782 1268.48 95.4764C1321.1 113.716 1375.48 126.383 1430.74 133.267" stroke="#383838" stroke-width="0.971774" stroke-miterlimit="10"/>
<path d="M-29 323.991C47.4257 342.329 127.444 339.071 202.126 314.58C273.312 290.891 317.416 251.684 355.619 224.602C479.288 136.955 518.937 57.0659 578.898 50.1774C616.408 45.8702 649.582 47.6403 677.092 53.039C718.659 61.1812 716.24 72.7899 743.469 89.9153C788.547 118.266 913.218 86.2276 986.012 64.5591C1056.64 43.5396 1059.93 39.1587 1102.91 46.947C1167.4 58.6294 1196.29 76.5513 1271.17 102.822C1323.15 121.277 1377.11 133.623 1431.95 139.61" stroke="#383838" stroke-width="0.971774" stroke-miterlimit="10"/>
<path d="M-29 335.894C45.1277 354.439 122.993 351.606 195.576 327.722C266.172 304.121 308.034 264.516 348.613 236.269C467.045 153.828 506.281 81.5655 566.183 72.5381C610.685 65.8414 649.98 55.6046 682.343 65.5316C726.875 79.1906 728.541 80.1347 763.471 90.6075C805.495 122.483 928.175 87.5247 996.897 68.113C1063.42 49.3798 1066.7 46.2822 1111.95 57.4189C1176.6 73.3347 1204.19 89.3242 1273.84 114.208C1325.2 132.873 1378.73 144.894 1433.14 149.978" stroke="#383838" stroke-width="0.971774" stroke-miterlimit="10"/>
<path d="M-29 348.079C42.8263 366.844 118.542 364.477 189.057 341.264C259.063 317.781 298.668 277.733 341.636 248.336C454.713 170.954 493.507 105.654 553.394 95.299C605.021 86.3897 647.974 72.2587 687.624 78.4392C738.749 86.4045 743.277 83.2774 783.502 91.7147C827.591 120.08 943.117 89.1038 1007.71 72.067C1070.13 55.6202 1073.41 53.6583 1120.92 68.2908C1185.82 88.2335 1212 102.527 1276.45 125.995C1327.18 144.871 1380.31 156.568 1434.28 160.747" stroke="#383838" stroke-width="0.971774" stroke-miterlimit="10"/>
<path d="M-29 360.499C40.5083 379.446 114.055 377.522 182.478 354.967C251.894 331.588 289.213 291.098 334.6 260.564C442.278 188.124 480.63 129.432 540.738 118.222C599.342 107.291 646.735 98.3232 692.845 91.4937C749.782 83.0564 757.954 86.5522 803.474 92.9687C849.702 117.912 958.059 90.9037 1018.65 76.1826C1076.98 62.0221 1080.25 61.1076 1130.02 79.3245C1195.04 103.132 1219.92 115.95 1279.12 137.958C1329.23 157.037 1381.95 168.411 1435.47 171.692" stroke="#383838" stroke-width="0.971774" stroke-miterlimit="10"/>
<path d="M-29 373.081C25.9161 388.967 100.067 394.322 175.943 368.847C244.814 345.719 279.787 304.609 327.593 272.969C429.77 205.353 467.723 153.047 528.008 141.321C593.737 128.547 646.012 116.053 698.111 104.725C760.506 91.1395 774.076 81.6549 823.49 94.3994C874.689 107.601 973.002 92.9243 1029.53 80.4749C1083.75 68.586 1087.05 68.6745 1139.05 90.52C1204.39 118.059 1227.79 129.579 1281.86 150.083C1315.48 162.827 1366.19 179.495 1436.74 182.799" stroke="#383838" stroke-width="0.971774" stroke-miterlimit="10"/>
<path d="M-29 385.884C27.1994 402.641 98.3411 406.874 169.394 382.934C237.674 359.923 270.332 318.283 320.587 285.581C417.188 222.699 454.595 176.633 515.293 164.627C588.161 150.201 645.422 134.078 703.362 118.162C771.377 99.4735 788.355 85.254 843.492 96.0366C896.048 106.362 987.929 95.0336 1040.41 84.9737C1090.56 75.3564 1093.99 76.2414 1148.09 101.937C1213.76 133.105 1235.62 143.474 1284.53 162.414C1317.66 175.247 1367.62 191.915 1437.94 194.128" stroke="#383838" stroke-width="0.971774" stroke-miterlimit="10"/>
<path d="M-29 398.835C28.527 416.536 96.6153 419.574 162.845 397.183C230.535 374.29 260.847 332.104 313.58 298.355C404.561 240.12 441.467 200.234 502.564 188.095C582.644 172.179 644.906 152.31 708.614 131.762C782.366 107.985 802.648 89.3546 863.494 97.8362C917.481 105.359 1002.86 97.3789 1051.28 89.6349C1097.27 82.2596 1100.92 83.956 1157.12 113.516C1223.2 148.253 1243.44 157.576 1287.2 174.908C1319.86 187.844 1369.04 204.571 1439.13 205.603" stroke="#383838" stroke-width="0.971774" stroke-miterlimit="10"/>
<path d="M-29 411.978C29.7512 430.519 94.9042 432.452 156.296 411.609C223.396 388.82 251.333 346.043 306.574 311.306C391.876 257.643 427.277 216.74 489.849 211.74C578.558 204.645 644.434 170.733 713.865 145.539C793.414 116.687 820.068 79.1622 883.495 99.8129C936.479 117.115 1017.73 99.8129 1062.17 94.4732C1104.03 89.3843 1107.89 91.7886 1166.16 125.258C1232.7 163.506 1251.23 171.913 1289.87 187.578C1322.04 200.633 1370.47 217.375 1440.33 217.271" stroke="#383838" stroke-width="0.971774" stroke-miterlimit="10"/>
<path d="M-29 425.549C31.0345 444.99 93.1784 445.727 149.761 426.552C216.257 403.865 241.79 360.44 299.567 324.773C379.22 275.61 414.135 241.92 477.119 235.901C572.998 226.712 644.021 189.688 719.131 159.833C804.536 125.907 833.255 85.9181 903.512 102.306C959.239 115.316 1032.7 102.866 1073.04 99.8278C1110.79 96.981 1114.99 100.079 1175.19 137.53C1242.26 179.245 1259.01 186.812 1292.56 200.766C1324.23 213.953 1371.9 230.68 1441.54 229.441" stroke="#383838" stroke-width="0.971774" stroke-miterlimit="10"/>
<path d="M-29 439.975C32.3031 460.316 91.4379 459.917 143.212 442.187C209.117 419.604 232.202 375.471 292.561 338.934C366.402 294.225 400.977 267.792 464.404 260.756C567.481 249.324 643.638 209.35 724.382 174.834C815.717 135.79 846.811 94.1784 923.514 105.507C981.837 114.121 1047.59 106.539 1083.93 105.876C1117.53 105.256 1122.11 109.032 1184.23 150.496C1251.86 195.647 1266.83 202.462 1295.23 214.661C1326.39 228.025 1373.4 244.693 1442.73 242.318" stroke="#383838" stroke-width="0.971774" stroke-miterlimit="10"/>
<path d="M-29 454.651C33.5864 475.892 89.712 474.328 136.663 458.162C201.978 435.667 222.57 390.737 285.554 353.433C353.628 313.105 387.775 293.974 451.675 285.949C561.89 272.113 643.284 229.337 729.633 190.16C826.986 146.011 860.706 103.382 943.515 109.032C1004.29 113.177 1062.51 110.507 1094.8 112.262C1124.24 113.84 1129.28 118.266 1193.26 163.8C1261.54 212.374 1274.5 218.569 1297.9 228.894C1328.53 242.48 1374.75 259.059 1443.93 255.534" stroke="#383838" stroke-width="0.971774" stroke-miterlimit="10"/>
<path d="M-29 470.626C34.8697 492.752 87.942 489.949 130.114 475.42C194.795 452.881 212.864 407.169 278.548 369.216C340.825 333.225 374.559 321.425 438.96 312.427C556.256 296.039 642.959 250.622 734.825 206.769C838.079 157.517 875.235 120.567 963.458 113.841C1026.32 109.061 1077.35 115.758 1105.62 119.932C1130.95 123.679 1136.45 128.783 1202.24 178.374C1271.18 230.384 1282.16 235.901 1300.51 244.383C1330.57 258.292 1376.12 274.68 1445.06 270.019" stroke="#383838" stroke-width="0.971774" stroke-miterlimit="10"/>
<path d="M-29 486.437C36.1382 509.463 86.2162 505.51 123.579 492.529C187.655 470.094 203.07 423.29 271.541 384.85C328.006 353.152 361.313 348.712 426.23 338.755C550.591 319.683 642.649 271.744 740.15 223.244C849.437 168.859 890.089 128.841 983.533 118.515C1048.44 111.376 1092.35 120.772 1116.55 127.454C1137.78 133.354 1143.78 139.107 1211.33 192.813C1281.01 248.216 1289.89 253.187 1303.25 259.751C1332.63 274.177 1377.61 290.152 1446.33 284.355" stroke="#383838" stroke-width="0.971774" stroke-miterlimit="10"/>
<path d="M-29 502.265C37.3773 526.176 84.5789 521.087 117.03 509.64C180.457 487.308 193.172 439.177 264.535 400.487C315.188 373.021 348.052 376.001 413.515 365.085C544.868 343.181 642.354 292.808 745.401 239.706C860.721 180.202 904.987 137.057 1003.54 123.177C1070.72 113.722 1107.33 125.714 1127.44 134.977C1144.59 142.884 1151.04 149.418 1220.37 207.255C1290.8 266.065 1297.51 270.535 1305.92 275.107C1334.34 290.58 1379.02 305.641 1447.53 298.708" stroke="#383838" stroke-width="0.971774" stroke-miterlimit="10"/>
</g>
</svg>
